<mxfile host="Electron" modified="2025-04-11T13:25:26.218Z" agent="Mozilla/5.0 (Windows NT 10.0; Win64; x64) AppleWebKit/537.36 (KHTML, like Gecko) draw.io/23.1.5 Chrome/120.0.6099.109 Electron/28.1.0 Safari/537.36" etag="BU8nWRhMLxKDCyT1x3t_" version="23.1.5" type="device">
  <diagram name="Page-1" id="0FeBYkfIMDoortqSyj7W">
    <mxGraphModel dx="2074" dy="1204" grid="0" gridSize="10" guides="1" tooltips="1" connect="1" arrows="1" fold="1" page="1" pageScale="1" pageWidth="1300" pageHeight="550" math="0" shadow="0">
      <root>
        <mxCell id="0" />
        <mxCell id="1" parent="0" />
        <mxCell id="pdfH89d47obwF98P1YPj-61" value="" style="endArrow=classic;html=1;rounded=0;" parent="1" edge="1">
          <mxGeometry width="50" height="50" relative="1" as="geometry">
            <mxPoint x="647.5" y="121" as="sourcePoint" />
            <mxPoint x="647.5" y="151" as="targetPoint" />
          </mxGeometry>
        </mxCell>
        <mxCell id="pdfH89d47obwF98P1YPj-64" value="" style="endArrow=classic;html=1;rounded=0;" parent="1" edge="1">
          <mxGeometry width="50" height="50" relative="1" as="geometry">
            <mxPoint x="494" y="122" as="sourcePoint" />
            <mxPoint x="494" y="152" as="targetPoint" />
          </mxGeometry>
        </mxCell>
        <mxCell id="pdfH89d47obwF98P1YPj-63" value="" style="endArrow=classic;html=1;rounded=0;" parent="1" edge="1">
          <mxGeometry width="50" height="50" relative="1" as="geometry">
            <mxPoint x="647.5" y="68" as="sourcePoint" />
            <mxPoint x="647.5" y="98" as="targetPoint" />
          </mxGeometry>
        </mxCell>
        <mxCell id="pdfH89d47obwF98P1YPj-62" value="" style="endArrow=classic;html=1;rounded=0;" parent="1" edge="1">
          <mxGeometry width="50" height="50" relative="1" as="geometry">
            <mxPoint x="499.5" y="72" as="sourcePoint" />
            <mxPoint x="499.5" y="102" as="targetPoint" />
          </mxGeometry>
        </mxCell>
        <mxCell id="pdfH89d47obwF98P1YPj-60" value="" style="endArrow=classic;html=1;rounded=0;" parent="1" edge="1">
          <mxGeometry width="50" height="50" relative="1" as="geometry">
            <mxPoint x="1096" y="418" as="sourcePoint" />
            <mxPoint x="1096" y="459.5" as="targetPoint" />
          </mxGeometry>
        </mxCell>
        <mxCell id="pdfH89d47obwF98P1YPj-59" value="" style="endArrow=classic;html=1;rounded=0;" parent="1" edge="1">
          <mxGeometry width="50" height="50" relative="1" as="geometry">
            <mxPoint x="825" y="419" as="sourcePoint" />
            <mxPoint x="825" y="460.5" as="targetPoint" />
          </mxGeometry>
        </mxCell>
        <mxCell id="pdfH89d47obwF98P1YPj-58" value="" style="endArrow=classic;html=1;rounded=0;" parent="1" edge="1">
          <mxGeometry width="50" height="50" relative="1" as="geometry">
            <mxPoint x="563" y="422" as="sourcePoint" />
            <mxPoint x="563" y="463.5" as="targetPoint" />
          </mxGeometry>
        </mxCell>
        <mxCell id="pdfH89d47obwF98P1YPj-57" value="" style="endArrow=classic;html=1;rounded=0;" parent="1" edge="1">
          <mxGeometry width="50" height="50" relative="1" as="geometry">
            <mxPoint x="564" y="298" as="sourcePoint" />
            <mxPoint x="564" y="339.5" as="targetPoint" />
          </mxGeometry>
        </mxCell>
        <mxCell id="pdfH89d47obwF98P1YPj-56" value="" style="endArrow=classic;html=1;rounded=0;" parent="1" edge="1">
          <mxGeometry width="50" height="50" relative="1" as="geometry">
            <mxPoint x="814" y="296" as="sourcePoint" />
            <mxPoint x="814" y="337.5" as="targetPoint" />
          </mxGeometry>
        </mxCell>
        <mxCell id="pdfH89d47obwF98P1YPj-55" value="" style="endArrow=classic;html=1;rounded=0;" parent="1" edge="1">
          <mxGeometry width="50" height="50" relative="1" as="geometry">
            <mxPoint x="868" y="234" as="sourcePoint" />
            <mxPoint x="868" y="275.5" as="targetPoint" />
          </mxGeometry>
        </mxCell>
        <mxCell id="pdfH89d47obwF98P1YPj-54" value="" style="endArrow=classic;html=1;rounded=0;" parent="1" edge="1">
          <mxGeometry width="50" height="50" relative="1" as="geometry">
            <mxPoint x="774" y="235" as="sourcePoint" />
            <mxPoint x="774" y="276.5" as="targetPoint" />
          </mxGeometry>
        </mxCell>
        <mxCell id="pdfH89d47obwF98P1YPj-53" value="" style="endArrow=classic;html=1;rounded=0;" parent="1" edge="1">
          <mxGeometry width="50" height="50" relative="1" as="geometry">
            <mxPoint x="625" y="237" as="sourcePoint" />
            <mxPoint x="625" y="278.5" as="targetPoint" />
          </mxGeometry>
        </mxCell>
        <mxCell id="pdfH89d47obwF98P1YPj-52" value="" style="endArrow=classic;html=1;rounded=0;" parent="1" edge="1">
          <mxGeometry width="50" height="50" relative="1" as="geometry">
            <mxPoint x="516" y="238" as="sourcePoint" />
            <mxPoint x="516" y="279.5" as="targetPoint" />
          </mxGeometry>
        </mxCell>
        <mxCell id="pdfH89d47obwF98P1YPj-51" value="" style="endArrow=classic;html=1;rounded=0;" parent="1" edge="1">
          <mxGeometry width="50" height="50" relative="1" as="geometry">
            <mxPoint x="467" y="236" as="sourcePoint" />
            <mxPoint x="467" y="277.5" as="targetPoint" />
          </mxGeometry>
        </mxCell>
        <mxCell id="Tpr0nxzO7cocBPtCTJnX-44" value="" style="endArrow=classic;html=1;rounded=0;endSize=6;startSize=6;" parent="1" edge="1">
          <mxGeometry width="50" height="50" relative="1" as="geometry">
            <mxPoint x="295.5" y="199.5" as="sourcePoint" />
            <mxPoint x="295.5" y="269.5" as="targetPoint" />
          </mxGeometry>
        </mxCell>
        <mxCell id="pdfH89d47obwF98P1YPj-15" value="" style="edgeStyle=elbowEdgeStyle;elbow=vertical;endArrow=classic;html=1;curved=0;rounded=0;endSize=8;startSize=8;entryX=0.75;entryY=0;entryDx=0;entryDy=0;" parent="1" edge="1">
          <mxGeometry width="50" height="50" relative="1" as="geometry">
            <mxPoint x="481.5" y="186.75" as="sourcePoint" />
            <mxPoint x="595.5" y="214.75" as="targetPoint" />
            <Array as="points">
              <mxPoint x="653.5" y="196.75" />
            </Array>
          </mxGeometry>
        </mxCell>
        <mxCell id="Tpr0nxzO7cocBPtCTJnX-78" value="" style="shape=image;verticalLabelPosition=bottom;labelBackgroundColor=default;verticalAlign=top;aspect=fixed;imageAspect=0;image=data:image/png,iVBORw0KGgoAAAANSUhEUgAAAiAAAAEnCAYAAACQZPg5AAAgAElEQVR4Aey9CZwd1Xnm3ZtWhMAgtPQusRhsJHXfrfdFgB1M7MTObifjJE4cf/kSe5wvmSTfJI4nXyaOZ7KN7cQJBtTdkpAQSGhBYhdikYTQ1qswHtsxXsEsNkKgpW+d83zzvOecunWX7r4ttYTUVdLv/E7dunXr3jpVXe+/nnc5JRrR/2gEohEI3wgoaK0A7UErT5Y1AA8aaZ1GWo3CU6fheW9Bpd+EOv061LGvQ//gEahv9EIPfxn68N9A7/9T6L2/D73nk9DPfFJ67P0U2PS+T0GxPfv78J7/Krxvb4T38h6kj30L6vQxqPRpKJWGUh6UVlBam16l4WmzzpPfBCiwTfVZAnjMUYvG4PxeA1N9HV+8+yu5eH969MujEYhG4ExHQEwOAUSlAe8U4J2EHj0G9fLTUC/cDn3gT6B3/QKw5UZg/QKgtxxYXQLcVQLcXgJ8LdDuKAGC7c4S2VavLoHqKYFaXQLNz3H9HSXQ7PvmA/e9G3j4A8C+z0APfBHq+zvhvfECvPQJeFqbZgGEIDK1EBIZ3fNrdKPxzoz3mf7VTr/PRQAy5U9V0+8iiY7oQh8Bo2ZQ0cjc5MwNP2i080zA64PAi1uBI38FPNAK9F0K9M4F+uZB98w0sEFwIHg4+LAQkQGO0nz4sJ8hgPiNn3PtrlJgdQXQMwO4qyyzvncWsOZSYNP10E/9JwEh9eO98E68BI9KCbSFEAcjPCL3n2PglByuC77ntgn2eaORN3a5Yxm9jsZsaq6B4HUY7uUIQPwbWLgvhOjoL+IRoPuCbgxFIwxocWV48KBgXBga6dGfQL/5bejvPQC9+6PAvUuBtZdB910C0PCvLjcwsLrM9ISIIHw4AOE6goS8T5Dg9u51oLfQQgDx4cV9htAh31dqPuvAxN+v3U/vDGDtpdD31kE/9iGoof8B79i34aXfssflQISuGx7/qHHpEMRkHMxYcDzy/0fGdGqMaTSOkx/H/KsxrGsiAClwawrrxRAd90U6AmJwtTG6SkPRhaFGkU6/hfRbL8J7/ktQO9uBDYuAvjkADTuho6eiMDwEgcIBRLAPvj/pZUKHBY+7rGuG+7jTumbs/vTqUqCHrQxaWjl03xyouxdB3XcdvP3/D9I/GYYaPQYtqEUIS0N5hBAqIYCEuCiOS6D5f++R4Zy84YzGbGrG7CK9z/h/O1P3+yMAOQeDOnWnJ9pTNALFjACf9GlwFXT6FPDmi1BHvwL18Pug7q2FotJB1woNv4vVoPvjHQGQjErCuJCsZiFE1vWUWPAoNW4cu626swTqrlKo1RXwqN5sbxYXkn7zW9Cjb0B7J6A8BtYSSExgq1OFjBJCI8r/kTGNxuCdugaK+ZsOxzYRgEQAEo3ARTcCJhoiy4yefB14aQ+w5/8GNq8E1r5LjLsYbBp2p2A4dwddJwXdJ06hcH0GGAq6Ws5CAcmCjyCMuNiRngB8WDhR3G51ObSDKR4PYWr9IuDJjwHfXAsc/x706HFolc5xxQQNjoknMUY492Yf3C5ajkBlqq+B3OstvK8jALnojE94L9awHrmC/S+pqWkozdTV09Dpt6GPvwh8/0Hg4VuBuxcBEjxqXBzMNtEu64SgwLgLAQ/Gbhj3hvTWBSIKiQ8mpcCdgSZuExvzwc/mtdxYjwC4OOiRGA/zWbpYTMtRQRyIEEJEBbGBrD6AlEL1VED3zIB2AMX9UtlhzyDWLTFg+H8Brw1CM93XT/EFlGaqsUk3ZsqxQzkZYQni5VU21QYn2l80psFrIKx3svzjjgAkApBoBC7gEaCB9LSSuhiegMcpKAZhvvUDqG/cBX1/o8laYWCngwTpAwAg8JELD2USX2EAxKkd7G0Q6p3MTimFvrMU6s4yozr0VgB+KzepuUzP7SsD1rCVAn2ulUD32kaQEAXG/gYb16F6yqBWl4pLRWDJQoYoI7kqiHst4MLfw1bqu3CojBh1hN/F33AJsKEGeOb/gvrpC1Cjx80YAkhL02BejQnUtfEjophwxIPGIlqOxmOqr4F8QxzWNRGAXMDGJ6wXZXTc2SNgIMSDSh+Hd+JHBjy2t0KvuUJcEVQ5sjJTskAkCBfB5QygSF0OqyLor5WAjTAjRr6vHGptBdSGmdD3zobeOg949ArTHl8A7F4A7FkIvW8R8Owi6GcXSlP7roLf9i4EdswDtl8CbJkL3Dcb3rpyeH2l8NaUQfWVQdHdYtWPoKtH0nglGLUUWlwy3M421hmx4FGoFxChe2bdQuinfgfesf+A550U8BiFQlr+E0IIecyiMcXPMrEiU214ov1FMMNrIPrvRiACkOhiiEbgHR+BXMPk/jxtT+XDOwH9wr8B910D9DBlljBRYcCDACKxGEHAmGg54Prw1QW6MMqA++cCj18J7F0MHK4FDtWYfqAOGHStFnqgBnqwBnqoGnqoCnq4Sno1VAk2b3AJvEEuV0GP1ErDUC0wWAsMcL/VwL7FBmIeuRzq3hnQ68pEOfFrj1j4YEZMHoBYYCkEH6KG+EBDVWcmsL4S+qlPwHvjKNLqBNJ6VBDEd8XYSqwRgORej9HrqQWnnL/vd/z+8879nghAQnzy37nLLvrmzAjk39ypeGRKbnnQ39kI/cgHoNdebmt2zJR4DlE+guoHXQ9B9UNiLqyaQWNMFwd7BxxrSqHunQm981LoJxdAH6w0gDFUBwzb5oCB0ODWD9VCcz374RrTRqqhR6qhhquymicwYsBEIIWwMlwDuMb9DJt9YbAa6K8C9i8Cdr0L2DIbWFcG9DLQ1Kbl8vgk9oPHmnM87rhc747ZAdpqZv7Mgd5YBzXy9/BOvwpPj4oCYgq25Z+LqTU80f6j8eQ1EP13IxABSHQxRCPwDo4AgyKzmi05LvEerw9A7f4YVN9cCbxUzP4INroignETzjXh1jnguKsE3l0lGF1dgvSGcuiHLgWeXQL0U42gomEBwMEAgcA1QsZgjcCGqBfDBj4IIKZZABkmWJimhqtF9aDy4ZoerII0AZBqYJgtACIjNQAhxqoo3BYDVcDhSuCZBcDD84HNs028SY+JT/EDT12GT48JhPUBiyDiICQwFvJ+72xgawP0i5uhON+NHffIQEaQdO6vAWd+oz4CkHfQ+ESXXzQCQfjwFOApDW/0TanjoTdUQ/fMhlpdFoh1sEGb7unf701chLgjWCvDNo9xEuvKobddAuxZZNweR6g01FjwqMuCCx88LIDoPOBw4OF6ByCutyBCt4sFEKN88DVdNablAQjhxbpxMFwFDFUBg5XAQCXQz55AUg0cqAQevAxYP8NUWKXK45q4oQpASDBWxKoj4rLi5wgvuz4Cfewb9k4QfEKNjPG5N8ZhHOPovudGIAKQCECiEXgHR8CUULfpoelRqFePQG1vAXpmWxeDyfiQ4lsswCUqRyB+wwcQTvrGFNVSeD0l0vTGGcATCwx0+MBhXSl0p1g3SlbvlI8ggBBCXPOVDwcgATeMc8cIZATdLtnwQQjJAxAqIEeNCuIDyFClARHCiLRqiJvmSBVwqAo4WAU8dJnJviFMBNxRWSpIEEDceAWhhYGqGyqBb28AGGvjp+PyNhlGAxkd87k97878Rn0EIO+g8Ykuv3CPgMR6qFNQXhrq1DHo4b8DNlWZ2WZpICXewdTLMABSGDzohvHYekuhN84EHpwPPHWVMdIDAfdJIeAIrpsIPsZSQxx4uD6gdDjFI7cvCCDihrEQMuIgJdhblw1jRdiGaowqwtiV3VcC97A+yDgKiAURP+vHuW4kbqbMpO7u/g3g9QGAdVZ8t0yh6zQy0ufWSE/n8S10PYVzXQQgEYBEI3AeR4DQEWyeOg7v1T3Quz4CrL/cqB6c7l7cA2V+amqhWAYXhKnuKEF6TQnUg5cCzzGQ1MV0MEMlv4ExHcG4Dqtq+DEeTu0o1AeBxVdDnPvF9RlXSy54BF9nxYBIPIiFjULw4eDkaC300TpghMfoMnDs8RyuEhBRW2ZDcTwIHLmNCkhQ/XBF2Nw6FnLbloL+j/ukdogULpNCZsyVyZw7Yy6ms5GMju3cAVY4YaPQUUcAch6NT6ETEK0L0whw9lZOnWbqTngnX4X3vfXQm681NTfuInCUg0AhwaXO3RIMKuV7bDScLPB1dxn09rnQ+xebYNHhOuMuseChhmrAVghEMusy7pSgOyaT6WJcMMH3gsuZ/Yz1PUEgyd4mCCEMYjXKSCag1a1zmTMm68a6faiAZDUTMKuPVEHvuQpq+1yo9Sx2ZuuFOAUkCCEOPKQ3lV9l7HvnQe39DLw3vwsvPQqPRcrsf1Gu/FeRoT53hnq6jq27kqI+AhD/RhJdDNEInOsRsADCyqZv/wDqyOeh1y+CZmlxiU0IVPiUKp82y8VBxx0lUF8zAaZ6LcFjDvT+hcBIHdRgtW0GOBx4TAwfBIIMgOQuB0FjrOWJASQbOqZme/eb3b752izLsbM+yUC1AbN7KiQmhiAi5d3t2AZLzbPiK5tZVwKwGNud5dAPdMF7bQieR5dMBj0yS9PVSEbHde7A6lzfZy6e/UcAEgFINALnfAR4M7fyvfbgnXgJeOxDphR6z0yZ1wSrKyTTReZyYXnzXjMNPUuli+LBCqXMbGGp8x2XAAeXQA8wtbUSaoCtCmrAQohVPYqDDxptZ8zz+7GgI7jeGf7z1+f/Tv+7B2sCMFYNzVgRZv08eSXU3QzStXVQGPfhA0dm2YGIllL0FVLATG9aDu+lZ6AEQszNPQMgfB0Z62gMJnMNXDyAcK5/aQQg59z4nOtTGO3/Qh0BM4UcwcMoH1qfhnr1EPS2eKZ0usxpQtcLmyl/LvOxsNYFQYTvUx3h0zuLhu1daMBDam7Yol+S7sraG9nqh2+UJ+GCyYWRIGiMtVz89zi14mz7cQCEYxCAEMaciJuHrprnFgPb5pg5aiT2IwMeroCbARDCHmcLngHcxaqzFdDr65D+1n3Q3ikDk1mZMsErcDKGKNo2nOASvF7CvRwBSAQg0QickxHgHCMe0tIU0hiF9/0dwOYbTIyHjeMwrpdAdouLSWBVU0IIq36yCuiD86GOsLAXq42aqqOsPCrNFgAz8REuELQYI2+DVXOyX4K1QHKBpPDrYr4rGAdypsvuewoBCNfZ9wVADIhQAREIIYhIqxU1REsdEVZTNW4vU13VTOgnMSA8D+IWc/PslEKvXQR95G9ECTEz7Cp/pt3CZiQCjHACxkTnvfDVEsa1EYCcE+MTxkspOubgCFCi50yrLPQ96h2D961eqHWXC3xkgkwD4GGNnQSXSlqombYe98yE5mRvLMLFaqI2UFPA42gARApBiDPIY/bTFEByj9efr8ak7gqoHKmBfugy6LXlUJxwz8HeaioeNsjXFTZjzxojbL1zgKc/CXX6GDw1EYDwipjIGEXvh2+MgneKcC9HABIBSDQC52AEDIB4SI++jvQL/wrVN0tcKa5CKXuJ6WBcRwA+6GoR5YNT3G+fB32IabWBp/hc9cOpIFLG3GWPWBUk1xDnvQ4JgOQdt1NKaqH3LYa+dxa8NeXQ1uXFuBuplBoEECoiBBC6ZXrnAbt+Dd7x78GTGXQ1FCeyK3gdRYARPsCY6JyHGzqCRx8BSMGbRnCIouVoBIobARogxn3YRFt4J38Ab/D/g14zB5waPsvdEkytDc5T0lsKsJjYriugOQ8Kg0upetjqodrVwxipMe4XByC+AkIIKQZAjBtD4jrOiwuGRv9MXS/8nHO/sJ/ABZO1bfBzmWU/QJcpu5wTZ+ulUGvKpZqsiQexMwzbcyNA4iqtMjuG6wkhb31fUnT9GXX94mUTGaHo/fCCSXH3kzBsFQFIBCDRCEzBCBj4IHp48PQpqNFXoA79GfSa+dngkTthXFD96C2B2jQT+sAS6H5muASUDxfDMEatDLpmMq2IOBBCiisqdt4AJAMA2UAx2fVnDyDB78dArZR1V49eYSAkFw7da54rLosSUgqsWwD9YDfSb38PaaZWA9LcxHbsw2tko2Mf+9yHAS2KO8YIQKbA+BQ31NFW03kEnO6RZthp+idQR/8nsPYyU07dxnRIlosrLubAgwaNy4SPLbPF5ZIdNOmCJwO9wIaDjCB4uGX33gQ9AWQc+OB7Y6sNxb43WbiYaPuJvneizxd6vxZqoAbqSA3UEwvAAFU5J3biOheUKr1dJ24zLq+5BPrRDyD99veRRj6EjG2EIgMd3rGZznfCyR1bBCARgEQjMAUj4AOIPgHvW3cBa+dmUm1dUKlTPxx8uCfq3hLonfOgDy/JydgIQIdTQJwrJkvxcODh+gnAw7poJoKPqQEQAkMho3+m66YeQNRwLaQN1UIN1kLvWQS9eQ50X6ktXGaVDweLtqKqBKsyZqe3AurJjyJ94kcSeEwlJFJBIsAaG7AmZ6Sn89YRgEyB8ZnOF0h0bMWNgAGQ01Df3QS97tKcKeIZ1GiaUUEC2S9rSqEfmQ99pNKk13JGWBfzEYSO4PK48FE8hJw/AJlKCDl3AOIJiNTBO1ovSpQoUkEIccAY6FldFRZC9FMfh3fy5TwIGdsQRUY6nGNT3D0lDFtFABIBSDQCZzACLuYj06ehvv8A9PorZI4WmUzOz6IIAkhgXpK+ElNYjPEeQ1UmqDQCkAkUk6kHEE3woPrh2oiZa0YdXAJ1/yxTuMy5Y5x65eJC7HoJUu2dCTz7GXjpt2W+H1MrxBSiC6ehjQCr8HkPA1oUd4wRgJyB8SluaKOtpvMIOJeLyO3ag3rtIHBfvSka5oMHMymC8GEyYfjU7K0rg352sZ1MjcGmrPGRqfNhimadqQuGKsjEbphIAXFuIAM1WZVkh03BN3VoMdSWWRlXDIHDKSDOJRM833dfBf38vwiEKF4Xkp4bGeLChjis4zKd74yTO7YIQCIAiUbgDEbABxDO7XLyZejtKaN8BI1RAD4IIjRcMiHa3eVmtlZX1VRcKgZAJnS/FBUDEgHI5ONOMm4iV21WDbPybBXUwcXQDBDmPDJOAWHv1A9Xvdad+745UN/bDqVGTaXUKBsmygbKugYmZ6Sn89YRgJyB8ZnOF0R0bMWNgAEQD96pV4HHP2yKVNny3aaIVUb5cCoIDZa3jvCxUEqqezRwonpMQv0oCkAmVj+okEQKiFNAsnsBkKEqeEOV8IYZm1MFdXiJUUKcAsK+1xQvk+JxQQjh8t0LoV/eKzVCIhUkrErHWMdd3D0mDFtFABIBSDQCkx4Bk+XgjR6D7v9rM1+Lgw8XlCjVNAkhnF/EzjHSWyqVNyn1e1biz9TuMMGjxSog3C73s+Z1cfBBhWCiImRTlwWTURcmr0xkw8HEacG525/Ja07sVwVv0ACIgCKVEELI9jlQzFpyANI3A5pl3Kl+8Brgebfl3LEtAXXyFXhUyaRInbluInfEWIY5LOvDgBbFHWMEIJM2PsUNbLTVNBsBraGVgtY2xVKNQr+4BeidbQ2PzYbwAYSvHXyUAX3l0E8vlLoaapiz1jo3SX51UBP/QUAYo4l6QQXjbNv5qAMSDBo9ExgIfia4r7NZDu5zjOXBaqjBjAoiSshgJdSBRdA7LoFaUwr0cqLAcmhOFuifdy5zEsFyoGcG1BO/iHT6GNIWQoIVUyMQCQtw5B7nNLs3noUNjQDkLAYvuozCMgIQ8NAKUAQQDehXDwEbajOuF3nyNRDCWAFjkEoh07v3lEHvvgoYrgMzLiYqST4meASB5Kzh43y7YM4GGKb6s2NAR7BeCSewG6wqDCHPLQR2zJPsGDnPVD8sgJgYEcb7lEKvLoNedwW8r38Vo+m3bKEyDY+BqbZFEJJrnMPwOiz3zYmPMwKQCECiEZhwBMxN0YePk68Bj/6cmZjMZkJwAjmR5RmoaAGEJbs5BwweuQK6n3O3EEBo/PJVj+C6CECmGjhy91cEgBBGBmsEQIJKiGJMyGAl9HOLgHsqTNYT4SMYnBqodivr1y9E+rVDSOtRpF259ghAQhyYOrFhDssWEYBMaHzCcilExzn2CFi3C5WP9FvAwBeBHut6cdkQFkD4JCxBiVxPANkxH/owXS6MzaAhjABk4jiOXGCY6tdFAsgYEOLcMXh6AbChAuDMxVmTDWYmHpS4EF4HO9uRPvlyBkBYLZXXU1Z2RPQ6HOMx9p0mbO9EABIBSDQCRYyAkcwV9MvPAOsr/UqnMj8IYYOqh40FEBmeIHL/HOj9S6BZ3ltmcHWGL1JA3lkIceeh2L7auGOCmTEjVcDRWuDh+cD6CokDMTMeW/eLU0RcdgxTc49+CWmPRcoCQBsBSAghLGyYMfbxRgBShPEZe/iid0IxAtok3arTx4Cd3QY++FR7ZwkU2x2muqnutcGIdMusLYN+bglA+JB4AiPpRwqIg7F3si8WPILbWQixgamKAPJ8DUC32ra5UH2lUKKCOADJqCAEUsmOufsKeC8/Lam5DkLC8cQfKTvZ5zkUd82iLGsEIEUNU3TBhHsEFJQ6Bf3C7UCfmefFzYzKWVE9AojEe9hYAALIUwuMuyUIH1yOXDBTMMPu2cKLOw+T7AczEMI0XYxUAyM1wIHF0PfNNDFA/oSDFkQIJeKWKwV6KoCH3w/v9E/9tFxjmPjXFRnp8IxBuO+mwaOPACQCkGgEihgB9dOj0HcvsqXVTUVMr7cCHgHkawZCxPXCINSH50PTWDHYtCCA0PCN7Ya5YIJQxW10tsb+Qvz8JMFDoNF+xgWmEkDcBIHMSNq3CHqdqQcSnHBQVBEGqbJWCAOSCSFD/wDPOxUo0x4BSHjgg6AZ/XcjEAFIdDFEI5A3Agr8z2nE/PbIh6B7ZplS3JyOvadMmkcXzNesAkIXzNZLoPtZQ4LwkQMgQUM2zvKEADIlKbgTpOEO1Uqhsnc2ViMDL1I0bcqA6CwAJKBg+QBCEBmoBh69XNJxRfFgDEhgrhgXmCxBqfcug37paSiVlissXMY3Unqc8Y16jQhA8oxPdFmEfQQIH55OQ+lR86T6g4eBdZf6Qaam2iXTblnnw2S7EEL03RXQexebYmNUPgZqJAbEGU/241YCtRPInX2BsSILlFnICP6+C335/AFREZASSKmW8u2HK6Hv55wxNv6D10YQQiyUoGcmsPtX4I0aV0wEIGGDkrDfYTPHHwFIBCDRCOSMAHWPNDyBD887CWxvNtK5SOgsr25iPYK9GJrHrwQGOJV7ncl8GTQqgjPqvvFkOm7BZsqoRwCSPW5u/Nj7Y3jOl4sEEIFGM3OuxwDVfQuhONMxYcMGKsuyzYrxr5kNS+D9dJhXWaSChC7+JWOAw74UAUiO8Qn7BREdP50uMEGC6ePQ314P9M4NzPNhAcSlV9KwMP32nhnQh6qhBmqgBC7qxFhiqA6ZZg1oQfiwUMJqp1PmYplgXxelAuLAwMGIe53bu/fPtM/dX4HXVrGS0vosrz9cDW+gEuqhS83MuQEFhMHKbAIgjAlhCf8HWpBOvxkBSAQgobVCEYCE9tRHqDHWCBgAUVAnXwYeugXomZUBEBoRCx++vN5XCuy+MlPvIwAY5umdEBKIqQi8n6eETBZA7PZZrh1OVJcXY5JtiN3vuZB7qh3y+4bNnDWZDKIcpSgwBi5+Jv/4cwEiezzylZXc7Qu8tgDC6rYCISNmkkHv8BLoLXMNhFjlg/Ah6bguJZf92svg/fCRMe5AYXNLhOl4x7rzhG99BCBj/PmH71KIjtiNgMSAqLehjv4z0DcD4rN3T68WQCivgxI7X2+eLYGnAhNSbt2oGYWMuxi6swUQpn6yBWBFDVwDb2AZFF0TnD5eZnOtRnqwGp5k5NCAsiZJTnNG/gLr+VtZPZYz8uJoHTBSa4w84UrSX00KrCltTyCphswkLD2P1QYBcx8FmgGU8SCkAHDkQl0AQIIQIjCyZyHAWjAMWLbqh3PF+G6YnnLgwW54p45DeR6UMnPEmOswTAY5bMfq7jRRHwFIBCDRCOSMgKJnfvQ1YHtDRjInaMiEY9YFYwEEnJqdfn9rjHz3iRi9/FiGKQGQoRpx9QQBRA/VwWPgKw30cBXSg0swOrAEaboEBqutETbwgcE6qIE6eAP5v68QNL0T6wyA1EKPWAA5ao4Pz9fBG65FergG3kilOWbChswwbMCD54AZSJKJJKmy+RAyJQBCIMmBENmvfH8NsHUu0GvqgDgFxEGIr4awQuoPHkF69BQ8z05UFzqXRAQgYUWRCEByjE9YL4TouDMjoPRJqO9tAnpnGOgIqh+BcuvoKYHaeYk8bdP/78MHYzj8p+5sI3/WAEKjZ6urYtDGeFC9GFyG4wfq8b3di/HNnSux756leHJdLZ7dWI8XHqzBD59cglOH6qAH6A6qR7qfvyvjGnonIGO87/THaaQO6aE6vHmwHi/vqcMLj9Tg0P3vxhNrrsbe9TdiaNu1+N6ua3D8wFKcOlIvChDTYwkf3kCVnJvMuciclykDkFxVhOddoKQWet8iYG15QRXEgQiogjx+K9LeMVMhValojphpD2CZe03YlyIAiQAkGoHcETj9KrA9nlE/7GynlM7FcLCyJVMtN1RAH1wsqgMBxLgBAoGfuRBC14v/1FwoEyYntqFAMCo/r5hpI+oF03xrMHq4Dt9+tBqf/Z1mdHa0o7O9E4lkF+LxVYjFbkJLSxt+5n0x/Pc/vgEvProMJw/WA4P1flzKeCDwjr0nY1WLE0fq8aOnl+Lv/+J6/OxtDWhp5bG9D7HEzyCe7EayqRldnUl8/Ffi2LPuRpw8vEzgQw1UI91fOQGAWLdUwYyaIlwwBeBDFJERo9xIGrbEgthqqNYVE1RDRFXrK4d6eQc8fRppccOETREI2/GGHTsyxx8BSK7xiV6HcATsDZBzvug08JN+YO18AyAMOBXXiwk+ZeCpzHjbVwI8ehl0f6XEW9DtYWIQAgCSAxB5cn2ufG9fZykpTk2x+xIAGawVCOGT/Y93L8MX/qgFLc3dSCRWIRbvRizRgUSyzW/xRAdi8XY0xBNoaWnAP2jkPn0AACAASURBVP7XG/DG3qVQg3XAsMnSYeqwLEvAZ+AYzlNsiK/q8PuGCUf1GB2oR98/vhu33bYCjakYGpMpNCbbEEt1IJ5qQaKpFQ3xVtxwY0r65pYWfPq3Uvjmg9cCnKvlG5VGlfJBMFcBOUPIKAQebh3h42iduI6kCu6TC6DXmFgQv0AZQZYQa3sB230fN2nf2kxUN35tkMwN3CyFzYBf7Mebe/7C+zoCkBCa2/Be7oWOPHAzUx70ydeA3b8OrDZltU3aJOM+SiXolBkwYjw4DfsBTjZXBTVcJXEXJv7CKCFmuUCMwBjQEYSTPADhZ2zZb/ZqsAbeQB1efOx6/M6HE2hq7kQ82YkYW4KtA/EkW7u0WILw0Y6ViVbEU21INrfhP3+yCd/d9W7g6NXA0WXQw0uhR+qlPknu9xt3xdjGeipUEjNjMINrlwLDy3D8uXp8/rNJNLW0ozHZjoZEKxqltUkfS7YiluRyGxoS7dJzmWPw/lu6sWvtDWC8CCeLy3XBTHQ8xb+fCWJ13+GymsQNI2pXLfDAPKDXlGL3wSMrK6YEWHc5vGPfgKfpgnHBqIFr03dLFLqG3bpC20frxoe5d2J83PmK+ghAIgAJ+QjYG5AGtEoDP94PrFsA3EUA4ey2Fj6ofDDwlIaD873suAToN6pHPngEISS4XByQ5AKAn91hMzuY1fLdXcvwiZ9rQaq5DfEmCx/JDoEPAkhua6SRpiFPcvt2rEi04eO/FsN3n7gWeuRqqGFCiAEQPZLzO93T/Rj9VACIGHCqMM9fh1NHqvFXn44jkerAyng7VsTakEjxGDOgQdgo2AheqW7cdms39t5zAzSzknIUkOIBY2zoMvsIAoh1r/nuHDOGEpz87CJgTZk/H4xAiFVABHAZY9RTAX34c/DSJ+A5AOE16YOHWx7PaLltoj5/3C6kMRnvHIbrvQhAQm5+w3W5Fzpae2PizT59Ahj4InBXeQY+ggBCCCGArC0D9lwFMMiRwacjQcgYbznHsI+hhuQBiJv0zE5g99qzy/DZ34ojkWwRVYNuiUbCx1gAwvXitmhHLNWO5Yk2MeyNqRT++k+W48Tha4Dhq0UBYbor01yzFJwxwMMZ8qkBEAbF1ksq8b3/qwFd7VR1OuS4kk2dSDYRLCYGkAZ7bPFkF37h5zrx4hPLCgBIoTopE8FGofczACJBsz58OBjhZ1icrhrYNBvoK5dy/gUBhIrb5hvgnXrdqiAwwahZEFLo+g2uu5CMbPRbxoag4DkL93IEIBGAhHwEMgCCt18C7r0+EPvhFBBbfMzJ5lvnAIeN+8XFfughk3ExvhpyZgAiht7OrusN1GDHv1+DjlVxUTRWJpoMfKTaRSGgSpDdDJjQeFP5SDS1iyFfQSWkuRk33xLHzjtugDd0tSggrC8SdAfJ8nkAEKYR68Gr8cPdtehsfT/a2hKgakOoSjR1iBoyoQIi8SGtaEy1YUW8HcmmLvztn8Vs+XYX1+JmIS4EFJNdVwSA2HRgtX8xcHeFVdQyMSC+AiJxRuVQP3wMnhqVaryK8KFpoJwxn8hYue2iPjNmF+JYTHQew/N+BCAhN7/hudTHOlIT9KeUB7ywGlg901Q6dXU/gim4NBJ9pdBPvAvorwQIHTb4lP348EFVoYBxH2OdxBC4IFb3ZD1Yi5/uq8dvfnQ5qF40plpM3EeKgZm54OFeE0DsMiEkq7VKIOef/n4jjh+4BmqQLpjif6PbdioUEALIycN1+Pf/vgItLTcj2cRg2s6MspOyxzGW60XWtyKWMnEuVELohurqasV3H1+G9ADH37rMREmaLGwU2n48AHEqiDnvirEo980yyhpBNtcFw+uMCtsjH4AaPS4AoiMACcDXhQgSZ/qbxroXhW99BCARgIR8BCyA0P2y+2N+mXV5Mg2k3/qZMPfNhN6/CBgwAEIIkWbTcMeHkMkad1tRVTJTqBDUYfD+a3DLLTHEBD5MICaDMU1z0OF665YR94xbF+gTHaIy/OytKXx/1zXwWKCMab62OcAYrzfuIlMqXaqW2rLpecsTZNPwO04NVOHXf7VRVJpYsgtsjRJca1wxjGEpGPcRgJJYohVsbrtkUyt23H4jTg9UwxuqNMHCTq2aUNnJZM24INNgn+92yQAJoUyUKx/oaoFdV5o4EKuk+cXIHOQSQNZeBnXsWxKI6gOIr4JMZKDO1CBGnzu/islE5zE870cAEnLzG55LfawjtQDy5ovAfTdkA4hzubg03F6TeuvcLz58EELOFYBIWmqtzeaox8YvvRtNLQnEklQ/CCBBCAnAhVM9XGxIbk/4iHeiIdaB1rZmPL323aAK4eCDfbYBLQxPUwUgLCH/6t4aNLUxULZF0m0FOGwcCGNcDIBMDCEOPtgnUm34u/+SwokjGQBhmXop1e6OcYw+CBuFlscDEPNeZsxkPI9UAxtmZqkgvgvGQcjqMuj/3QPlnUYQQIgIE/+PQOL8gsSZjvfEZzIsW0QAUsSfdVguhrAeJyef08//O9B3icl+sSm4frVKGgdCyLpyKbvO4FNxvzj1wxm0CSEkY5DGUxWy3nMAwvlQhurx5b+6AbHUWABCJSQXQoIqSGDZAUjcAMjtf/semXeF0DEZCMlTOs5QAWFa8Qs7rkNDqhl0nzQkWkx6bRaAMLtnkgCSbMcf/mYbThzm2FdJwHAGQFw8iOuz3SyFoIPrBMxsZs24EBKY80cAZLAW2Dk/Kw7EB5Cg2vbgLVAnXoGSujSsTaOKvEudqUGMPnd+wSWsd9r8444ApMg/7fyhi9Zc3COQual73lvArl8yabarOfmcKZ/tAMTvWc/hUCVgA0JN4ClhxBqwggBCw1cN5W8TgBDuh5k0/VWm55wtbuI4F//BnvOhsA3W4+//nACSGkMByQUQAxyN4moJwIdVQyQ1N8G4kFb8w1/eKBPcmd+agZDxVZCgi2gCN8wELph0fx32rK9GvInqRxMa4oQQ53oJ9AIgGQiJSawH4z0Kt3iyDb/7sVZTop0BtszwYWaKOx+BZVazlfVyXqoBZq8EmhkLngeWw3fumYzbJQ9GfACx0MLPcJI6puQG3DDiinEqG+H37kVQr+yH55008KG9Iu9SEUicX5A40/G+uO+cU/nrIwAp8k97Kgc92tc7PwLydAlCiII3+iOo+5dB31UGfUdpJlXSyuI0EIoGYu9iMT7uydjI+O7p2UGIBQwaOE6QNmKmag8aPUKGuHGefBfw8DzgkXnArsugn74Cev9CAyN80nYQwplvua/+Wvz9n1+HhkRsHAAJQghjPDrRQFdLPBdAXIGvdjS3deIfP9eANIuqiUHOARB56h/b0BalgkwEIAN16N+0BHGqO4zhiLPORwA8qIRYkGIvKce+2uNiYApASLIVn/r4Srx9aCkwUi8qjzlGM2Mw1RBpAh9VUAOV0M9eBf34fOhH5klT7HddJvCpmKZMlccHEMLF2GMj77kS/FRNDlZJCX8fQAIVURmYamrPlEC9uNkUJAPTcTOwPP5fzpkaxOhz5xdcxj+LYXo3ApAIQEI6Au6mrpB+6SGo9ZdB31EC/TWboRCUxAkg6yuAQ3zqdRO40fDkwIe8DigchIZAE9fKgUXA4/OB7bOBLTOBzRXApgrg/pnAtlnAzrnQe670IURiLAggNF6DNVj9xWuRaJoAQEQlMPBBAFkZywUQ46ZhUTIW+mrv7MB9/3KDBIF67xCAsCz8y0/UIcFqrfF2KR3fGM8HEKoibJKe62qbFAIRBuZKDEgrPvfZG/HWQWbCsCiZi3PJBhCP8HV4MdTuy4D7Z0BvKofeXGHa/RXQPFc7eG4WQCAkUOBsQgCxgCLnkIrKznmmnL/LhnEQ4uJAuH7/Z0UB8QggRf+FRiBxfkHiTMc7TIgx/rFGAFL0H/f4Axm9e5GOAEtf7/196DWzwEnClJRaZ/0PU3RMfPSrS6DofuEMsjJ3CotmuViAXAjJBZBqAyE07IcWAzvmAFtnipHz4YMQcv8MAyQOQvYuMIXOWIRMlBD2tdizbhm6uhoDAajBIFSrBPgAYiCE5clZ1MuoBuxtnIhN373llnZ84+FajA5WIgggLtbB9GM/5U+FAqIH6/H2/uvxix9sRyLejXjsFsTizILJhhCWlKeaY1SQ3HgXvs5WQ5gFs+6froceYkEyzpbrAITulgCEHFoE9eg8AQ9sLIW+rwx6U4U0OU+bZwCbZgBbZwGEEP/8m9mOJ4YQB5HVwNMLgDXmGpOqugQQXne20J1ce1vj8N7+gakHInVAivn7OlODGH3u/IJLMecyHNtEABIBSAhHwD5TagXPS0NtboTunQHdMxN69UwolsVmufVAFozefSXAIMIJAYRAkq2OiOR/eIkYOIGPLTOA+yuAzeVGASGAOAghiNDI7ZwDvXeBKCEGQBgLUoNXnqrDb/zKypzsF+t6CBhfZowQOJLNHbjppg50dDpjTQAxQCLzwrS04ZMfj+P1Z5cgPcSJ9Yz7JRs+xnczTA2A1OHkwSp88c+uQzJxMxIyn40pMc9UXIII54Xp7mb2D8uzmzLtLuPFgQfni5F4EKuANDW34juPXQ01VG/mmeG8N3KMBEO6yRiHU2ngY9sM6M3l0FQ8qILYJnAYVKoemCPuMsaHcF8m5XZsQDNwYgGEQMk4oo0VQG8pNFshAGE67g8fR6SATEc4CgdcFHOUEYCE0PwWc2FM321sVgH96moU+ti3oTdUQvdUQPUQQmYIgKieUh9AdF+p+O7F/WIBJBcyCrpjXLDqYBWw50pgG5WP8gLNAohACNUQ+3rHbOhDiy3QGNUlfXgJ+r5Ya2tkcJI2AxpurhcBj6YOrIglccuqJtz9z/X46d4FeOPZSuzuuwGf+k+duKn7FjSl3o9kcwodnQ2478vXSREyj8GV/pN9cHl843r2AGJdI4P1GNl2LTq74oglU0g134yujp/Bx39lFbZ9dQVeevIavPJkAnvWX49b38eZceN2groWSbdlSnJDvNnWAWEl1A58+hNJpAeWivohs+wyDsRmsEhgL9Wl3ZcDWwgcBI9gy0AI3THYzNczDSDumAv0O9gcf3zyAIRzCD08X4JRcxUQiQOhEkIYHv4nMy9M0feo6Wisp+MxTd+762SPLAKQov+4Jzu00fYX7AgIfHjQrH76wyeg110BvZqZL7b1lEGtLjWyON0y98wABqz6wQDEHIWjIHy4+Vto4Ji2++g8YCuVjzLo+0ttK5PXAiVUQwROGHdQDtxXBmypgN63AIrlvPnUPshA1Cr88IlF+MjPJQU+GGBq4KMDjZwrJcU6Gu24+eZmbL79PTh5ZCkUlY3Bepw6UoefPluHFx9fhm1fXY7/9kc34q4vXIc39jI408S25LsSxlc/uP3UAAgVimUyF8zWr16Pv/jMjej5YgzfevhavPLMMrx1qA6jAxyHOqSHFmN427vx/lWsmNoiwJFIMmumCalmmyET70RXRxeGthvXC1OYg/E7AiGsTspCYTw3AhgBECzwWtMNw8Z4EKpUZwAgRnGpgn7icoBzClH9cAqIjQmRiqicCPHp34ZKn4hiQPxS9NMFRi7YO+N5t4YRgJz3IY8uvnd2BOz8GlQ/lAIO/5XU/9AsAGUb4cMHEMZ/bLsEGGAmSvHwYaR5O/8In3gZ+7GlAtgSBJBSCyAEEQcgDH4sBxgEyafxZ64QN4y4cQgggzU4ebgKz2yoRWfHKqkaykBSmYyOANLUjqa2Vtz5xRvwdj9nua2XCqBpycih26FK2un+aoz2L0X6SB0wyMZjoxKR+zR/vgDE1DnBMINFr8bxA1fDG64FVRlvuAZp6avgDS+BN8Cy8Uux7V9XYlV3M5bHmLbrVJA2xJOd6Gjvxr1fvhFvHao17hcJHnYBxOY8yvkk1OycUxSAEFKcEiJBw5MAED9miC4f1o2hIrZuDABhMCpVkO3NUG//0GbB0PhO9H+6GOjpfhwTncfwvB8ByIR/1OG5GMJxpJm5X7R3GtjeYuRugQ/64+l6KYW6yyogBJBd7/LTLsdSO3LX+3EbVECOVAIPzBbXih4PQCQmhODB2BACiQEQmXXXZqcQbAgjrOy57d9uxAd+pgUr411oEPWjDU1tbfjUb6/EK08vBkaq4I1UQT9/DdIjdVAjGQCRJ3G6IgSq6uD1E25y4YOvpwBAJkjBNeBTBxxdCjW4DKf7l2F0YCm8oVqkh2oxOlALj8c9shjpgXqMDhCqCGJL8U9/0YhUU7NxvSRbEE+24/03d2L1F1fg+KF6KS8vE91ZuMrMW2OyinC4Emr7LBN8WkD1KKSMMDZElJBJAIiMo5Rlt3EnzIa62wKIjTWSeiCBTBhsqIZ6+RmoqA7INJsTJhx32mKOMgKQCEBCNALmyYqVTznTqDr5KnD3VUCPnaV0tZn9ViCEIHKHqYDq7WccBp9cJ9H8OUAMgGjGc9ClsoWA4VwwQQWE07GzBQCEwarMhhk0pcNd0CRYTGu4Sgzz433vxkc+2IZkSzOSLU34yM8n8I1HK8VNwZgHPVIPdbQe+vllko0jhcZcwS0LBlQ9mAbLuWbyFZBCUJK9LmPUqSycSaMrxLR0PzNVlsIbNPBACPEGbRuqhse4muFlUMxqGV6KV565Hr/9sRjaO5JoaUvhgx9oxuovsu6HcZnJsbl5WWx8ix8Dwnosh5ZAPTAbiopTVivgjmG6tKRM05U2c1IuGFFAeE24YmhHlgCbODldINsquLy6HFg7H/qbvUh7x6VezcQ39OmuHEyX45v4TIZliwhAQmR+w3JRj32cRv1gZoG01/qBuxcArD7JtFu/EUTKgNtLgDXl0ANUASYBH9zWNzY1xoWyaz48woe0DIAQRhgX4hrVD6OAVEDTNcDUXdlfJmuD2TDaFcQaqcNP9l2Nr/7N9fizP3gPvvUwXRg2psMadT1cJ8WzBC74u4pQNSYDImcGHYVAxQSjBhWL7N/hUpxZDMxk66QHl+Hbj16Df/78e/D5P34vvvHQNbbqqakey9gZUU9EQXLn0KXEEg6roHfNFwBRknrrQKQAgFAhIYAwBuSBOZMCEI65qGKs6cJG+Hn6qry5h3wg6ZkJ9M0FDv4plB6NAGRaxYGMfYcK2zsRgEQAEqIRyABImirIi1uBdVeZuTl8+CCIlJqKlFRANs2RstsCFJOBkIACIuXWDy5CescsqK1UQbLjQLQEpnIdm4sFqQCevNwYKtmXARCjgrDAWS3UMGta1EqBLUKHa5Jyyrlj6F4Zr+XFe2QrG9nGf+z3pg5ACkFJZh0rkMp5CIwtRpZCDS+FPrpMXDg4ymBWbmcgkIoJW7DmB2FSVBBWM2VhsOcWQ221xcesClLI9SJuFwlCnQXNzBl+djJpuHTHOQAZ5vcuya43E1RAqMr1zgYe/zC89FsRgEQAMi3v0xGATMvTGjaOLv546X7hzBppraGG/wHom5eRwR2E0BDcaSHk4cvODECcCsJe5nuphPfEZfBYayJPBTHwYVQQE/+ht88CDi4yBs7Wq3BzlUhsxCCDK+sEQryhOoz21yE9WI/T/WxGSRgXPiT2Y2yoKBY+uN15AZDgvCpZAFIvrhhviH29gJkBEI4PXTf5AMIYmowbxqggePTSTCCqS4POiwmxGTAsn88YDlsHpLixCiggBBH+hoOV/rwwvvLhIERUuVJg60qo069DFZULM11cFNP9OIq/X033LSMAiQAkVCPAEmQe53/RGnrPJ2XiOf/mnwsgDEx94krjsqDRm4wC4raVic04x0gV9MHFSD8wE9pCCDNispq4YiyA7Jpv0nflCZtP86bReNKlkGZcBAMrxTBTCalHepCpqgzStABCOJguCkgBAGGZe44FgUyLEsLxMGMi2TPMnGHmkLhfAlVP7bnJUkGeXWhSa+lesUGmUordVkNlVVRRQOh6YYG4I5X+hHTFA4idVNClZhNA7pmZr4LIdVhq3DMba6BOvlQUfpzfap7THRLO5fFNd6wo/vgiAAmV+S3+wpi+WxI+0lDqFPBAKnPzd/Dhbv53lRkDsG+JjZlw8QNn0BNCXDtSCbXnCqhH5gqIqK3l0FsrgG0zgO0zgYfmQvcvkeqcEidg64kE4cdVK+UTvgEQ01MRIZQImLg5a6YtgBgXCyGEbhmp52GXJe7Dhw8HIHTDZJoZTzOrLc+NuFMOVwJPXmHm47GFydTmCrBpBgTvnAsQVHzXC5WM4lUkEwNCKLS1YQ5XAfeOASBOCVm/EOrt7xZ5lzqXRjPa99QB3vS9u072yCIAKfJPe7IDG21/oY6AkqA+pU8DG6uAnmDwqVu2QaiMBTlQaQHkDBUQp4S43ioiur8S+tAijD5xKdJPzId++l3A/oVmllyb9SIyvftcVm8CSWloXUApYcQ0qiEmm0VcI9MaQDLKUEYhMsGpRhlxAaj5EOIDCMeV58T1hIt+U6dDPfUusGnb8Nwi2VYAwo3rpADEKVI2Bbi/Gth+SQaCHXQ4GObrdZdB/eDBIu9SESRMHSScy7G8UO+N5/93RQBS5J/2+T810TeemxHwQPhQ3nFgzRwDILzRu5s++55S45pZVwH0OyM/RQDiQEIUkSoTZMoncHG12OwMq3oUAyBGDXHwYeNCrFEMH4AY+HAKkYMQ8zqjflAJCSpK2cv2HPCcBJtTPRx4iOpi4l+Kc8EYpUTgxZ5rzX0+ccXYAMJrsW8OMPi3Rd6lzqXRjPY9dXBzbu5sF+NeIwAp8k/7Yjy50W8uNAIWQN76jgEQ3uQLAUhvObBxlqkOKvEfUwwgOUYwI8/TqBFITMs2js5wGihyhjajfhgQcQYx7ACSGZ9sBaTwmLqxZe8gxCoV7rWDDoEQV8SteBcMz4sPmtwX9/vkleMDSO9M4Nk/GDcLJoMGmaWpM5bRPqd+LAvdl8K5LgKQCEBCNgJ0waShXnl2bACh64UAsv1SSE2K8w4gE8FOcQBiDF4gS8V/ereugEm4DxzUFOoFdM51NkxeEGq++8VP0fVdU2acjJsquByEjULLAQBx8OF6gRD7/hmMXxaA8HzsXTQhgKhdv8qw6QIQAvvPmcgIFtxIXNh9OGGj0FFHABIy81voIgjTOmbBKKShvr8D6JuZpX7ITKTiirEA8vC7TBGycw4gNkXTGrdintBpVLOf8DNumIzBzX46z8uIOQMDOj0AJAgjhZd9UHDgUaAvNBYTr3Pwwu+tBY7UZLv/5PqztWiYisvZmbc1m7glScbNhgxDIM7cZr/n1kb9hTYuYbrjjn+sEYBEABKqEWA9BY+VJb+11sR6cNIvNyOp7SUepLcc+pFzASCFDV4GGgJP5Db11i+fzhLqUkY9Fz6yX2f2NQ6ATBF8iBE91+oH91+UAmIyY3j84wFEZnzGPhfjfd69Z/aTPcYTA0jGDSPb9tdIHJLMiBu4DqUYngAI07LfK1lbvHZlGgFblMvpH8a8ZqNIBB0XGnQEf8/4RjlM70YAEirzG6ZLe6xj9eCpU9Aj/2TUD1Y7tdOgOyMQBBAM2OqbIusH4CAnhmNi1cJ9dmyjZwya2U5AwwFHbp+nfkwCQAQ8gr9h8gY018ieMxcMXRQWbuQ7bZqty3gp3Jtjc5BQqH+nAYTHwuOSYzpSA91TAnftuZ4AwtmZZUqATe+G9t4W/CgMINkoEsFH0NhfiMtj3ZvCtz4CkAhAQjMCvBVpnYanTkL3/7UPIJyF1N342cvTJ2NAHrtSpqk3Zdhp2BxEnE0fNP6Fls8OQDLGlfuhkVsKzSqhXJb5U1jIjBkh7rsvUAAJxKu4IFupecJ5cCyQMXBXy8R8wXgQc1yFwMOty4yRG4P83m07Xm/2c3bjJ1lWvXYWZoEOs+wrIISQ+66FTh+PAGTalGMPH2iMdcQRgITG/I51CYRjvXkOUgIgyjsBffhzBkDuLEFBAOkpB55YYJ5UKf9fJApIxrgaAMHINTLLrZkLhbPkmuYNsTIot6HxPUsjei5cMBZAOOfN6ECNNFY8xUidP5+KmZDPAElGDbn4AARrysAZmI3qYXoDIHb53quhT78hFXxNDBP/Zgv/i9SPC1HxyP1N4bjnFnOUEYBEABKKEfBvAdqDTp8ADv1XE/sxHoDsvspOE3/xAYg8uQ/WId1vqqR6g4sxOrAY6aElSA8vQXqoykxtfwEDCBUbU3bellvn5Huc4ZcQ8vxSYISz/loXmR8vc5EByJFagPVmBEDocikAIBuXAqd+kgMghREkAhD/L10g7cIcj2JMczi2iQAkFOY3HBfzeEfp35a0BwiA/L/idlE57hfjgmExsjLgyYUXLYBQ2Xj1mXps/co12PSlehzYtBA/fqYG3vASeISQwcoLF0BE/TCZQXQVmflcanDycC2+vnMZHrj9Rqz9hwa8uIvvuflwTEl25y6b2HWS73bJqEfjB7G6fU+JetTvAMTGe0jcRw6EbKwHTr5mASQzLV0hDeTCNLj+X98FDAXn8zeOd6cK13sRgEQAEooR8G8vWgHpk8Dh/yrBf+MDCBWQdyYIVeJN/Kf6YIyDc5uMb0DffG4hPv+fG9HV3o1V3c3oau/Ahz94E770VzG8/Ewt3j5UBSUlyN1+Mvt16boZ14yZ3C7zOttlI4GigZgNFzjqevM5CwgBxcV8j3GhSDzHcCCVmCnJdur6Y8/VY8M/x/CLH+pEV3cjOjtTSDW34MM/fw2OPcfMoBppAgSuwNc4mTBB0Bhr2UHGeP1UAIguCCA5Ssg99cCJV2wMSNAJk6+CRADi/6VfwLATLsgY72gjAAmF+R3vEgjPe7w1sQqI9k4DRz4H3VOWF/8hCohURi0Ddl9l4yOCRpqG+mya29d4/UT7H++zJiPmpSer8XO3dqChsQWJZCviiS7EU11obe/Eh362BX/5Ryvwwo7rceLQUjA+RA+bZoy+cdsw6BMyuyyDWO0cM3a2WTMJnoEKqeIaBJC8ZaoZ1dKMQmH2z30bwCNEVEGN1CI9VI9TA7U40b8YR00YmwAAIABJREFUrx+4Fj1/V4+PfjiF7q6bEIu1IJ5sRiLZgsZ4G2KJVhzcVG8UksFqX9EZDxrce2OBB9e7bSbqzy2AWEWEkyLSBXPix9B0H8q8uIQQhxoZHcStifoLHULCc8+d6EgjAIkAJHQj4KnTUP3/Dbq3YhIAMhEUFPv++PAgRs1PNw24FYLrREUYfz/ffngZblnVhoYY4aMN8UQHYskONLKl2pFqbcOt72/D3/zJChzdUYm3DlbBG6oU1UGCO0c4xb2Jt9DD9TLBHeMvuI7vyyy0I3Z6efauQmgefNiqq25bCzQYZvyGawSPapwerMVbh+vxncfq0Pe31+JXPng92jrbEG/tRkOyE42JdsQIHvFW6Qkhu3qvhjdovp9BtRNBw1S+f84BhPDBJlkwbxkAoYInEGIwI4KNCx02Cv2+icxyeN6PACR05jc8F3ehI+WzIwuRKabh9s7IqwGSUUBKoXcvMOmqg5y2vVjAmGi7scGBxrEoAAnCSO6y3cfXt1+Hm7qpErQjkWxDPNlpAaQdjUnTGuLtSLW0yHaf++x7sfeeKhw7UIf0oAn2NLDBGAujfgiACEDwfatiCFhYd8m4EEK1g43QsQwYXmqX66AG6/DWwVq8sONa3P7X78Ev/WwTUi1daEx1IpbqQizVjZXNq9DQvMqAlEAIQaQNO792NRQBxEHQJBSMs4WRqQAQjOmCCSggm64H1ChA+JAWvLILGbho3YUNZsHzF+7lCEAiAAnVCBgASWcBSF4lVHHBlEI/sQDawcd5ABBj0MZQPXJBY6zXFkC+9eDVooBQJfAVkAQVEAcgbWhItGJFQzcaGm9Gqrkd7R0p/Okfvgd777kGP95Tj1P9hI96yTZxKghTYf1ZZvkbbJyGDwBZCohxsTg3DuGD+zHNZOj8dF8Vjtxfi698fiVu6Yoj3tyKlalONKS60JDoRizRjcZEN1Y23YSGppsMSFkA4bE91nM1vAFTXdSlFZ8tWBT7+fMCIAxKJYAweDoPQCLQuLBBY6zzE27oCB59BCChMr/BUx/OZQrYHiejG/yCzLMhM+HmZMKY2XFLgcevNDEghI+LDEBe2l2LD7yvAysajAoSS3SgIdGOhgTBow2N0lrRmGgF36NCkmxqR7wphWRLDL/2y8ux/fbr8Nqe63Di0LVID1wNNcR4kToDIMPV8Bi3IbEjDJK1rhbp6bqh0sHgVQasGuWDBdHSAwyArcFP9l6NJ9dV4rc/mkRrK7+/G43xm9CQWIWVbPFVWB7rxEr5zey7LZB0IBanK6Zd4kD2b1wqCgiLlTFbhlBQLECc7XY+MDrlasLepXPbIF6qSISnNeWm4qmrfJqbirv5PQH44BXszG5mya2J+othTMJ57y101BGARAASohEwNyelFfR3tmQAhLVAAvNwsDCZQMj2eVCMeRiomkIAmchFU+z7Y7tyGCT70/21+I1fasPKxlVINnWgId6FlfE2rEy0ivJBCKF7hnEhsUSnCVIVN02nvHbrbnt/Gz79203Y+tWVeHXPdTjZvwwnjtTi1EA1Rocq4Q1X2vlpXAaLhQ+O23AN0gM1ON1fh9MDV+P1Z5dh38Yq/MUfNuLnb0uiKdWOWKzduFWoztjWkOiEaR1oSLaZJu/xtxn4YE9l59izteLCIRj52TYTgsB4Y3ee3rMuLD1QZyejY+qtS8UNXI8MlH6gycR98Lply/pvrmkXihoBSAQg2dfHhf0qApCsP+YL+2RFv+5sR8ABiIZ+6ekMgOQqIK4c+6Y5Jv7hYgOQ4Rq8fbgGf/6ZpQITrR10teQDiAR1JgxwSJaMXY4lugyUUBVJdSBJSIm3o72tBb/5q3H87X+5EVv+7Toc3VmPn+yvwSgLm42wwFklvBHTTvZX4j8eW4SHvrYc//bXKfzJ78Vx601diMdWIR7vQDLVhlQT991l4Iff6buHnJsouzfQQeWD4NSGn701ibcPLTMBsqK0nCd4OEvAkVmMpSx+LdTBKgO7dzkAKc3EJXGOmL4ZULs+kpX9wr8CaNsceQT6CEIudAg52/vY9Pl8BCARgIRoBOyNiffuN/63BRDe+ANPnFzusfPBbJiZccGcVeptsarGZLYbx9iygujA1ej9n+9GgipDsgXLGzqwMk71o8VXQIIAEnPqR6CnWyaebEc8SbWkDY3MPkm0IplqRSrVgmSyBc1Nzbjt1jZ8kO1nTHvfqk60pDoQj7cgEW9DU7ILSaos8ZsQjxNAutAYY4ZOM2IJNuMG4u/JxKjkLxNQCCEMnuVv+vQnluPUkWVyjtzcNi4bZ/LukXHG8yyBI/hbBD5kLh4zH4/31AKjgBBABEJKoG11XtVTCrV2HtTBP5a/0aD2YQAkyxvjI0gEIBGAXCyIEgFIiMzvxXJRnrvfmQEQdfJVoGcWsJr+d04AFoCQnlJTCXVtOfQg/fVumvcAIEiRMFNES97PjROZspiRwHdmQdD4BpNZJo/3vgfJpiYsjyWxggZf4imMC4YxIOLOkPRcZsgUaHyPKbzJViSaWi2IGAgQEGjsRKqpG4lkJxKJLr/F452IscU60RgzyyYQ1rh6GmLtaCR4JJsQS7A1SyzKeAAi8CEAQneS+V1f+NPrxb1jaolkpwQHjf55XZagZWZNFTg/NqCZwbLSBmvgPTzflF93AEI17s4SSIE8ul/WXQ7v6D9GABJgrYsfsM7dHe5i23MEIBGAhGgEDIAoKiCM5bu7CuiZKb73bACxpdj7SqEGApCRBQCsOWHbYJXEiWCgyq6j8RkLHKZqfQEDZ5/URQUYqcV3HluKzs4Y3tvQLOoHoYOZL41JtjZRGyQGhC6WQk3iLtrE3ZFItSGe4jLVB7s9VQ1RSTJxIwxoNc2AirhLBBjcayophB+qHq43ygrdKj5oEDZymvz+eDtWxhkv0orH1yxDmoAo8RR2jhhJE3brMr1TRthPHZDYYNKgQuJA1AdQ+3187Vx5NoMJgzXAlrlmIroAgJhYEM4PUwa99jKonwzZKqgZ85L/jG8EkIvfOOcf2fQ7psx5DPtSBCAhMr9hv9jdjcwHkK0pq4LkKCAuBqSvDOpgpZ01Nh8cBEBshU8fRnwoqQZ8I5T/2bMHlLENqas6evxQDT79u8txY0OTQIQBjyCA5Br8XBDJqB25MJD1WoJZ84FBtuF70owbx0DHGMs+gBjoMUBil23mTgPhJdmFru5mHDvAgmiumXolBkYy4FHoNUvEj1VW/szXu/ORc65dujSB1MKJD0P91cCm2TkKCNW3GcDqCuOSuXsR1JvfzgOQwn/LYTDe0+EYC5+9MK6NACQCkBCNgL15aUBRAXnqE0YByQlC9YuR9ZVBP8ViZDlGha/9+heBIlxcL3OYsC7FVKbuFvj+4FN33rKR+E8P1GDH165DPNWERBMNt4MPp4A4FaQwPDAew8DDVPRjQIevhNj3BUIKAIisb0WiuQuJVCf+6rNxjA5m4CNYJK0QdLh1Mv/MWQGIAw32QZAx65namwWXAqHZtV389N9DVcA9VOBs/IevgrACailwRwlw73VQJzkPjCnCPr6Rmg7GOQzHMP5ZDNO7EYCEyPyG6cIufKwBAPEUMPj3wOoZQKE03DvphikFHrlMnlyl9LiAiDUmrDcxUA0cqgT2LwL2LgSeWwIcrjLrh0x5cCP3FwKIqVoXNIhu2QBIerAG//Ho1ejuSgl8ZAOIhRAGfo7TfAAJwIipIWJridCV46sc+aAS3LeUUfdjTxyQWPeLrB8LPMy2zgXT2taJZ+5eARZFMxPROfXD9eMrIDIfjVMmCrpkgmDBZTeu2b2ZTI+waRsVjYOVwIElpvF68K8JFm0zZewFQOh+ea4SWGtikKTkupReL5XrUeDjjhLorUmo0TdBXg4GoY57fU+reInpCCSFz14Y10YAEgFIiEYgACCUQL55t5G6eaMPBqGyDgifPrluxzwjnY/YGVcHqqH3LwYefxewZQ5wzwxgDWXzEmBNGbC+Atg0C3jscmDfIuCIqyFC4zUxdPiuHOfakfLmZiI3ulY0WxH7odFkcS7OJPuZ32lAoqkZ8VRG+aB7Q+JA/KJkrjiZ6w2YOAAx2TBUStqwMtmKFfEWqSmyIsmgVgJCED7cPky8B+uPMBYkHm9HgvU7JI6E2/NzxQOIi1/5wK0t+Mm+60z9EQEJAkcOfDh1Qlw05tz5s+YG4SO4HAANAxXZRc2yYNJXumoNdO5dBDw4H7i7HHpdOcC2tgy4u0LiPPDYuwBmvBxh3FCtBDfj2SVAL7OwnAJC5cNce5rXJNuDt8BTowIgExuo6Wisp+MxTXwmw7JFBCAhMr9huajHPs4MgLCMAn58AOibn6+AUBHhzf+uEqiNFfCOVEINVkERJnbOg16THzMixctyIIbpvPqeCmN4qIw4OT5Xpg8AhR8fkAMeGK4Cm5u1VkCkEIzYuBPZz1FTRv2FB5ehuTWGeBMBhNVQTTPqRAAWCsIIQcS6ahiEmmrFe1pbsCKWxPJYE1bEmtEQZ0VVCyG2cNgKFjyLtyLe2CoptwSUBOt/JDrFhUIIycSDuIDU8RUQphA3tyVx+xduwOhgNdJDpgiac4VAKq4aEDHprgY8TOn4anhDppkMlGpzTnleGUQcULdk7ApUVDXbmG3F1XK4EvrRy6A3lEvqNq8BA7K8Plyz6/ge2/1zgKcXAodqgGcW2RogLHxHCDEAwmtPiSpXDu+Z30Na1A9euxP9n47Gejoe00TnMTzvRwAy4R91eC6GcBxppoaTPvUGsOayTOEnBxDWWEgqZG8JvINLoJ5bDNw/G3pNmRgZPqlmDI4zPAV6bseg1rWlwI55RhHxn7Tz1Qwxfv7Eai7Thtk1thFERqqhj9aY5iDEBji6QEfFlE9O/jZSj9P9S/Fbv7bCr7FBAFnJUuZZrpd8ECE0UCVZkWzDclE+2rBC0nFb0B5jjY8mtDa2WBXDKiBSTIzzubRiRbIF8VgrUrEWxBpSaE62oynFku/diKcY8DoZBYTqSyu6VyXw3V1XIz1UBX2UUGYUBaNYmEwYmTxv0ChAEqRK8BiogjdomhqoAhuzUlR/pc1OsWAh4FcD417JUUA41oz9oett5zxgHSuXmqq5AqByrh14BPuc64LXwuY5wP1z/c8bFcQACOHDYypu33ykv/5vPoBELpjpAiPhuNMWc5QRgEQAEr4RCBaS3Lw8Pw3XwYWFB+/Ry8XNohmU2sen3TLoHmdgcoyLg5icXqR1umkecBBC+Mh3yxiDajJocMTEE6hHLoV6aJ407+F5UI/OB/YttLEmgTRhCyFqkAaXZdDNTLPeYD32bbgWTa0tUu48JkqGcadk4jms0iEqiHO/sAx6O25MtGG5ndTu/U1t+Hy8FU++tx23x1hkjIXECC8OQKiSGKWE9UNuS7ZhR0M37oy/D7/c2IHWpg40sUhZlgJCELHNz4Qxv8/PhEm0o6W1Ff/0l4z9qIcnMEBFKAggmdgNATDr6lD91fAOLIF66kqoR+ZDb7/EnIddV0iMhiZQMCYjqHr4IEIYsXE/IzXQBxYbF5sr18+e8UJsYwJI5loRYJEsK1vun64+2ZdTQLhtGTyqIBtqkH7tUAQg0y6mpRjTHI5tIgAJn/mNjtjd0OiGeeb3gN6ZRjqny4Tg4ADEVqTUnCyMRoKyem+ZFCnLSOyl2TDiPpsDIKKC0PAQQkQJsQDijBsNqhjTagMWjB/ZMQ/pvhKk7yrB6OoSpFeXwKNbiL+LBu++WdCPvwua6owUvgoqKlQA6qRxptpT/bX4oz+ok2yYRHM74lIh1SgcWRBiy6GLmybejhWJdtyYasf7Uu34SrwVL69sAWKd0PFOqIZOfKGhBUmrpggspNrQ0GSKl7U3t+Hpxk4g3gUku3Gs4Sbct6IDvx5vRzNjP+i6EfdNq1FDHHxYmBFIEZWEM/q24+dva8Yrz7xblB0CiEyEJ2nPDAKtkybuGBsP4h2sxOnHL4d37wyotWVQPL90rX3N9u58UJF4aL4JCpXJ9Ax0IJjpRCBhsDFdaoQGtgB4OLDIXBcOTG2Mh0ww52DD9vx8FoA4CCmT3+ltvgHpEy8jLRkwURCqS6O/+PtwwEUxRxkBSGSOQzYCfsVq44t5cTOwZp4JOO216kYQQtxT7V3uKbZAz20sFPjwIp9zRii7R1+pCW5lDAFjDwgfjEOgO4BP2JtnQq8tgVpdAkWDafctLiEHH/aJWwwfDeu2OdD9VVBDppkYEUKIeXpnP7T9Orzvfc1oajWFwxo594sAB2Mv2tGYasfy1k40NnVhZbILyxMsmd6CP0804weNbUC8HYi7nsvtSCfa8bGGDnHvEGpSTVRCWtEWb8X/aG6HTnYJrOh4B1S8DaPxVpyMt+D+pjbcHGtBQ6MJZm2wAbJG8TBqCoucJVKm6Niq7iTu/fL1UIP1MrsuFQ45Nhts6uI/zCy89cC+xVAbZ0CtKRXwkLEMnFdfrWCmUy+VLZY9L4V+dL5xyVDtoJvreVZYrQH2LAB6LUAG1Q8BU7ue+3JVdamQWaVM4DUIK7mfl9cuELUE+nYLwU9/FGnvbQsgxdzOp4uLYrofRzHnMhzbRAASMvMbjst6/KPMur0d+yaw7ip54kRPOdBbYQIIHXj4wYQFwIPvcbvgU3Xe57LhwykhNHiihPTbAMgjS6CfuhJg0OtdJgZA4gAIHAUNVuApmu/3luZBiIERk5IrM9MO1WHtP74XrW1tWM7gUAsgvpujqQPxli7EmroRS3bjtsZu7Ey04li8DSrZDrAlDHgYGDGvn0p0o72pA8tTxo2TbGzFbyZacSrRDSQMgKhYG1SsFSreYlqqA19f3olfiLWiIdmClakWNCSdEmLdOYlONMbZWvEnn1qJ0wNLjcrB+h+sgOoaIYTxLlRBOL39risFJlSfhTiqRoQ52zIqhT2nBLge+z4/88Ac6COV0DbWBvsXAn0mK8oBnyhZzpUS7HkubAAz1TLVWyrfK+dwQggJnNM1JVADfwlPj8KTMmTjX9Pm3awrm1PWRe2CHINizmU4tokAJAKQ0I1A1m359BvAPbUGImjsJwKO4PtURRyAuMwFvpanX+uakViRfAgRVw+VkN1XQrOWyJ6rgPXl4qIheAh8WINpYgRy5PtCUEKo2WqMZxA+JOtjuArecBWOHajBZ3+vAanmFgkw9eFD0nIZGNqFZHIVPpDoxr6GdozG2pGOt8GLtQKx9kwTNcQAiGq6CX8W60Rzoh2pxnbcGmvDc4kOoHEVEOsCGjvhAwghRFoHdLwLr63swicaWtFCeLEl4k0FVZZ07xYA+fnbmvDdXddCDdX7AOLDh5RiZ32NOugjNcDjV0DReHPsLMixz8CHOxdBoDTbynZuHpYtswCqUc7t4tQPutBcC4KHXeb1QBcZlSv5fr623z8uSLrzyf1w//fMg/rRQ0gjDY8IoicOQY2AI+sv+wKGr3DARTFHGQFI6MxvMZfFdNzG3ZyCx6YANQrs/qhMSieujjwFI2ioAsvcjo3l2jfMgGY8xoYKaMYaECwEQpyxG6dfVw7N+hEbWX7bQIYzlhKzYJ/O3XvjwYgPNdvmyhO8gAcnPmOq6VAlvJElUCOVePGJpfi1X4wh1ULFgcGeZubZBs7t8n/A4/2JbuxvbIcn7hbrcikEHwIhHUC8G2+lbsbvJTvxG//HbbJjZSdONHTj+Mp2pBs6oWO5ANKGNOGmsQPpWCd+HOvCp2ImcJVZN1JTJN6BlSu7cOvNHdi/8Uac7uest/UZ1YPgwXl6GPsyUgdQAdm9QOpvCAA4w2+Nvz+mfmwOz6UZbzmP7nxaF5em4rHjUuDemX6AqZwDCxoFl3mumKLN6qabZhkXUK+N13GAMVHP/fMzD9TDO/kjpKEEQZSmDmKqoSp/KXgtc9ld41F/YY9F7nkL7+sIQCIACckI2JuyVvI0KTdzraEIIN/fDqydL0+urMfgG6Sg2hFcZs0Gyul9ZWCBKb1/kYm/YJ0QBo8+cjmwYaYNTg08AfvGLwMkYsgkdsAENdIoEjxco2vAwAdjBHICH4PGzBpGAR9m6zxwiQ1MpZGmm6cKangJvJHFSI9UYXDbtfjgbc1I0e2S7JBsl3iyCy3xduyMdWJUXC1tQIyNygdBY4xGwIh34a3GLryyshNpqh5c19gJzRbrgIq1WxWkDZrumMZ2pBs74MU6MBrrwOuJdvxGc4uZ6C7WiXhjp8DHfV9uxIkj10KP1JtiYzazRRSQgRooFoZj9gorkN4zw8wka1UMpzzIWFpFhOucyuWCSOW1U6ociPBcESj4mi4VFywaBBAZfxahKzUVTbddAv3kAugDldCHq6AP2euBtT8YhOridoLnrdAyf8vTvwov/YYBEO3BY3P/BUYKKSIReFzY4OHOT3iBI/fIIwAJifnNPfHhea2gKV9rLU2eJAVCzNMkq0ymT/wQ+v4brGGyRidgqJzBcr0pGlUCbJxpqmAye4WBis/XQT9vntJZbIqqiBg/9zRuXSqiVBSAETF2hdbzqdwPRjWAlGfMHIDYzytWZd2z0JQJH2SqKtNMq0UBUUcrcXqoBgfvvRG/cGsrmppNYbLmWAfuSDQhTdhIdUAnDCwQIKQ5AOH7webW5/Z2G/P5dugYG/dplg2UmOV0vBVDyxNYlexGLL4Kt6zqwOavNOD4oWsMfIzY8upBAGEgKut5HKkCHrjEZDDZ+Atf8QjAnJ9BRKNPGGA2DJu43jJQyPMg8BLo886N7INQUQqsmwE8diVwiMHELjbFVs49WmfcbITVScSAqBduh+edQlpTAVFgLdRRnZaW1lwTAcjFARsOOoJ9eO6+Ex1pBCARgEzzEVDQKg2l0gIiSp2ESr9tJvh64xtQr+yH96PHoLe8B6pnllEt/KfggMslVwGhwd86V6qbEj5MwGItNA2l1PeohX52MdQYEOIM5JgwEgQRGkiXhSOZFWXyOgtCgtu7p/3NswHGRfg1Ljg/jYWQkUqc7r8ag1vfg1/+cBJtLS34wMpmvJZoNtkuCRs02khgsABi+yz4CILIOMsOOoIAklnXDt3YgtONCdye7MDNq1Zhx7/cgJNHlprYjqN2XIdtnQ9n5G0dFYmfYTl8d96CbhcuM6aGfU8pPAeBVtlQLiVXgNNCiN1PHoTkjDFWlwF95cATVwF0Dw3VCYBIho7L0uH1sH8xFF1thdSOQus23QD9/L9C/fAReK8egvfT5wWS06NvYFSfEiAphB8Xr0EOGucwLE9klsPzfgQg09z8hudSLnSkvJlR+fAEQnT6JPTbL8nNHQ+0AusuA/rmAL0EDwaAVkCz0dCIQSoMIKKAUHZ/+DIpUiUAIum0ZrIymT13pBZqpA7q2cXQ986Cxydx+0QtbpagIcwxbHlQImm7l0JTVXn8CuC+2VKPhFDix4Rk7aPUGF3OM/LkVQAnSRMIsZOmCYSwsiqretbj+49eg9/9xZV4LtEANNhUWwaKNrZYtwldKAEVZBzQGAtOsmAj7tSQTK8a2qBWtuK1W5owvP46jBKcWCOFBtypHzkAImm4PK5NnFHWzt1j4cGdQ4kH+ZrNKmJK7va5UJzHh7VYNs4Ea7yIshX8nB1Ld77Yy/Ug10RGKZGJ5J5eZANj6eoy6kcGQGzl1P5qaM4RQ4gNnrNC8EGVhO6e221jefa1l0PfuxRqz+/Ce/0Q0mlOTufl3LnCYLinyzEWuleFc10EIDl/xuG8DKbvUVOqFvVj9E3gG6uBe5eZmztv9D0zpAiZpN866BCFwRqLoOoRWBYAoXHffSVw1KgKGDQG3Z9plUaT8juN5j4DIVQ9KPeLQXPfN4Zx8w0oAxJ3Xwl1uBJKDDGrcS6B3jLHQIj/uzKG0Rk6RdVk0xzgsAMQumHMLL2m4qp5zZTWE8/Uwfu7a4E2pttS9WiVzBdFJSTRYVqcmSt0v3QCDbax0BhfB6BEtpHtmAnjmsmg0fE26DjjQWxLtEuKr2puAz4eBx5bBnW0Bh5rcEiRtsDMtrbmhxh6t/zsIrCuSh6AuHG1QaXe5tnw9lwFxVopnFiQ6gk/u926btz2AhkmQNWHDq7j9RLsGZuz81Kgn9BJ8LABsVQ+XCOU0jXHiQHX85riOQpAYyEA4ToLIemvGDcRC+W579Zr5kHt/lXg9OvQetSGpfLvd7oY5zAcx/S93072yCIAiQBk+o2AS1nUSuoopE+9CrX/09B9s+zMozalVZ6aXaVKV+eBQYWc76Ww+uEbd4IEq2c+v9SoIIyzkPLdNPDGyAt8EEAG7MRjDEwNGjoxdoGna/faBqVyWzx0mXnCloJiwWqpNVBb5sBbzToTtjmFRdw1nFfEugj2Lba/ycGHMe5+iXFbjVUN1GJ0+3XAJxNAcwdUqgOeDx+d8GxgKdNqsdI2gY8AgBA8Uu0AgSLFDJo2UVX0yjboBhNTohqZBdOB0w2dGGVF1Q+1wPvyjRaOWPiL0GENuwONYE+lgSBFl8f2uTYtNtsFI3Ed1pBLMCnhgzEwUkHV1EZRrPXx3BKZwVjOi42zkYBRVrx1MMD92H35lUsfvBRgFo78LqN8GddbcNnGBh1cAm9dqbiBCCG+ajUWgOSup6vHBT7Le2XAxnroV/dDeydtNEgYDPd0OcbJmunpu30EINPP/Ib8iGzAKUeBWS6jb0Id+GPovtkm7XJ1uYEQK9m7J2f25gnVPKVOCCB3lMBbXyFGUMCD7gwBjwyAUG0wBqpWnpTx1FVSmVNT1XAKiOsdmPB3MQuChobFxQ5wvhMqKYQGQk4m4BUHKuGtKRMIERCxAEKFReDjTk6WVmYghiDkDLsFDqfWcJp63+AfqYN3uB7ou0FARCdMNotktLCkeoKw0WUUEIIIX7PmR9xCCAGEGTTJNtMSBkK0xJJQTWFsia0n8pFm4Es3wjtUj+PPs5CYdRHZcQuOnxtH6R2AHKoyU95LppDJMpFxc9PbExo4rlSLRPn4/9l7D/A4rvN1f0EeAAAgAElEQVTeG5UgOkAQvRCSKMqSZcV2HCl2XGI5vvni5CZfenNsx9dxEn83yZfitHtzEye25TiW7djOzY0tib2IpLpYJJEUKVLsvalbUbOsxg6CwM45//v833Pe2dlFW5AgsACO+IzO7uxgduad2Xl/562Mf/HwwdTkg+0SRGzX1Tp5M6CUC2U23wOIllznqJkwK0ulRgh77lB2tKZkL9rnRyBvQ62U1Jc4FH+dR4YQApUu2dDC9cXA4lqAEEIXo/ybKgp6qp/H1AWK0Z5ZAJBprq5He8Pk9/aSXJvOeokuwBz5F9hFFc6iQaUyv8Qpl0sBEFocGNgo6ZI+0yTuIeIBRJSpd3moYj3QKTEIUvabcEH4kADThBXEz5DF5H93BSxLjxMePIAIhNCsT9cPu+Y+UCW9YpLxCmkAoaIqkpRg7Kf1pMspTCrNrIX7dwDVDUgmTzew6wpg41zgT98N/Ox7gfe9X7JjnAuGqbYfAm50AMJaH7JeUm/pdvGQQRhhNs2PvQ/mxvfB/JebYP7wXbCL3wbs7QYOuOJiUkJd5TTEmOF64TYP10mqrBTuomKXbBZXWl0AgiDC7sWPN0nJe7p2ZKEVxNdHIZjYXW0OTikrtTYkXSVq/SDYsc7Hjiaf2uz3MwiAiIuHfWr2t8GsLkHErsqM+/HXW8BXQJFwMRxoZMOHf89jogvxgffCnnkuAMikckHl91N0PI8uAEgAkCkkAVo/IqntYaN+4OWHgDu7JD5ATOyEj4VV6dltDCG+lgNdH7rQBRNbJbLcMbcXgvEVtDqkWKjqoM7eNcYiASGHugAunNUTAFgzZFkR7FAA4hWpWEE2NLjiW7HlIuGCUUvI400uwFViS9xxuTiDIuB7nNEXAQuKgW3NHmQ8hFBpZkGIOdwFumHsoTmS0SFwcLBbAlWxvxvYdBXw9XcAn70R+NmfAD7yfuCDHwDe9wHY934A9sc/IK4b/Pj7gffx8/cC//Um4Nd+DOab1yFafyWix7sR7eX+KSNfQEwayTmXStIKkv06BhACGWXq4yrkmum14vWj+8RbMezd5U7utHwQQBj/kQAQCRimi2wJGw7y+vuRcKD3Al9T4fN+Ya8Y1lXxzQMzXDqM+fCZORwlyPexBkSLCjIARKwfeu/FEOJBhOCjSwwmBJRBQITWPPYx2vpp2NSZARDCrkchNiQfZTCeKj6/vysAyBRSv/l9q43P0bHORxT1wbDE+rqf8jNar0BEqZT4GScVin/Yi2WE1hG6Z7zySsaASHEyl8Eg6bAeQARCWAn1kVk+3TUNG6Jcs2bycUzI5gZXuCoJOapAqeg4S2Z659YWqYHhgk990zqCB2fWDHrla2ZYLC91M+vkMfPc1KXAmf2KMlcg6wg75DrX0AAAkeBJ9llhOukcWPZVoWWHlpbjnVLrxB7ogt3TDburG3jsCmD9VcADV2cua+YC664ENl0BbOO2c2AOOPBhcGl0pBMRYYcL3UsJV5WASZbcFEQk0JOWIB7Pplku9sNbjERmlKFeUypvQt5jjWI9EteLAIiPA4krxLJSbKdkFkkPF94L/hrE7jneN/yelaWuR8wRAggLu3FJx5XEViq5PrR+tMOscF14zQJXDt65iDTeKOGK82nW6fvP34u8dv7+y4AQnqe/Z7BiDvDCfYgMXTGqcPnK/Zdep5+FcWJlMj7PwsnwLQFAAoBMEQmwXTkQsXCTiRCdOA67rMUpk0Fnjy7Y1JnqE6Z3r7QlBkRrbggoKICou8RZGxgAmuLs+eF64JBviMYZ/RHvWshSpqI8+fl9lXFAbGxpoUIR5cfurCXANgLIHJ/9kgAQgodk3fjA14frXWaNV2IufoWBtD54UWb2RcDG2a5WRaz8h3bJSEyDxoYMM7rAW9++Xtw4BBXGqfhYlay/zYYep7Q1mFODS9OxIAofTCO2hygDF+SJVS4zJFbKlJtc54Q7Y1mJFCmLg08VQKRjsC9RT4A42AGwWilTXykr3gMa+6H7ZZ+eXbQiOfiwR9ul9osCiFhEWA/miIJhO7Cu2lVT9eX0JRhWLR8ac0Q3HrvxSuCz1nfxlpgFhGVaspg55a1wCqqM96HVi7C6YCbsY/8NqagXUQwg/DU4CJlYZRtgZ6D8JwMajM8xBgCZIup3fG6XfP6WJIAYmH1/DyysHMJ07eGDpvoVZcDaWuDBGuDuSvd+MeuBJFwwfgaaAQqiCNKumGhxMbCbQHBFGkToYojdC+qGoYLucqXDmSKbUCiyfwUQKh8PIIQWNfnrKFYQzrQZD7KnHVhSki5WdoeDDwKILjKzXlUBHHDuFVoezDAxIQoKMSBkgcSYr09YQWLoSMKbBxD2tZHCYww8FVklxgRo8vqZ9XSXME6DvXDavQtG3/v4DbpSDrQDd5XDEkAk0DQBINwn03w31ElKrQOPdthjPqDVW0DkuhxmKna7g8NN9a6nC0EjCSB8rfAhn3kAWVAsIGIWlwB3VQAP1AAP1AIry8UyZ+4octlOCfCQdG5a4/jZXdcj1ftqAkCIIkH5D1T++SCTfH6Oju+xBQAJADJFJEAAsYhMCikWHFt5ddr9klBMMkum+Zqm9pVlwNYm3zPFp8vu7wB2tkqVUzaWEyjQMugKC6r4YjDxabD3VQP7u1xLeMYoxDEOOqN3s3gBkKeuBHa0uKBG3S9HscAwRiQNINkuGJr+LeFDAMS7SR6s8fVFNF4lDR9iCZGYiGLYrS1yfFIkjcXSsuNAst6POWgMBTKDAEimO8ZbQPa1Aazwqlkpei048jrruKxUKpBSTrRSyKjxH8yA4UJ4oNWC6bRsICdWD58FIy4O58bBPTOl4q1Uu6Xsj3YIgBA61AIi1+RQG3CgDXi8EVjsXSTZAJKED/1sURHMilKYNdUwu9scwIoFrRvY0yFl3umSk0qu7PAbd17mtXZWE7u4Bnj+Tg8g7HeUdMfkg9INx5CGofFV8vn8bQFApoj6zeebbHyODdJkTnq7nHoSWDI7c4achBAqF840N8928MEeLnGgpwsWlXgDpnmur3WZFqLcaJ73s+Q4vsKZ/NmrJeJn6+ocgBA+aOlgwKQEJmqqK5VXF+wTdNN0wa4siYNkHRwxBsHHo2xm9gbTZ10Krlo/3Gw7ASC0grDcN+MMCDGJWBDGuSiAWJrzV1e4eBXv2slOH80GkgwA0fNIjkMBxcWs537pZuGYlJsGdDJW47FGF4/xXb0O6npJWEJYcp3uD3HZeNeVVKr11o+DWQBCWKQFS6FDY4LojqF7zWfRsKGfLAQQBrUmrR/iFiO8NrvOxnq/0eWiwawEjsR6pmObxT5OZV87zAEXj5K+Xxh/wyDgOYiWl4CF7JjKy/vMZdOoW8a7bHb9KaKoBxZ9iGwqEQ8SlH9a+eeDLMbniTgZviUASACQKSMBVj2VrqEnjsAuqhwSQERBryxzPTqkWqUPtNQYBq/wYkXASqL3VLgZNmfJVH4EECp0woIPFJT1BIAHq5zyOz4IPIjy6oRlpc9jnQBn9IxnUEWlGRy3F0kJd+mqqr1mfOaFgkhcE0SrbT5QISm5oqAk1iCdUcEYA3NbIVLsfbK2xsEPLSCHOxD5RWIlaDFIpJXGMkhCx2CvLwY4BvkbWiZorRDwkawSNnhjzEsHwKJhi11MhLNWaDxO1siy5/vaHCQINDgLiOyX+4wtIL4i6qZZMRi4UumJAN6H6n2QLGNP0nE4A+CDn21vhPVl4cVy5i0ccbCzQKwHJlrXNtQj2tXsrgWBS+WRlC/XMzh4fY0AiKRbqxVFLGfeVXhHMez6X0Fke/3ChnVUQfmgcMMxZF6HyYAG43OMAUCmjPodnxsmn79FglBhkTp5zJVYV3O8zjr9KAF/d1XA7m3zs+2sIEoFEY6qDPa1AxsbXIqnAIgHDwIIYUQDPvmdjE9YWwUpVCWxApox4c33fgbNOAIc75L4AvkbzsB1EcApEBeRKKYsK4jAB2fdyWVXixS8SjFOgLNu3Ze3iEjWDmfP7MxK9493wSiAcExDiAORnAFE5TTUqMp1qFFhg8AgEOKtFAfbYKVgWBuwtsYF6UqcRjqWQhr7iTL28Rb3VaSrnvr9acyMQAQBhDEhPJaDHdK1mJYtCQBWSKD875wJu4fwwqwgX+E0dlGlYYRWEbA2yOoZcYG5+Jh4PyQWxn+AhdF2tTqwkgJ23jqmshF3lP8+L0+zeVYaQJjdkxGjxPMugd36O0jZPkToR5TRLzcAQCYATLQ88vkpOr7HFgAkAMgUkYAPQiWAnHsR7JkhVoUs+JCgT2YcrCiD2d48MoAIjNCV4hUCZ+F3VzjgEPjwAEIriKTwOt+/AMW6aqcIkxCi8CF1KTqAJxgz0g7cXZaOa9BMDI73VMAy1TbLCpIBHowFkeyLTkT3lyNi0zUqqCSASLAi1zMttBBmdZlL4ZWU2A5Ehwa3hCiASE0LdYUkRv18xFGV6zCjBosKgBASFD4ony2zYRdR1t7aQahigz/f1E/cE3zNrrPbmzxgeJeJBIcmrSAu/kPAjiDGIFMPMDGIMA2aLjBJSXbxQXKOHkD4t7SCSNAp3S60fLDCrVaj5bFwn4QPiS0pcMf/cJ2rvqrWFAHLbADJhA9agKL11bI/OV9/3mJlUfBaMAPm4J8iZVPSpo4hqC4PhgplohVu+P7MazC+Sj6fvy0AyBRRv/l8k43XsUkQqo2Q6j8Du6LdWQCoALIgRGp5UIGtr5UUTCqWuN4F616oglVLiCh/X8r8qC/StaEBoCWBM2V1w+h3cZbL72TGAxUHYwUUQpIAwte+voZkdtC9oJkYVFoECH7H480eQNKxIBkAooqQqa/72hDdWSqKWY5BXDFJxeghZBGLkzWJ2T864uAj0/qRaQGJZaKy8eOI4KEWkWHAI+16ICQ4aBBXjKYa72mFZedafx3FhSaANQiA3DtTLAuRz3zR/anbiqNcD15TFiC7l71kfCCngJ+HhjW1wF61fvhmc+qa0nMh+BE+7iqTmiMEXlo4FIqkMqveE3fOEKuTxKVIZo4PjtV9iQvGu2G8zETmvB/3dcAsKQLjjHTfLgOG17VQIIepuOb4v3oAgQSjBgDJV/AZrydi/n9PAJAAIFNGAjGAmH5gzYfTpu9sAOEsmrEQC5kV0iTFpXB0DnCMabOdPismbXIXBcnAUS4SrOoUkrgxlrIehQcRuma4iOXBmd6l4qmkcHoIOeYCGCWTQmDE182gsuXsmODBrBsuetyEBSo6zpplxpzlelEA4cjPH/IZMVR+2QBCSwgtIBoYuYu1RrIqhCZcMWMKGLGyzZrxy3qvkP13yzFJR9wO13WWgaEEhKRVR2MhvNK3K0qBPbRq0X3TJlYQARDGzlDWPu5GYm9oVdk4C5Yp14RRxtzcXgRDuTNAmdknvq6LK5TmK8cK2DhQkmtCSxI7I2en1/LaUf4LC6VpoVixeG4af+L3Q6tPHPNCOTBwlm4hcfkwXbsduLNM7gUBGjlnTRF3AcbMirEr5iB6bYe4XtLWj3xVwNP9uPIfDMbrCAOATBn1O163TP5+jwMQF4hqXt0MLKyJrR8Z5mqarb2SN1Tuj7psGLGCCIBQwTgAiQtyET40W0Zn9ZwB720DHqiWWg0ahOoUZcLywn4kG+tc9cxjrEfhFSKBQeGBAMKARM70CUj++ARCONtfUgJsZ9+ZISBE3DA+M2ZPi4szoBJkPIo2v4sVtnfPsNgZ3UnsCuvBJmkFcUGbWe6A+Nyz1g8LF4MBx8B18t1U0LRSMIBX4mPqAbpDEuCRfu1kLNd2YSHso3WwBxhbkXa9xJYPDyASc0NZbaiHXTrDFQATK0IhzPfY46cQYGXbA7SEpeu4uD46GiPD/jHe8kH3jcrVQ4hangSIdrRIMTQNYBU3E11LB9qci0ldMRwFPtpjAMHudoC1YhYxU8q79kQODsbcPe2Coe26n5LqvwzETpcgC5VQM10f+QI++fsMHe8jCwASAGTKSMAFobIaaoSo9zXg7hvisuvZAEIloUresAgUC5HtZxVL54IhgMTZIFSuCiAc+Z6KmGm2XJjJQuvF8lKXcqkuGG99ECsE4xcYSHi4DSYJIVSGhA8uEuvQADarU/O9oVLzC5bNcDUmVGkpwCRH7o+1KB5rkBojMjtf4CwhIgNVllRktCqwT8yaalfngvvNsH6kQUyBbMhxDABEwIEpsrRYMEOIVh8qX3FjZFo/0grZy4eul320fjCw2FkVBNbknFzQqcDI/lbXxI6yVKvKbYSPAkS0Xt0503UujuGDEOJSqV332w5Xjp2VU2n58PKka0QCTDnyet1XAbu7xfWeEZlq3InPwiGEyHV0brW4oiwBmHVJdrQCq/gdxQ5uBUBUBqzx4q0ghNUFFTCHvgJr+uN4D4ceAUACgIw3Uozu+wKATBn1O7oLPxW3dgBikTL9iKILwP4vAPNnDmoFEQDhw5tZIVQ+nAXfXw2w9kfS+kHlIXEDBA4/a1crgCpdpojSbL51dhpC1H2iM1e+X1wMs5lpnW2ukBVn5QoPBAcu+1phV3uTu2SzpAGEig3LCSEsnpbOwhg0HmR/K+wDFQ5C+HcxeGj2iFdmdGtQyW9kKXmnuDOtIFmWDj337FFlcbEjlbHPThFQoBxWzUyURedMXxdaPrwCprJfXgL7eAPsodYYQESWHj7U+kDZsgS+pdUrAR+M46FLjhVFsaXRNw9U64cHEKbCEhr2tcIwi4XXMwEfGpNBl4tdW+0zoOjachVTpW6I1g7xkCfnKceoZevZZ6cVeKzJgZCmecfBzf78WXyMVjG1lK2ci+itw74LdFyBPWaQ/FTC+WKNmIjjmIpP34s7pwAgAUCmjAQIICy/lIrOIXp9O3Dve4A7SgcFEFEgmkEg5a19SeuVM4Gtja6OhCh5Fx8hSozvqaQPaqqoQoCCSQcsq2CywipnrrHC9KW9Gd+xpBjmUUJIO4zvJ6LxIM483wqztQGWbd/1+HRWrRaVpaUuK4THIbPoQWJCaEXYRUXGGiM6U6frJQ0gkiUjx1gEMJZlb6uDLZ2xq6IUJZkjiGSDib4fDky4jZZMZyAt5cxaJYQED4mibAU6nLVC3jP2g3J6mBVoWxyAHHIWEAUQielhfA9Tru+eCcMUVsrVK2+BDwLI9wph6e5Iln/X1wwQ5THSVXVvhYsfIriyMFhiMQsLXPwN5aZ9ZwiviRgbOU+eK88xIV/2umFMkb2/ygESO91KZpUfk/eSvqZliK66RfUwh78Gy+BrY51G9fgR4GMiAGOk77w4ZT0V/yoAyJRRv1Px9hzdOTEGhOWX+ntehll9rUuD9CmQYvFQhe5H8dXrTJbrfNwF27mLCZ1+fgJHsgAYUzoPtom7RJV/nMXBAFUudOUwLkQgxAeo8jho4ud3LC6C2UKl0ZYBIQSQ6FArogOtMGurBJyc4lVo8GZ+BpAuKwUemw0rpnzfAE2tKRzpwuBIq4wUN6PLxcV+JCHEuTIIKEViXaGSdVkxPBa6Llzcg5yrn60P6YZR2Bh0dI3mXEBnVtEtVcZU1nRFra8V2cm5ZwGINGCjteI2VxXUrKsS+ADBQxZasLw1SUa61Lol24XuLKkgqvE1jPeQUuZFsItLYVnxlNdPjt/HgEg/n04HpIQP/i2/nxVJE/CRYkVTpgqLC4nulsz7RmqOEMJ4rgfaZRHZ8vsIH4xDWq6ZPkzpZtyLhw/JtFLrT2IkgOiypBE4+k2YvtOwnkECfIwEAhP1+eiea1N56wAgAUCmjAQYftcfnUNqx+dcumKsaBIZJd41otYFgRCxLHiXRMLXzroT9v4KmN3NLruELhifuSIZFQQTVcr87FiX71zL2XI77Po6QDuaUon4LBn5bvb/2FTrXAZHnTWEFpGIUHKoFWZvMyzLgNNiQTiKLRcMKi1ygZmrysQlQGuKKl2FJQEQWhMY87C+xm0/AEC4X3/enFUTQlZwny2+Oqov2OUhJA0jF2MNyQKQGFIoQ6+sCXvrahy40SqRgA8qfCmkRneZL3tvmLbMgNuDrS6GJiEHlYdYFh6dLZYS2Qf3KfeAV/Is4DW/GPahOldxlJDAOAwppd8NyY7a3+ZcNx4+eFwKIKn5BYiWFgPbtaJp4nz0Xsm2/vDcBUQ6YLXKLjNvKP8YNrTCbnKdhw/dJmOki68G5q0joBFEA1EDhEwUZAz3vVMZKUZ3bgFApoz6Hd2Fn5pbR0i9tg1mfinMba57qChuDx2xxSMBIfE6VfD8TGeVfC0ZKMVibWBwpwAH0zklHkSzLbwrhutEsfK9S+fFhlkAs01oTqeS92ZzsYQQMLY3SjErdlmVeIEjbvZM64hdRysKwSALQCSFtsj1s2GshJRid7N+AkisfLU1PGNU7q9yLg2BkMz9JSFE6kqsmAG710GIQkdyHBMLiCphwo2AXCZ8iHwyAMR1HtZqrhEhbHODWKMGt3x4ObDWx/paxNYPgTktGsdgzmLY5WUSe+EyXehO6wKOdQPHr5DYHumUzDRdAojCh1pA7ix1JeK5vU8bFgj08T2xdUwLmImVbA4smx6uq3XXkOChqdwCFUn4SAAIP1P3y4CRcS1lwCP/L0yqVyDE/caHU4Ths4kBtKn59L2YswoAEgBk6kiAZag3/bov1sSKn67GQwwZSbjwM2E3G05bGaRxmG7H0btmxFVBJb6nxUEIZ+u+poNaQZwi5QzYx4SoOZ9N7xYzQ4YWDa/I6JLh/tmFdTsLgqWDFUWB0Sqwo9EFWDLQ0h9LDEe0XCwthaWFQwFEXTDievCt4WkFOeYzddhwbVAAcZYQLWpFJU93gGHApQCC1sBQi4+C1mjGpAXEx3xQfoyDYRdZWmkIFQp/Ah+0gnhLiK/kyj43dH0wjVbiO2iB8tfCgRfL5ycgjO6Nh+tcfQ/um3EltHgQKG5jMGcx7KMNks0kFiyCAi0gjBvh365JxKLwXqAlxrtezANVwK42lznFGjICpRoXpLJyozT5k/thDrDFB5nyWAgfXL6nFjJChrfOcOR9IovvT8NrI8DC7fw9JOtoQSkBljTAvL4LxtpgBcnbCrAXo6qn5t8EAJk66nfanYmxbDtuYAzHFMzpZ2AX1XoAYVCpCzhMP6i9dYMPdCpwZkMsLna1IGhVoLWBSpCvFTy4rVeKVNDyN4/UieJXAImLS1ERKnwwcFFmu67fCKuOYnlZ2goiSsMrk7vLXV0IZklQKdPSwpTcA+0uK4fxHqyFQYWlf8dA1M2zJM5DrR4CLgohagkRAPG9bqRNfMKtI9aAhDVEM0sEzgqBVTOlX47WQuEorgOOftGMIX0/9KgA4v6WhcKiw62IjrRJZpCkGxMsFPpE2SeawhFAbiuQZntmbbVLWZZePQnYSIKHvuY2+zuk9L5T9sXSHdgQPBj3cX+1L3XfJb1hJNVWXE7tiHY2IlrG7V3GSyx7Zg3dV+nSdQkpBBZZPHT4a6Bg6iwrXbCEFdZd8RDkgJTX1YGpQMj/STQ75H3H+3RJCSwzqFhAzoNYnIYr15Bl6f0+5s9AtP/vE5VQg5VjYqwcw8l9asLExZxVAJBpp7Yv5jbJz78hfETWymJMCvaVjQIdLl7Al9SmQlMFwpHQwTLbOxgIOAeW5baZ1np/Jewy96CPgzYTM0yxDlBBUznfwV4qM2EebxRYIDAYBh+K4nLWjwFt7ZmmyzgBWiEIEapcqDioCJl544MU0wrNV2VlPMmOZhdTwtoQzLIhfHD2r8DhX8fvdX1yZIxENoRkuXc4w5dFzrMIuK9KytWbI10utfQgs1SocBmk6ZahoSMNKnHwqQc0Cbg93AKzczbMMrrLEiDE1yJ7nfU78CJQ9t1XLoXT0nUzcgAQQsi+dpdZwyaEzHZZWwtsanDBpaz5wvM73OkCb5m1crgN0T1liBa4YFdedym5T3fapgYHNaxWGi88Dm99EZnTiuLdOQc6YVncjGAr1gsNLvWuFg02FcuHd63xGDfMko7NLAmPfZ3AptkwS0rcPZ4tLwmmpdwKYe6/Eam4F8xwijB8NjFwkp/P04k4qgAgAUAmrQSk7od1fS8ikwKOfMO5XSSt1qdaEjpYB8MvljUc2FvjEGe8fqHCYXVSuj22zQa3AQuH+QBNiSPRAE4qZsYCUFEvKkbEzqs7mhDtZworU3Zp+Ui7LCT7gcXLnpjjYjVY5+FBVk71fV98YCrjFFx6L1NqvcVCgxelKJpL3RTQYRaFBm4mM3T86+y6ILFlhADCLBNCiK+umQxuzXjN82PMwaIS2E0NiA52yMIy4ZcCIA5aqODbER1ohrl7hoMPmcmnIURkT1CjUiakLSqRBnoRXWA8B1o4crWA8JowroNF49jYj0An5c47HFwRHLmNBBG7tOtofwuixT7glT1YCEQrZgLbmgVmpFiYWIS8VYhxNuK6ceAh38VAVm5PCxbBQ3sG3V7sXqvbhSM/Z+zNw3WwexmU646ZcCfyZjzKU3PFfcOGewOAjdY+b6kzy9qQ6jsNZoVNjIINYDO83CdC1efndwYAmbTqNz9vqPE7Ku1+6wEk6gce/5zz0RMSdMkCkIgluI/MgT3WDXt0joMG1mx4ogvmuFOMhuW82V79AVe0SmCDD3iZZbJmhCteJt/B7rJMn3yo1ik2woZvcy8WDa/Y0srNm+m3NcKymiazH2gB2TTL1ZmQlFQ16asFQUuA+5RYhY6E1UMhI2kBSa6jO0A6t2rF1W2Nzv3krQ0OPhJ1QsQSQhcW03PLYHe0xJVhJW3UK8bcrB9qMXHnxb+hjM2GGrB2hijTLABJBsYyiNfcW4FoW4MUA2NBMLqq3DkNbwERN4iAnKbXdjpLjla61cZwvGb+utGSFe1uQuruGYgWFiBFC8395S7ThSnW3u3izt1fT7kWnS7ehtecPXZ4/9CtJxYvD1OUZ3Ih5DIOSKwx7c5tx3tI7iNef/aGIXBx393i9jF3emjLsoLErsJFNUidedYVJsvbOEzM4MkAACAASURBVIjpDCnj95TM928KABIAZJJKIBNATNQHPP67afeBzOC9KV+sH+wsWwjDWg2H+IBnlgMhxPv+GQQqTcx82W4++BmLQVC4l4rE++qpPFi0SiGEJm/xzRe4IlK7ml0ch1hVXLl2fodzr3g3jWRLuMJW2Nki7eOlyJWvh5FW6mnlplkoopB4bMMtWZYQARGNidBUVVoANtbBMNWYsCYA4OqEEAgcFLggUNYzYal6if+gMtcYEB6vNE1LrNPPskdaK2glUOX9WAPMUsoubfWILTD+WMRKRAW9aibM1tlx7xSNuYlloECWNYqLinLiMes18HKjPLmelgr5XLNUVK68H2jVYiDwria5F+LjF2uKh4PE9jweidvZ3ADLjsR6D2alg4usCSZsnvdQrXPnUF502Sh4xOfiLSrcN+GRrqRVMzLSshUeJX6GMUsLyhGdPB4AJG/hK9+xYPyOLwDIJFW/43eL5Os3OQBx5dcBY/qAQ3/rgkd97IY86PlarSAEED7waRqXOg/MXJgj5m4JtMxWmnzvy6xLtsNdlcDCUjGfs3ImG5dJYSypUcGS6YUSR8Jy6zJLZyomM1Bo+pdqmtng4LNlYldL9udj+z6ZHUJlafa1SKdWASip7OkCdyXQkcpTFKh3DzDjhjAmcQ1e+Ur2SQ4Qoufn3R5U0nb1DAcfQwCIKFPCx/JSVxmWRcZUKavSF4hIZJ3o58kx3oayHmHbrM+dK0yrzCb/3r8WYE0cF3vX0H0nVg+fQeXdgaxdIvcK4W5pEeyaKmB3i7s3mMXkY3WSx6jrICm9PluIlhUfGBsDG+9vWXx80cJymJ5X/JNtOlsa8vXc8/WZOv7HFQAkAMiklQDhI15MP/DUt9L1FCR+wGWzaBCqNAljACeD+ths7JAPovT+djHBi0XEBSRKRsRBxl7oDHoOLPt0rKyApVvgjiKXlUDlrS4fKu2FRc78vrtZOuBKmmzc5G5soSK2AiSVco6vCUkRIeSBKhdYKyDFTAsX8+AAzgMIY1bYR4X7JoQwBoUAImXpeU7DWEE8gEiJdboTdrfCLnXZJbESJbz5FGG6EsQqQzlumQVzkPE1iWZuWaCQVNrj+poAcpD9Z1j2vgVYUhRXu5XUWW9ZEosSq7AuLYRdXyUl7wVuFDxi69RQ7iTGhDh5S88eVl1Nul+8pUXaDiwoA1bMgYn6QxpusIDk/bM9AEjeX6Lxp9LJ8o0KHxErP1oDvLkd0AA/DWD0gaQCIXxQLyiEuacC2EuXgIMQydCgKd7Hb0japI8REBcDu5NKM7JOl7K5pw12wyyYZTMQaWok980sGcaKsN8IFcSyYmBnk5vdirLJMtvnCAqXAhnD/S3rlkRH2hHtaYZZMcPBlIcPcR/4c4pjGJhBtKPZF0zzKcOjABCBAwIIC3ARNrj/pCL16c+ivGm5YlM3xopocbas8ubjChtDQI90MH64xsEHrRAMBPUl92nFMQsKYBYXAKtLgW2znRuKqdEsEkeXigTUpivZJq1U+lpgj+X/dzQBSxmU6xsUquwoK8mqKgYWVgCbfycG8+GDIfPVQjDVj2uyPGEv/3EGAAkAMkklkLB+qCUkdR6YX+EhhCZwPqzTdT10Zi3QQAjZz06n3d494mbwmsmStob4mT2tIAQRLoQTZtBsbUS0vMTFgBA85hfBso+Mn8mLgl1e6qqd0sQuloM8sYD4wmfSNI0gwpiM7zrLwwALiFTnpDwLgTXVkoEiHYJ9zMyw1g9aRsQC4i0n7Ei7qDgRd5KGEJf54vvlrCpzMRj8DgIIK8MOk/kz3jAi7hGWaGe12oUeALzrT2CAQEDAWlIIPFrv65awZ48vECcZSW0CIGLd4LlxnUKWwKkLtCVECnwsp4vFuVsywI3gw/WMdVpUAfPkd4P1I2+tH4Sr8E8lEAAk3AyTVAKDAIiNYPf/A7C4wT2QqTCZ3qgPaCoENYvTT8/W9o80SGaBKFFaOQgaPp3WZUX4IEVxMfjUyDhFsgvmYKcDkXvolmH1VW8FkZoP/H5WLC1xZneJn8gTAKGC46yex0TrDNNr18+SiqEZACKpnYmCYMz4YVdYAowE7o7gfhG5uSqvTHU2j9Q4QMu2fiTf00r1+OwMy4f0yFHlPIQ1YjwhRADkwUpgEa+xj8FQSwRBYLF3wxFWWWCOFV/l+H0KtQcOte5Y9gDiwm1ke5/5tK8N0UM1Yi0SyEjKSS0g/H6fZo6l9TBnDsNEZ/3veqpbEybj+an6DWMAkEmqfsOt6x486oZxo4U5/TRw19tdXwxxw/jZoc5O+QCPZ4vFrsrkA9WwW5np4AIqCSGuXbqv5yEZEq5miLhntH6IjGkLCcuDW9ZykJRddp/1FpgFRTAb6+KqpcO5Rcb9M1onvHsIe9sFmDSwVmCNWRUKcrSELCyGfZxF01zLeVH6w8V/iAWkA9GxDkTHO6TBXvbsPX5PeGPcByvD0urhFbcqaVHOeQAfPGcGFWOBKn4PIeIGKQDuKoPdyc66Hj4SLqTkuchr9gAimB2nPN0iMt3fDrOxHqklhWD5+QHuqgR8UH7OBcP4kj8DE8KMiQKA5K0VJDy9VQIBQAKATFIJDAYggIl6xAfuZosl7sGcgA+ujx/mnDXSEsIy50tmwN5dCftYIyxTHX3GhnO30CqStn7EBcwSIOLSeTtgdjXDrqmGZflsLevOOJH11c7cPsFxH9mAI3EGGiRKKwi74frCW7SEiGJTkCKI8DWLphEOWD+FfzsCgIilhADCTJYhZvACIYydYcnxbc76EVE5C4ikG/WJcp5wCGHWSpdzvfAeUgvE6hmwjzVIUOoA0BgWQgggLIbH+iht0mSP8UOGliANCM4Cjhja/Hq5TktrYd94FiyJY8xktAxMl2NW9RvGACCTVP2GW3cwALEwva8Dy9vTgYDeF6/max2pCON6F3STsNrmghJgUSnsynLYh+thd7U6EJEAVVYy9RBy2I2ZIJKofsr6ISxk9mCVq4JJFwwDCOM6H/njhtFAx7iq6PZm17hNQY0QQjcWwUO6sRbBrp4phbG0lobA2bAQQndCG8y2Bli6Jggag6Xf0nK0sszVXyHgiJtHLSGjS6G9vKDiAWT1DGBFCbCiGGbzLFcnRd0nwwGHQpW6sBiYy67I91c4qBGXjnPfMZ4oo4FgdgAqAURAkdeoDvbAn7neSAQQO10U+mQ7z/D0VgkEAAkAMoklkH7wsOy0Mf0wh26BpCMmmsgpdGSMfuYoM0wtFMUCY+yQyk6p84thlpTCsBfKdqbTsp4H64a4mh7pPihpy4izBNCN4xYpSsXS60zR9KW6R7IW5Pb52AGMAohaRnCgFViSSJGNLRbpUt9YUup6qPA8xXqSrjI6+PGz5LmrfGoZM7HAB54mIMcBYSGwvk7gRvabR0GnmUDjSuXbPa2wO5t9PxnG07iF1g9xIXmXirpW3OjdMpQdy8qvq3aFxRazQmqiwq5aPmL5pwNdFd5igBYLn4fElS0w51+DYWZY3rog0r/b6Zmlo+o3jAFAJrH6Dbdv+kEm7cdTPcCaD0rMgpj6sxScrOPsciELhhXDrihx9SikwVeRC8CUCqeuAihBhF1TDfuh3FXhm5AxU8EXMiOUcIkbs6VLqEvpbP1cx2GtBCO7MjKV+9hAiAIIR5fu2erkkrRQJOQoKbK0ElH5SsCuWoWGO34HIPYR9sBJZHEk9isgSCsLG72JvChLVwQsU/nniyXE9YwxPoh3sGOUGJYYQvz2LP3OXjwPVsEup8WN4JCugSIgNr8A0gSPKbzLimDvKgOYAUPZSUyOs3oIgCioiBWvDFjWBPPyetclWp5t6d/I9FT2+Xj+4cmtEggAEgBkUksAfpbHOiCm91Vg/gyZSQ4JIJx9P1jpAin3tbpZ6M5mmEcbpOS6WVgMI5YQbw2hReQ2BySS1ruszM3Sd7aCDcmcskyCSBaEsIdH1pIJEsMp7uE+u8wAolYKVu70So6jKMCFpbC720YBIO0wh1ohACLuBR+HMxiAPDrbWZpEZq4w12DKfVKsE3cMXXOsOtsKu6keduUMB8ACYh48FEAIfYsKYVeXARtqgV3NrrQ7XTRM+d1Q57JuNJMrcV2kd858VmGdAXPgC4hsyv+u81EBT/djUvUbxgAgk1r9hhtYZ3WGKbivb5egSSkIxqJgCQUXv6Zi3efLZzPwLxFMKZ1m2fb+gWpn9aArRuDDdzJl11JZily8yL1VwONUElSUCiEEDrWKDIQPwki+A4j0KKEy9PJLAggDVLFwBiyLsbEmyhFXyn74c2LRsjYYWkCGABB+l6EFhAASW5Uov3yxeIz2OHz9E5ZOf7gWWFocnzstHrrEMR4ePBjEKq47ZiYdTy+W3Zr3twIMZua1YfXdJICIG8Zblzb9CiLTByP9cKe7ss/H8w/PbZVAAJAAIJNcAv4Bwxnf86ukERfuKJGqpFIePRtCFha4qqY+vkBmpx5CIqZNMuWWSm9fG8zaGim5HncvZTt1BZDv8bXvbLq8zLkOWNr9YFdc4t2BSCaEDK+oRwMnl8MCws6rbbAsnuarkmZDiGTILCgF9jHOhe6XHAGEQaiPVLvKp7wmmlqauD4R3QibPIAIhExGC4i73gJn+zthWaQshgNn8QCzo5huvJAg6/sHbZntug37ZnTs/+J6wWhxMl/6njEnBJBEphJBhPJ0GUslsA/9F0TmgrhhFNDDmE8gouo3jAFAJrn6DbdwAkBefMAFoN5R7AAkodxUkVrWbjjgmsxphU7p+cLmbFLvwwOIdG5loGArsLZWsmMwvwSEG7dwRusBhG4aKs/HmkUxi2tmCCtI3gMIM3iYQszzSYBCPNv+HuMTSoFD3dJPxwHInOGtOlLyvQ1mgwcQwkc2gMj7QtgNDS6wVSxFkwtACLNSxG53K0A3Ct0sCfiQonSUK1O/mQ3EjrkP1bi+RJJZRauJgkd6ZGyOdAAmGG9rcvDi5SfXJdmLiC6ztR8SFwwDswN45BN46LGEp7ZKIABIAJBJLYFkDIg9dUxiFBQ2ZGaYBSGsrYBtzErxXWqPcQbvgcRnr2gWi4yMRWDb9h0twP0su13qSr2zzPsdDAx0IGLvKEK0ZAaw1e9bG92Nmcsl2zpyGSwgPH9m7LAuCmt+JEBBASS6rRDR0nLgyBXAEZax5zI8gFAxR0faEG2pkw64GY374utD60Ax7JpaSX1md2KV/6SI92CcBy1o7PS7pkpSvF1cBt14PnaG7itmX60ogXmkFmZPC+j2S0JpHBScABGev+ybtWjur3KuMb02Oioszi9CtPWTSPn2BAFAVOnn06jqN4wBQCa1+g03sEpAglD7TwFLW+IsGAcgWbEgnIGumgnsdtkslgBCszchhMXH4gJkquCd4pdAUkLF9hZgVYWDD0II40TucKm70e1FiBgXwiZ3zJThrDaPASRWdtqNlcpw0yxX84OuJol/8RkXPt4gYgfge2qAo1cAx66AJYCMcJ4xgOyeDWnO5mfvCooy8rrQcrViJszeNleJVlKXRxt7MTHbiyvviTkwO5tdZouCgaZ48z0zrzbUCaQIUMS9dHiv6X3mrD6aAUQ3jFhVWPRuQ72vCeLvaf2OhDzNokqkjn8LKWslAiQASD6Bhx6LPrXCGAAkAMjkl4A8bA1MdB5282+Ja4RKzdxRKIsLStWgSl/Nc3W5g5Cj3b7AWNLCQCXgggjF+sGZZ7L+x752YEsj7D2VsIvpknFFuqL/KJACZhIHIqm6+Q0gAl1SybTD1SmR2Xu1s374OioxJPhsmGh+Ecz6WcCxK92SA4Cwxgh7uUSHWiS9VKwpvoBWvH+xEhBCiqQsPi0J0p9G0oMnBipGa3kxx7tgdrZINVfJFlIZshDdI/Ww+1mQzWfFSBEy51qJLT1x5o+PG6LljQuDfTfNcmXqteOywodaPjzomKUNSL32mIsB8QgSIEQVf76MATxUAgFAJr/6DWfgJWBsP1Iv3gezsMq1lueMWpYsK4iUFC+UPjBYUwPDvhtUCCyFLQ3j/IOfD3/vgnHK2te8kM64zEpoB3a3AVuagXX1wMYGsJ+KzGYJLSNYBnTWOzGja0TnOvS2AywBvp3xBS72QwIa/cxaYhd8cz2ziKXSm2G9BQSH1dKjsKXnre8Jdpzht8EebUe0ogQpDzMxfCSVKDvy3lMhVgICiD3kmrc5S0B+g4jEEO3vQGprIy6sr0HPwzXAvi7gQJdLWfZWDgY566IF4NzorSCEXRa9I8Tu7QDodmGXZVaK9TElSaiWa/UfBa767/0/CZM6CWN7YRH6weQnfKn6DWMAkKC+p4gEmHQYIdV/CmbNB2A4k06apgdTenyYswbDPZUwe1sRHWXDNNeTg43EqJxd5VOnRGX26pVHJLN6xjZwRsvsF+/C8ZYTARavcCYGMJIWncFeZwOID5zUoMnkKGmjjHkphFk5E+ZAFwwtR2L9SAJIEj7ca5d2THBgl1e6eOrQv6Ag3WAtjgHxgakEEBZ+oyuDFhmJkaC7zAVljtYqMX7bOxmzkWF0gGnHhA7GxjDGyI8eSJP3kYKIG9XqNsdlU9FqsqwUWOitbLwm0lrAtw7Q9xpjsrgJeH0nrLkAay+wNnAIQs3LarABPFQCAUCmiPrVCzqdR9YCSZle9L/6KMziOlcnQeslEECSS1Lx3V4ImdmvqUa0v1Vmp84HrxDiFENSWUSHOpA61A4BEel6ym65LotBt0vOavMRQsSqcKgNONjmetUwQDcJHvparB8ugBJr6xAdnuMA5LDGfwwED2f98fVQaEk6xqUD2NeC1JIiRBnyLwDrYcgMn64EuhnY0G8/a42053lFVLXK+HuEli9ZFDp0VBkxy8plWul9wvd6fzBDC481AewIvKgYdr5vDUCrnV4PjhJ3lACSRZXA9t+ATZ2CNf2wrIsTACRPAWw6P6Uzzz0ASACQyS8B625q2kBSth/9pgfRns/DLG6IzdYaD5IBIck4BFpLaOJeWgr7UC3AGThdLEkXjLd+ECzSyiPzNf35TJl0fv10cKEqmLwZJb7A1f3Anmbg/kpXKCup5PS1lxMWFQPbWhEd6YY50i2ze+eCoRVkqMUXaDvGkQDSCnPXTERJ2RNGCCB0MxA+eC0WlyDFBn5S5M2B3fhZMxQqRjMqgHBM1kdR8NDRW0oS0MGS9qyrgm3NwJpacQ3yfnVuFo4+48qnRkt8Ca0euswvA+6ZB5x6ykEHfw/+N5GfLoh8icWYqOPIVMLT+V0AkMmvfsMZeAnQ4Mx5Xz+A/r63YNZ/BHbBTAcWEgtCP3pxbAlxLc39zFsqp7rXZkERIgYOrqsFdrC2B10BvsmcBkVylABOKhT/mYBHAj7iz9Mz3AkFELHQOEUpx8wMCzaf21QnDeikSqlCR9YosQfLZgAbZsM83uLiQBgL8ngzLDODdrQOvfDzbU2wmxukKqhdMQOGwOGtIFJvhMqVs31xnTkISd1TLrJXCMzvOJA0WIhFgxByNF2kTc6BoOGbEsp7lvLf0+aK2N1XBSwtcUXGCGCJRSwfSfj4rlo+WGekCFh1Dcxza2Btv/wSQv2PiQKLXL93OiNH5rkHAAnqe9JKIPvnrrd2BEgdhOj8izAbfxF2CS0hxbAM1FtY4zJjOAOXxQMIZ5y6MNNjQRHMwiKYJcUwVISbZ4uysCzU5QMjM2bkmsoqow9elayG/Hgt4CNA5Cw0zkrTDrt1FuyqknQb+CzwSJr9nbyc3MSSNJ/l0wvA2ipWFlfdkxU+ZaFFQxbW+PDyJnj4gNbkvuMiXaJoPQgyIHZtjbOCiMUmny0hacjMcKnE94DPNDrYIYXwpK4Mz23FDOkOLEXLfKO+tFwyA4JlvcZ7cGQdmuVtMC+tg5HS687p4rrg8teQ/QsJ7/NDJvqkCmMAkEmrfsPNO9TjlA8ZhZD+/lOI9vy1m20zvoCpsgIawwBIAkTEB8/S2exaykZi62vEPWMZIMnCXWIJ8QGdmjUTK538gA/OtgVA6B462O6KXxGidjXD3lUaz7pdgGOieucQMELLRdKVFYOcxClQaWYudCVkr3Pvs78rvR2vUWyJ2jgLoPXgqK/XIrUxRuMeGadtxTqWljXvD7F4cKS1Y38HwHTau2ciWlrswM33xtEeOYOOeh2kEi9Tvn0MyOq3IfrhNkRRDyLp/AKJ+nAWkAAg+QEbgz2lwrNbJRAAJADIpJXAYD/t9DoHIf2I0G9SSH1/BeziWglMFdP/cBYQBRA/xrNzztwZqEn3zN0znTthd4uAiKsXMnbAke2qEZN9jmCT/bcxfIjlhnEf7cDeNuD+CthFvj6KxhNwVIU3xDgUgAwKGbRosE6KL1sv8QwxkGR/VyaA0FJCV41ZViJ1V6TgWdKNFL++GMDwrqh4H9nvL2KfSbcc4ZTxK4SOx5uAB6uAO2fALCqU+JdklV6R94ggUuQ6PS+sABbXwGz7DKKel5GKeqXsegCQ9C8/f8FDj1HVbxgDgExa9RtuXv05DzVSQmIJscbFhZx+GmbTr3rXS8ICwi6s8UKFmV44ux90Vsr1NJmzuiUV+aZ6N8tVP7/Ofr1rRiwlSfeMdylI51em8cri6o/EAKHKUS0Yw4wxoOi+fOG0jDgV/U7Gtdw905ULJ2TwXDgSPnzxrMEgRGM2KJO0BSThuorBIhMkJGNDa7JIrE02eAx8r99FRc2MmWhJkYMQVqP1Ze7TMvOWqIQ1Ss6blhKxSiRGlanKIvHe/c0QIOLrw2S43ZKWmPh7Oh14EDoeqRPokNoqBNdELQ+N8YitTsPdZ3KN+PczYFdfC/PkfyDqPyPFxiIbeevHUM+DoX4dYf3EgMpQ12l6rg8AEgBkCkuAD9lkSWoDG52DffEe4L53OsW7gP1csgAkmXYaW0oUWAYZGd+woACGnU9XM1CzzgWvejeNNBLz1ofYUkJQ0OqqCg1+pCLUxnhppajpnQNHUcRSvKoLODbHFbFiISvvsoj3tb8ddksDLBulUeFlWzv4ngGOvmeJyIVWoOyU2SwLkUDaINaS+O9ke18UzgMIP1PIoTIecCz6nRqMyeuwsBD27nJgK2uEMOuGfWiY6psuXy6AILDgoUPdZB4QBoBaluwd1HhXTwwVzhoixepYsM4vEgvE7sH7W2F3N8NunQ3zQAXM8mKxdPCeYOzLAIBNnpvKIQkgvP94Tyav0eIqYMunYd58Dsacg7F9UveG7pa0y2V6KrFw1pNXAgFAprD6nby35eU8cgNr+6ReAg79I7C0Hlg401kzBlEWLr5hEOhIgAmtAfF2hJGFTCMtgF1aBHt3mev/saMJdm+ri2VIulIyFGDaAhJDg8zQHXQIsChoxKMCh7eicN+0wsh3OGuBPdCJ1KZZMLTW6Dmq4kuO2RYQUYoJC4eChypQPypIDDZmQkiRDwDmPtOuH7aWjy0vCkWa9aHv9TtpfVlcDDw0C9jDc/UgR+g46kFB0qR9+3q1OsUWD7U2cfTVRgXWVI5pcMuwnih4MI6GYLmvDWbbbJh1VbCrSwU65Hrz2mvArR7zCOMAQFG5E46XzYa97wbYN47A9PfG4BGw43I+I8K+x0sCAUACgEwzCbBnzFn3II/OwJ48CHvoFuCetwOLKx2IUAFQaSTBYjSvVQHp33DmvpgZNUUwq0phHqgEHm0AdrW5+g8sPkVF6hWii9lId4Nl7IObmXuFqYozHn3BL+6DwY7c33528G2Dua9SUoolU8Wf12CgMGCdKMG0lWLA52q10DEJMlmvFUIk7iG2hmhvHp9yqn+TAI6kK4xKWt0W0kuGLg1WCb23wsVYELqk/oaXG4NtD7VLvRZakQZYnhQ6MgBQrwFrdvjKtgdYcr8Ddneb1Iex98yEXVEKyyDSRYUONr2lI4Yq3ju03IwAHkkrUAwhKodFM2E3/DzMqxsRnX8NJtUPOhKZ4eKyXJx1b7wURfieIIHLIYEAINNM/V6Om2jy7VNKlrkHOk3Z/adhTz8BPDsfeORngKW1GQCi8Q7DAkm2slH40FG7yc4vQLSwENGiIkSEkmUlMCvLYO+rBNbXCZhIbY3Hm13n3Z2trmkee4KwWNVQC7v7spDVQ3WyL7tqpjRFkyweb7kQJacKbrBRrQ4LyoB1N8M+9NPAnV3A8lZgaQOwqBrgZ3QP8O8VPpLQMMh+qWgFGuZTaVfCLKE1Zjbsqitg1n4Q5rHfgdn+h8Cqq91+k3EoPCbJ/ijOABBR7vr9C4tcOithZH0t7KMNsI83we5sAXa3uloiDAYlTDAwNAlpe9sFBO0OV6tEqpBubkRqXTVS91eif3UZ+pcWI7WQAbG+YJpea3UP6XuOg61Lfu7lo3ASgx2Bb2E5sOoK2L1/CfPDxxD1vooodQbG9MMYC2MdfAQAmXxPnHDEg0sgAEgAkGkrAWKI+5dyRZyiHqD3VeDFe4EtvwGsulKUgp3P+AXvNkgAhSqReEwqH92OY0IBiSKmG0GVcrJU/IJCGCo61h9ZVOStJsUwy0sRMYNiZZlbVrkx8qNdWYbU4iIHNqzL4ffPY3ZWhESgqT8WKr7kccm289l3pBLY8tvAyeOwva/Dnn0e5uRxmNe2w75wL+xTtwOH/wXY+zfAjv8Ou+0zMFs+Abv5N4HNvwZs/lXg0V8B2JV466dhd/wR7O6/gN3/97BHboV5ej7MC/fDnDgCc+5FRBfegkmdQ9R3Gub4t4GljZnBsAm4UeWusuP7OPOGrwVWXE0SLKH7ogRYXgrcWQasmgmsngm72o1YWeYCRPk5s5ro1iHI0LLCzJs7XPBr6rYCpL5XAOOv7QDw0uPjqNefo4KYWpKy7gOVPRYwkLkRWPsh2MNfgTn1BEyqx2W22BQigY8UjHR89o4XG6I+BldnYe1kk0AAkGmrfifbrXo5j1dD+fyDnX00Uj3AG3uAvX8H3HcTsKQuHRiYjIVIKh2veFS5ZFhMshX+UO9VUSnAcDvNOlFoGWKMK73cdwAAIABJREFUv3ewfet+9bPE/h0UFcIsqQd2fA4484LrJUJFR1lIWW+XNSES4nr2G4kuwEa9MFGPc2vRpRWdhk2dcfJL9QJRn9vWcD9+XxawXHyhLHUrRNEFyfCwtLjQ6uGVusaHJN0aPGZ3vumMmxhGktk4HsIcQOq2w7iW1EJBMEwsGbAj+x98HwpJPLbYusG4Gx/YzH1KVg+tYPd04+zjvwv73HLY8z+AoSwJHDbyiwJy8v4c7PXl/G2EfQcJXD4JBAAJABIkMEACXtnS5E3t2POGswBwln/XNcDyFmARW6SXuzgRhZBYKapyvIg4ksH2cTnWEaLoErm9SKwx0ZJ6RNt+DzibhA8CyFAPn0xFmFaVfMW/8YChfUlkTENH/HkCQlzKdArRm3th77kBWFCatoYMI4NBwSMJIRmv02CQAQkJYEiCnFg+/HcP/J70vhQ2BEBY8E4tI7pfWkIWFCNaOBOpB9+DvucWIdX7MlLmtIMNn81irIFbCCEqS5U1JcRmA9poTtc7iQ91pcL6IIF8lUAAkAHKJ18vVTiu8ZNApqKk712Uo+lHdP6HiF5aA7P9D2BXtMIuqYddXAc7vySd2ZFUlmppGGlURZX828v5Wqwqhc4VtLwFqRfuRkrauPtGZmL9SEcbZEokjQ/pa5JGELdu5L9I/62LbRAZs4w+a1sQhDb+MrC42rtWKN9iadCWtn5kA4BaOHRMfq7r6JbKTI2NLVX+GsQAomDpLVsjAYj8XeJvCHc8frtwBnD3dTBHvgpz4jCiC72IIitwS8AV90oS9LzsLUf550DD3YWDwYdul5ZoeBUkMBkkEAAkAEiQwAAJZCpPDf7TuSf98qnUOaTOv4LU95fDbP4N2NVXwy6qgJ0/QxRltpKLZ8hZUBFvpwCSBJWsbWPFyPUJRcf13L8o0sTfxC4MXef/hrESBCazoBSpxz6J1Jt7pYtwJIpvdADiJOUUpItQUGWYKUOHLEM/Eok6bn7v5/iEkL5TME9+F3bVVQ4aFpRlxK2oTNPnSbhg/QzCRhI+fHxIHBPj4jzELSI1N7TuBoNr3d/G8qU1Q4NixarBbXRRkPHfS7cRr//tjClpANZ/GOa5hYhO7EcUnUUktTv6pF2iWjoEMsQ6RGtTcknKKlu+g71Pbh9eBwlMDgkEABmgfCbHhQtHeTklMJjyVHM4v5cKQGei7j1sCvjheuDoV4GHPwgsqwaoiO6gUuJYHCtFBYkBSlKVpkKIBweBFI0jkKJpxW5/VIheOSYVpmExseTi3QHiFritEHZJNVKPfVwCTPVM5Zyss3gM7XbJlHnG38ZdSBRAuC23yP2fU6ua6cEjojsiQtT7Q5hnFsGu+YlYhiI7ntdtRU4GIgcFEA8GKk8PZzHs+WDVNICwGN1M4I4Z/jp5gFH5anE2L8c0gBBcClyfoKVVwD3zgN1/CHz/btgzr9K0IfeJQQrpJcbYxD2UC1AMtk1yXe5yDlsGCeSLBAKAjOIBmS8XLRzHeEhA1WuuStQHZjLYkoGXF96CfWUD7KEvApt+Cbh3HrCiSGbTAwAk6RKgsvQxBAIMVKL8PAkgC2Y4hUnA0QZ7PlPDcKTCjJWl//uFJcCa96D/6D8hdfZ5WPMmYC/4CAxk/Ud0yPW8k9eCCnGs/7lAWHZ7jfregnl1KezWj7maLbclYkQIILRMiJVDLRPpUd0sDkJY+dZDHC0mlFUsM8JH1n54DZLyXMQutJ3Ahv8Hdu+nYF78d0Q9TyOKemFNL2BYMIzQ4VDV/V/fDTWOJLeh/k7Xj/T34fMggfyTQACQMX9g5t9FDkc0ThJgZofRJYIxvYjMGUTRCUTRm4j6X0Xq1S2IDnwBZu3NsKvmAssbgaV1wOIKgJDg29XHab9qBVEQEVih8uRsvVSsLPb2Ypg7SmDuKI4zN+yiUmAV0zvfAXvkH2BOPgubegvGnkHEGbnPRMkij4y34yS1HH+B3hpCmUanEJ07heiZJcDajwKrrwUWzwZuL3agEAObgpuO3tUiViRvmRLrVKKuCfdBaxUX1uVgwPFdbwMeuAnY8suwTCM+9TTMhdcQpd5EFJ12PVmMRSSxQqzXYbx9jNYcZ8kZHkJykbSCxlBjLvsI2wQJ5JcEAoDk+PjLr8sWjib/JODBI1IAoQMhhQh9iHCBPXnBtmEpm5IOpqm+00j1vo6o50WYM0/BvLkL9j/vhD36VZiHP4ZozQcR3X097MpuWBbtWjoL0GXJLGDJbGBZB+ydV8GuuhbRXdciWv8xpPZ/AakX7kf0+kHYUy/AXjgHa3pgwKVXqmhqrIWGmGZQR+JNfsnYucD02FMWSLENPeuH9L4Jc+oZmB9sgT32LdhtnwIe+Wng3uuBlZ0O8pY3Acub3bKiFVjRBqxoB5Zz7ADuejuw9iPA1t8D9v09zKuPwry1z9XlOPc8DN1A/WekRoeJ+hFFESITIbIEDwcfLlaIfWl90TCp3TEUMCTX5yLp5PaDvc5lH2GbIIH8kkAAkAAgQQJjJgHWt3AuA6l5IX1KqZBcs3SqDVWgbnSzY5kv237pUWOi8zCp07B9J2F7fwjb8xLs6Sf98oRUbLWnjsOyUNjppwG6U3peguk7AZM6C8NaGlJHwqVzuscNv59lvNUt4OIs9FGUYI6Ml/p5/owSFRJbFZxcKUO1NDirk4kICidh+l6H6X0FOHM8vZw+DnvmSdgzT/nlaZgzzzj59Z/yMuyBsSqvzPgNCR41BsYwTZafOTByo8YF8R1x01334a0fvCty+TcYdCTX5bKPsE2QQH5JIABITj/+/Lpo4WjyXQLDKQaNLRn5HHTLXEa3N90ye99DH4/7iwzuiN9k7yX/3vO8FOIcAmT+X8Evc+2lvksCxdD74ncHAMm/eyYcUT5JIABIAJAggWksgckNIMPjx9BwMH6fJGFl6Ne5qIQkRA72Opd9hG2CBPJLAgFAprHyya9bMRzNREhgcgNIWhGPH1KM7puGho70sed23ZPbD/Y6t72ErYIE8kkCAUACgAQJTGMJDA8g/DRf/w2mhCfrulxlPNT55fr3YbsggfySQACQvH3A5teNEo5makpgZABxW6SLr2e/nwi5DKWIJ+v6iZBh+M4ggYmXQACQACBBAtNYApcOINzDeP6brJAx3HGPp/zCdwUJ5I8EAoCM68Mzfy58OJIgAUogAMhwYDBen4V7MUhgekogAEgAkCCBaSyBACDjBRnDfc/0VD7hrIMEAoBMY+UTbv8ggQAgw4HBeH0W7sMggekpgQAgAUCCBKaxBAKAjBdkDPc901P5hLMOEggAMo2VT7j9gwQCgAwHBuP1WbgPgwSmpwQCgAQACRKYxhIYDkBYk13DVIcfx/vhOV5gMF7fM97yC98XJJAfEggAMo2VT37cguEoJlICIwGINoYJAHI5YWQi74Dw3UECEyeBACABQIIEprEEcgUQBZGJG5MPycsJAxOx7+S5hddBAtNHAgFAprHymT63eTjToSQQAGQigCP7O4e6OmF9kMDUlkAAkAAgQQLTWAIBQLJhYCLeT20lE84uSGAoCQQAmcbKZ6ibIqyfPhIIADIRwJH9ndPnfgtnGiSQlEAAkAAgQQLTVAK5xnMMH4DqEGZ8ttFHV7YCn+zv9bzCGCQwvSQQAGSaKp/pdZuHsx1MAgFA8gVcBrs6YV2QwNSXQACQACBBAtNUAgFAAoBMfRUXzjCfJRAAZJoqn3y+KcOxjY8EAoAEABmfOy18S5DA4BIIABIAJEggDyQgqtBaGC5AevHrBv/5XtraACABQC7tDgp/HSRwaRIIAJIHyufSLmH468kuAUJHZIGUBfoM0NNncPJsL14/eRavnziDH755EmfO9aC3rw+RMTDWLfF5WyrS0f8LABIAZPR3TfiLIIGxk0AAkIt4cI+d+MOeprsECB8KHmd6U3j2pdewYMV9+KXf/gyueed7cdX178G733czPvGZz+GeB9fjpR+8ip7eXoEQ60GEQMLXo5VlAJAAIKO9Z8L2QQJjKYEAIKN+bI+l+MO+prsE6G65EFm8caoH//iVb6Jr3jtRXN2KgvImFFQ0o6CyRcbCikaU1bbgmne8B1/656/hzNlziEw00Boyivs5AEgAkOn++wvnP7ESCAAyigf2xF6q8O1TTwIQ18vLr53AL/zaJzCzvh0lNW0orGpFQWUrCmYSQPxrGVtQVNmM6sZOfPxTv4eTp04jFaXELXMxsgkAEgDkYu6b8DdBAmMlgQAgAUCCBCZMAi7e4/f/5K9RWtOGgvJGFFa3oaC6HQVVbSiobHOjAAktIS1iESmqasGslivwV3/7v2AsJHA1XQgs90dDAJAAILnfLWHLIIGxl0AAkAlTPmN/McMeJ5cE6H7ZuusgGue8HQXlzW4heFR5AJHXBJGkFaQVBRWtKCxvRlPblTh0+AlYm6xGmrsMAoAEAMn9bglbBgmMvQQuA4AkH4ajeT0WJzea7xts27E4hrCPIIHcJBAB+Owffx4z6jq9daPVWzwSAEIrSDaAVLajqLITZdVt+Oa/fjcACPIFJC72OHK7X8JWQQJTTQJjCCCJ2gXJOgY5vr4YEzIvBjHC/XNAwVllel+X8lr3G8YggcsjgfN9/fjRn/gIiqrbUKhul2wLyAAAaUNhZScKK+agtLIDv/CLvwNjkvd57scaLCAXCwxj/Xe5X7Pklrzq7t+lPXsz6s7k+Lwe6W/ccamc9DjDGCSQKYFLAhD+AIyNkIoi3PrNb+NLX/0Gbrn12/jK17+Df/7Gd2Tka32v67jNLV/7Fr78tX/Frd/6dzz57PNSeCmJE5mHmflOfnhMOzQRrDGIIuDhjVvxL1//N3z11u/gn2/9Dr7K77312/jnxMjXuvAzLtzu3/7jDgkGZC2GNMBkfmd4FyQw1hI4fa4H1/zIjS7bpcK7WdTtkhwzIIRBqrSYdKGovB0/8cGPITKMA0mro1yPMwCIKsiJHnO9YrqdHq/F6bM9+Pb/uQ233PotfOVWPvP4vP239GtZ557JfA7f8vVv+8Vv943/jVtk/b/hlq+75SuyLv1e1+c28hn7bWzdvgN9/X3UEH7RYw9jkEBaApcEILy5jEmhLxWh++rrUF7fhoqGzhGXytldbptZnWhon4tv/u/vjUrxy6OW8BH1w0YWqQj4m//5ZTS0XIWqWZ2o5JLDcfBYq2Z34UffdzMuRK4QVCSVKNMCCq+CBC6XBHp6+3D9e96ftoDErhYNPvWjAEg6KLWwqgMFFR0ormzHB2/+uQAgsZJTZTfZxtHeYaz7EslZv/L6W3jHe94vGVTl9Z0or5+D8vruxNKF8lmdKJ/VIcvMWR2YOavTL10om5Vc5qBs1nALtx3p8y7RA1/+6tfQe+G8q1cz5PUZ7XmH7aeaBMYEQPqNRVP7FSiubERBxfBLYUWTpBIWVTWjsLIJlQ1d+Jd//fdRAwgsp32pGEA+/9dfRGV9J4orm2X/hdx/DktxTQve/p73ozcC+i3TIl057Kl2ocP55J8E+lIGN//ML6K0rhNFNR0+1iMLPmgJGQRACCHl9V34wz/+vAB4rtbDpBSCBSRfQCV5VXJ5TZ9bStT6y6+9hXk33IiSmlYUVragsKINheUdbqloRyEDliuawecun7cF8eJrzLDOjCxZgc4xDI92PVPFG/E//+GfcL6XAOJq1aQtIUmZ53KuYZupLIFLAhDnConAYLqmjitRXOVv8goWURp84Y+gsJLw0SzbVDR04avfvFgAicRnQgvIn//VP6KyvgslVS0oqm5BIZeaFhSMsBTVtuEdN30IvSYAyFS+0fPx3Ojy+9q3v4fKpqscfEiarQaiJkBkAIC0o7CqDdWN3Vh1z4PiPryY8wsAklSGE/l6dFfPOYqdBeSl197E3Hf8GNyEjrDRgcKKLokRcmM7CisJJ+6Zq2NBlQcPpniP8VJU1YS/+0IAkNFd1em59SUBiFAtY0As0NxxlQcQknU2XStl62d+rGhGecOcSwCQlPwW6QP//N98ERX1XSiqapVCToWsJjni0oKi2lZcf9NPBgCJA9qm5w9hIs6a8UYv/OANzP0RumHa09kuGv/hwYOwkVxcVkwLrnjbu/HaW6cvKv6D55vrf2MT1M3pyqUuepUmEhYux3freeU2KoBQnrSAXP2OG711gyna7SioYIwQA5U5tknatrNyJJ+/+kzmOForx/Dbs2rvP3zxS8EFE56pI0rgogFEHyWEEFpAGtuvQpGUjh7+5nQ/BL35W1HZeCVu/fboYkDk4akuGGMlC+Dzf/MlMUmT9mOTdQ5kX1RDC8iHcYHNwOJgPvdozu1xELYKErg4CRBAUsbge4tXobb9bQIZ/H2U1HWiuKZdYkPk90ITelWrwDXXM213duc8PLTxMaTMxX03/yrX/y4dHPRpcamjnuvlgICJ3KeeV25jBoC8fgLzfuQmcTc7kKDLjjDLxbvvGOCsQc66Lt6Grr+xXBz4fOHLBBDXs0h6FYnDKLfzC1tNHwlcMoDwkcIHaWPb1SgqJ23zph8JQjwkVLWhsmkubv3ObaOKAZHLI1kwKRjasSNaQL6EmfVz0j86/aGNACEOQG6WLqQmgoSW6IN5+twG4UwnSgJ8OJ/v7cW3vrsQzVe+U6CD5dbpzqQvvWBmAwrKZ6OoohGcWc6obUXn1Tdg0fK70NvX7/rBMCA7NKNLZFxMJExczHeP7u5LAsgrMYC0eFfKIIHL+iyMRwUUBY9OFFSO3ULLyxdu+RJ6+3rlmgQAGd31nU5bjyGAvA1F5TT5Jcg7vuGTgXQKJ/yhtF88gDADh4FYzD/0AFKmACIQ5L9TzNlD+zlZg+EdN96MfsZ10ZSjebiJCiPT6YYI5zq+EuDDmU3l+vr7sffI0/j4Z/8M3df+KGbUNKG4cjZKKmejtKoRxZUNuOLad+OPP/+/cPyZF8EAVqa/u14wAUAGD3K8GBiYiL8Z3T2XDSDXiAUkC0Cyg5cznsXZAEIQGWMA+fIXA4CM6IBw113tgpnvuHbq/xsDAHE/h8bWa1FU3iXpgbHpL+OmVwjxACJg4ADk6xdjAaHrZygASX6v+tPjMRNG6Hu/4cabxf0iAEII8dbpqX/5wxnmgwQUQvpTKZzqSeHNMxew++Bx3LduExbfeQ/uvGcNDj3xfbx15gLO9hqc602hP4oEXLQj7sWch1r6Rhpzd8HkehT6yB3tqPsfW0gwnMwk/o0/zOh55TaOLYAQRtQSMjYjA2HFBXPJFhBe56n4j2nU7tySv4CRf2fjKQvOxPV3dvm+9zIBiFo5dFT44DgIgPzb7bHhIfdTHQRAZtEFw/0nvi8Gj0RWAd0y3I5+dQGQjwiASDBLbAHJ/Uim9JYJ0z4VpTOnDjxjvVWNr6Mi7yWl2f3QRv5xJX+KY/XapVTzmKymV/O1/xefT2Idt5Ml3opbj9XxZO/HH4k/tlh2Eo9kcSEVobff4AKtHc7QJ7coU8VduvjQ1yOXYx4JPPj5yPtRGbtjMcaPyXPiPZSUscg2l31nbxNfuYtytzBazS0ONyJLuTKIPgJfu4WvuR3/6fddyhj/MoY55tHt/9IBhM/HhBWEdWW4EET09UWPbBPQhi98+RaJASHMDfXMGPmsh5JdEhHTatJdr7G5aiMf28Vu4U3t9Perz1+fOSwmqEtOv73s38dQ7xPHqs9B3tsZv9H0M4U1ZqztB2w/LCf58tx3n6frZA32XYnvGfDb4fYD/40BgPBmYAwIXTC0gPDGVvBIjgoFHhBiC8hV+PoYAciMXAAkhhN3bDGA8EnroC++9APFNc3W8MYzmsdPRcOHib5P/9wpNobiUEmylooqy3SnVsptsBv2cq+z0qreKUVVlDry3Oj+4DllQoeAgIct+Sz+4Vyu41X56JjL9yTvxVy2vzzbUD6iuEWWEVKGlhlV5k62Tp6ZMk4f/WiOS/9qKMU09HoBD7l3HVzwQdpvrcR+9Zn0PSuIwms/5QFEn8dtKKrpBOvKFFW7ka91GS2QFFa1o7iqBV/48leyglD12o12dNc0+ezRZ02KQdx89vhF7rP4tzra7xmP7QkfzHTw2Q7uAQlrLKLILfKRfMzfy2h+G7lsq89w/V26UcIo9bntu2u75zyf9d7SKr9zXyfrop/lA2V8GQEknemSaZVIAgiDUCcCQNJgJABy00dEcfLekJxGry4Hiiu5Ri94cp2+1s901PUXM+o+RjtezHdl/g1/9Gridw8A3rD+Ie8VtJuNO/Dos8AFA3CUB4PezBd9w472nLO39z84DxlOEbpzSL9OKkb+vfsn5+uVagwpY3AeuVkVss8jf99TjrxHZJH7xUGdk5l/0HHuL/eLSjc5jubc9O+GBo3k3FhfEz5o1XCWDSKGFUiW+5X3rAX6MpSZ/qV+36WOIx3v6PY/NhYQDyAzGTvCSaN/X8UaM1zSEDK61x5AvvTPYwAgTm7JZw/vN53o8Jpx6ffXzs0fRyfLy7918to7qIghQ1mEAMyK3im2FeHviZmdaQDhOTsL4mh+K7otzzD52u1Ln3/y/PbyoxxVlgJ3fkLZHxnJtkt5CKGc0/sczeuB0h4DAOFcgRaQa3wQKm9khY9kjrkS90AA+ca4W0CSANKGG266WQTPi+zSYJx4B4prNMIebtuBex58zXD7yPWzwfec61r98XOW25fqx5mzZ/HGW2/hueefx979+7Hx0c1Y+/BGPLJ5u7SW33XwSXz/lTfx+slzOHO+D30RH/9p45J7SOR67Jnb8d3AG3+ode4MRUHKD8dK3MTps+fw+ptv4smnnsbOXbuxcdOjWLtuPTZs3ITHt+/A/gMH8cRTT+HNEydwtqdH2gzwB+hMj5nHM/BYRv78cgGI++aRv/9ijnm4v+Hj9dSZM3j1tddw7IknsX3nTmzcvBmPbNyEx7Y9jiPHjuHlH/wAp8+eAWNceD8Nfe+NdPz6l8mH+vCv+XTq6T2PE6dP4YWXXsKhI4exbccOPPzoFjzw0CY8tGUHtu09jKPPvoBX3jiBk2fPietrsHtW791cRz3aNM4MdazpLXN5NVYAQtCoaJyLquarUd0yTxICqprnobrlGrc0X4PqUSw1LdeAS23zVfjyV2/Fhb4LHjz1vHM5u/Q2DLA+e+4cTpw8iZdfeQVHjx3D9l27sGHzVqx9ZAse2bITm3cewI59R/D8y6/irVOn0XPhwpjZrtJHMtKroc+Pn9Aq2NPbK8+Ul199HXsPHMf2XUewacterHt4KzZt2YGdu/bhiSefwQ9ffwunz/SgP0U3iPs9SJ+ni7KGDHHc4noxEvh+6sxZvPjKa9h/9Gls2XkQD23eifsf2owHHt6Cjdt248CxZ/DKa2/hxJlzYPNMwp/e//pc4PshvmnE9ZcJQLTgjYKIhw6h7IEAMm4uGKX82EXEqqlpAOHD0QFItkh5G/ExAvSmDPYfPo79R57A/iPHceBoeuTrg0efwoGjT8rC17oNPzv+zLM429uDCCyj7PY54MJ5C8O587049tSzOHTs6Xhf8etjie/wr/ld/Pzgsadw9ImnJEVzwL5HvB38D0l8gJy9RvIQefW113Hg8FEsvXM1fuuTn8FNH7gZbd1Xo7GtG/XNXahp7ER921WY3XkNmrqvkyyOD3z05/G/vvQ1PPToduw59ITc4LzJuRyQc+J5DbEcewYHjj6Dg8efw6Hjz+CNN09I0JaqJ73x5fySPs34/Nx58Hpe6I/w1ukeHH7iWTy0aSv+/8//Ld7/4Z9G99VvR2NrN2Y1d6F2djvqZndgdks3WjrnovPKa/Hj7/8p/Mmf/y3WPLQZu/cfc8dz7FkcTCxyjMeejT/j+4HrnsQzz7/gqpXywP1/eg49vRdw/Knnsf/okzh49BkcPvo0DolcnsJBuZ7POHmJzLjOvd9/9CkcefJZ8O/dI8HtXPcbX3u6GlIpPP/Cizh49Mm0/P2+dX+8JgePPo3Dx57A4aPH8Oz3v49UlL5LdcbE4DlaN85f6MMLL72Mx3ftwR/+8Z/j7e+8Ea1zrpalvrkTtY3tmNXShbbueZj39nfhj/70z7F23Tr85wsvoPfCBWdZ8/EimfEhepUHG/Ws/H0aB8lFsEgvkenH2Z6zePb572P7rt34p6/cil/4ld9C97zr5fhYtbmO1715Dupar0RD5zx0XfNO3HDjB/Cbn/p9LF11H/YeOg7KWBd3z/J35xZeG1mXGHlv7z1yHAePP4ujTz0jzwt3xNnHm/1ezyu3cawAhPVk/uLvbsHSu9Zi4Z33Y/6K+7Bw5RpZFq1ciyGXO9ekP/OvF/vtOS658wHs3LNPMrTk2koMkAu8lAmNv+6c1Mh95e/gC/39ONPTg5d+8Cr2HjiIjZvd7/UnP/ox6TXWccU8NHdehVmt3ahr6UZd61Wob5uLxs55aL/yWnzooz+Lv//iV7F1x0688NKL6Dnfg1TUn7baxvcL5T9W/9Si6ka1CF+ILE71XMAzL7yMhzdvx5f+5V/xsV/8dVx17bvRMuc6zG6/FnUEv9lXoHb2HLR3X4s5c6/HDT/6E/j07/8x7ntgHZ5+5lmcOXtOst0chKStFzlZRMRy4gNevcW6P9WPt06ewtHjT8rz/Nc//mlc9673onnOtZjVPg+1rXNR3XwlqpuuRF3bPDTNuQ7veM8H8Hv//c/ld/H086/gTE9fGkTiOBJ3Ld31zl22YwwgbJJFwFAA4ahWkKEtIBMDIA6OimpapRAZTXnucevmPpmzFtKoq/j63EuvYVbblahtvkJIv7Z5LmqbrkZt01zI62b9jJ9nbnP19Tdhz+GD6AcpnabgbHLkzUJTscWhY09h3jt+TB6QNc3dqGkaZOF6XeLP58hD/+Uf/HCE2WbyJtHjcDcrm0id7+3BG2+9icXLVuD6d92E6sYulNayOBYrzba4vhPsPSGLrz6brLnC617eJEWzqpqvQnULZ1lzZalpuRpumetHvufr9HtuX99xHVqvfAewz6VvAAAgAElEQVQWL7sTJqJxUCWmyinpYvEPFf+wYyfOk6fPYPueg/j5X/0EZrXNRVltG4oqm1BU0YKiitZhl4KZzSgoa0JJVTtqmuaiTmZ281DbnPtS18oZYTd+5eOfdEHOPPwsAHnuP1/GvBvej5qmt6O++W2ob7wK9c1zUcf7quUq1MZyuQo1LVzmyoOhvuNaXHX9jXji6WelL4i7gkm5UDZOPmfPncUnP/1Z1LdeidrWq1EzyML1da1z0dB+NepbunHzR38G53rOy8NP3HAmhVSqX8zqtA79+/fuwFXXvQvlDV3OfF+h9wL7kbSgwC96f/C5UFbbjCvmXYNHNm3CyVOn0NfXlxGj4+5IPYfBRr1n0wo8Gdtxob8Xp8+cwpNPP43P/cmfomvutSifxaBIHhvLkeuSONb4HtZ1rmR5RcMceQjLw7jZyZ7Xgg9oykpGvo8XZ0WobrkOdR3X4d3v/VB8t2Y+S9LHnl6v55XbOFYAwnNct+kxXDA2w5WRbf1JQ+1g12Skdd59wHuRLk2mjqdSArcs/NgXAed6+/HGidN4dOsOfPx3P4srr30napu7UcJ2Gr6HjWvh4Vp9aDl5aefhW3rIdrJtM8rqOyVl/a//x9/h+Rf+E2fOnkZkNJgyKf/c5D3cVtwbn9e0DHDp6Td448wF7DnyHH71k5/DrM7rMIMVumvaUVjNRAjeg21ZSyuKKpNLC4qr2tF55dvxiU/9N7z40sug5ZZWEfebdr/tYa+Lur8Je8aA4HHixAmxSn7kp38Os1qvQOXs7sRvImEkoEtO3HJuLKntRMHM2ZhR14Hm7rfjD/7kr/D8S6/i3HlOJNL903hsMYBkvx4C+MYAQJwibWybh6JyRlJ7AKlSCBkZQMbNBZOwgLgHYwuSAOK8w5xJJW9Swgdv3hT6Iovjz72M0poWFLHnTCUVWgeKKjv90i7VKuUzfs4sm0o+AN02De3XYc+Rw0ihfwgA4QVMSXXMw088g5bua12J5REa/GU0ACyfjerZHXhplABC3ciFLpMTp8/iG9/6Dq694V0oqaz3x8Dr6G/MQTOLNMuoHQUsKx77lRMWr1j+CqNDjPID6EBhdSeqmq7E4uWrYCKHiHzcxT88/1BjPQwXq0Jzp8Xpc+ex7uGN+Kmf+a9inSmsmC0PMvYnckqI/TE6Bi7SR4MQ3Y4CFtWTJX39iqo6MZqFvvOi6mb83K/+llhARMBZAPL8iz9Afdu1KKicg+KKDsyobENpVTtKqttRXE3ga5eHFx9guhRSvjObZaZy5PhTEq2eCWcOPCQY1EQ4c/YMfvYXftk1ioytf7wuycVfPz4Iq1oxq6VbXG18cPHhfaGvF+d6zuKhDRvw7h9/vxRFE/lUEUD4ux/iWsp6n3FR3oqC8hbMrG3H7372D/DaG6/7OiYEX33MD6fQdBv9ffKXSv90hHMX+rBl+w58+Kc/htom/t5mo4DPIN6rccaHZn5wXfLch36tJfDlOuj14Jgojx/HuMl924XCmi5c8yM3etcjj1mPd6hRzyu3cWwApFUaga7buBl9xiBFV0EyoDPLz6/gnP7xZW0Q/ygT6/lHfj2vbxJAWMfmbG+E/3zlTfzF334B173zx1HV0IGS6mZf8bcTcp/LdXKTxUzX/lDrWqWKcHFNhyh+1tRhY7yTp0+iP0XgdYGVw7sCc7sOvJoaEMvYt9Pn+/HgI1tw009+DBWNV6CAwFHtJ+UyMR94Lw6EEV/Ms5wTOIJ8K2a1zcNvfuKzeOq5F9Hbx2edC1UcTOS6jhYTHlt/ZAXwduzehw98+KdQVjULJezZJvdqJwqqWP9FY4D095HIhoo/42+3WSaVxVXNUvn8f/zDl3DqHN3s7ruGhI/4tz1QrpcIIFRZQwEIOy/mZgEZWwDJehAmlWX8kCSFuhlPJoDwXNSUqw8L3rAseJYCzWoEEJK5wAUVTGUXiirn+IUKqs1/pgDCbeagqGIOGjqux54jR5FCimFxiRlS4sJwphlFOHDsKTS0zxWlkUn/OgsYeqxt6sRoLSACHwZ4bOd+fPCjP4eK+hYphlVa6+VZzRuVimYkCPEAkoQQ/vgSs+KRX1Mh8Hs6pF04AcQOAyASAMmHqAFefeMUPvGZ/w9lNY0oqWqUaqI6O3JgyGs/BIAQSpIQIt1EHaikIVNhc/ixsNJnFtS04GO//BuOPfh08P/pg+L7L/4AjV03oLCyG0UVHSgpb0VReaYVYeCD1yny2rarkQuAnD5zBj//S7/moEGuhS/NnXwtD3pea5+OObMej+/YIQ/t/qgfr/zwVfzRn/0lqme7MvGyXTmvkQKIPsSyfn/xb84/WFkksKIVxZWt+O1PfQZvnnjLKwX+3vgv1lmDvNbfiW7rHC8nz53HX/7dP6GhYy7Y3ZrVjQU8BIL1oZoc9RhHBg8CSAas6H3sAUYBJQ06nSio7sTVN/yYN1Prc2S4Uc8rt/H/svcdcHJVZfvp2d57L+m9EVroJfQSmkpVFKQpVUApglKliIJKM3wUIUhHiiDlU+kQSCAkAQnpbXud3dnZff7f877nzD0ze2d3kmwQ/Et+l3Pvndk7557zlue87QwkAHlRAAidwgQgHE99OuWBnQshWXsRb8s/ivhuD3rMaryzM4gPPvoEJ592LvLKJ8pijosDBXXK9wJoZf44R7HAht99WmNJY9zsVF3stPQcfMTRWLlqpQNCPBqKb9R7f4supGB3N1o6uvDGex9hn4OORHJ2iWwMGKY/Q+9aIdylwb7OlUcGjaTCJ68WiTV29MQd8NAjT0gRQglU7SMuxMrzdZsbcfb5P5VF6cg0rbAs9EzgkVpuAIiR6wI22C8XgJjFBXdVFt1WhKGpRRiWWohhKfnY9+Bj8AkLIzKrmP2JtnzYa8Pd0aP4FQMQy/AUEKrImAVDAELCV3qN7mKsa0IFWiYUtl/002swUtJwrXAx7RYDEGVDb9XS2wLCra8VaEQBEFkhWyuI/Q4VlQKU7OLJePujxQgiKPBDmTzy/bq7g+Kz/2DxUuSUjJYdg9XkaE3EfbVqPk7LK99CAMK3BRY89TwKKydiaKpu3y1bd4tbxQgFEq3MmxXwfbQuAKGwdpVdPOcGgCTlVuH+hx9FT7ePBUSyK3S1T9D26WdfYNau+2IEQRNLl3PrcbF62DGz5s8+AIhRwNZC4llDuMkXVzPxHvx+EQan5uOAecfFBiCr1iGreCIGJZbKFupDEwowOLz64Qoo+iAP0TpTIK6AWABEVpzG70sXzGHzjtEdqI3i9LdYcJ51VUThcvNtt0vg2bsfLsFOux8oQod70qhCNuNAK5EIrii+8wMetAamGZdNcpGYgK+76VYTnGr5wMoBv5bfUUVOywf/baipwxHfOhkjMjjWXHEWYVBaia48RYHZ/rkC3/bVvotPK3Rv6dv5vNd82PkxioIVRdPKMGbKN8MCEguAWOywVeCDf+z+J4qJmR4hLF3+OX503oXIyC3B0LBsUV0QTvmNoCdn7MPufD/gYe8VCh24wJE0Sxk6btI0LPl0STgwVq0gLjC0NNh/y7+i66W+pQ1X33CrxKTQeiNyh5ugit4hzVla86NDlya9c1kgSRaSyhArO4en5KFi1AT87z/flKwZUfhhvWn4xQkS/XjZCux7yLHg1g5cfA1NZd0r0jQBhlv51vtt5WUDQOyCkwBIZBL3pCoSqywtyXzWsLRilIyehpdef0OCWj25Y90xlo85pjyP/DcAAIRiwGbBEC2RYGj6dF0wJA6XkHjOgShGYk6l1AGxkReR3evjisFwLgD52bUYkV0RaXI1IEfdAXaQLUGwD0TIXgyIWiVcAGKtIeqWYY2LZV+uFwWtaJ2palzp2oPXulU6J8pLZ6NlpAw5pVPwzqKPERQLiI5b5KQwCLZLCJtBrnllYz2lIcwaWcXVdxvt5EKk5FVj3fr1/caASECYCQR7/JkXkclMJgEOUXNlmSk8nlYwx2qtQOGYc7y3HoCQPu576BEfAKK0Qb8j3QSff/ElJs+aIwyhwsfMc3geTJ9EuDkIP7rgkrUAmDREYVb+jdS3sTQUR2u+3z8AWY/s0kkYlFSOwYnFGMK0SAFolk59WrOqyiwei4+XfubjgjGM7sSAHD7vKMODzvNccG7POV+0UKQV4ajjv4/nXnkTFRNmY3i68jbdQEJ3Mq92HJxnyn2fa76T+xnrRaSXoXrCTHy6bLnWYonDAiIxH+T87i6s3rABcw8/DkPTuPO1Q4ukYQuALe3KvG9Bf+14uG0vGRbFJ/wNCnYCkKk7mkUV6dRVcn7nfci5KIHNbw60BSTINGqxfuhCRGWSKo5IK4bRdi64iOOcz+sMduH+Bx9BRk4REtLyZW8jofMIOrLz47akpehx7v/aBSAC4hPzBEBPmDoTy5Yv8+pbGJeMzlF/82ADTkMIhrqwblMtTj3rInBByrg46hLPWmP7GM0L7rv1cZ5YgGFpZZIOLXyTmIek9Dxc8JOfauyFARruXKny19pHr//jLVSMm4WhaQQaqmslnZouIbPIUBBCvubBvthzt40EQXyWuG8cXqbOKKicjPc/XKQBsxJkrJQa0b8wWPLGeRsBCB/vAhCz/XOvINTYACQptxq//v18Nf2ZFZunGO2E+7VkGgZsKj9eeJkFII7yCytMd6ItQSix+AEQdcMIxhXzihp6tRrl8i/XCZoUAnef3885J5+m9ncXfSwuGI6aWkA8VKgsT9dMj2TZ5JVxh1SLph0B6wpFn/Pk/NFYt35dXACEjPTSa/9EZvEYY7re8t9TtB+jfw6hxi9IOEecxxIk5lTgvgf9AQjBB90vGzfXYArBR6puW69WGjKapYU+AEc0AIl17cucLqNGn2v/B6flY+68Y2NbQFavR07pZIkBEfcPTa4RY2bpNapNKkJm8bg+AIjSFceIqYxHzJvngUEKdKEbOz46d6RpCThLKhA/elJOBQhyBHzQpB3+G5+5jqfP7nc4N6klsoHkt0/8LjqCnaLrqM9iCy2tfkxffltHAMee+D0FH9ZEH8Er9t2i2jAQiRpPt288d/kqLgVoafYbCEBCGtwYNp87c+A7GQZ0+M+T//xRTr/82j+RkV+BQYm5atmLHvPw3PjJaztfVrFvQUurVQLjHgqRkFmKuQcfjraAZsgw1dcrrugpRv8z6iEFH2s3bMReBxyOYQTmBLsE2JZmIujF9ju6dd8x8pwKfkhKiYIHWkQZF5aci53m7IlNNfXiavZ0hzPeIg+7seiTpagYN1NiyFSWOM8PyzcT/8HrfmUb/97233mWmS9abAiWqibtjFVr10usj9CSQ0eRtOKN7nYCINYc5ra9CYZBRgnZlbjh138Qf6lWVDRFjWxxoxgtCYGRFAycYmGXCy6/FiNyaAGJEjj2OkzcdiDZH38LiIIDTjHtMmr94JAxytkCkDCx2ef305KoFIBoDAh/w5sUnRAlJY0NWfjxMrWAhIVqjPfy+d14AQiD9xpaO6UOyjD6zSnIw78XJYQtc21pGyZcO+7xtnxfA0BiWECoXJnHfuL3zzIR3ew/+61/q6bGeMBH9NjG+Jt+GdVhZsPoAkCOigQg3rwDjAHJLiMAqdD4k3gBSDIByPh+AQgFQf8AhO+v8yLAOilfQMdQRu6THkgXImDtuMSgjS2d6ySac0tQMXYqVq5e0y8A4cKElo+m1lbc+OvbkZxbjsGWbnvRbvScuoIzXhrsLbNig2g+k7/5zQEgSdll+Osrr8uqldU4jRNfxJClUUdIqXjaCvDBZxGAbK5vwRHHnSIB4bQge0rNnrtzZM/tZ267JfNC6ysDOmmRV1pOzSnHfQ88iLZ2prjqjtLxWEBIf1zwbK6tw7HHnyxZXfJcsVjaPrGf9pyt22/33L5f79ZazuVvjfujuGIc3nznfdmWgWMZy/2yZt1GTJq1h8RpDKErUn7f+Q0/ANIvCHH+PqxHI+8NTmW8XiVOPedSNDS19iIbS0/aDigAUbNdZCl2F3jYc3dSzHlKkQCQq2/8LVat24DV69Zj9bp1sY+13mdr1q/D6g3rsGrDRqxZX4/Tz78MQ7PKBgCAEABYeCD14IwJ9d8FQFyl6iNUtxKAEP40tXfhqhvvEB8h06y+lgAk288FowTcEeySYkQpuZWalSQWEDtGVln6tfY72irDq/Uk0rLl87dbCEIGpxVg7lGRMSCWGQlxV6wxACSlQuJLBke7KmIKMANAPo3lgqG+UD/slgAQCmuCDmYRcCzUJUdhw7Egf8WIA7L99FUsruB1zg2oYZDgNTf8ygAQjo7qOjtOtiXNdoa6sKGuCeNnzsFg8bVz5ekAZ9cVY8Eo++b0y0vHZWyAHv6KwkdmRSgX+7l9J46TBqF+E1wwAkD+9rqkxopGc7SaHfNemmQrAIgs5XqA9mAPPvj4X8ivoMuReoHjZhWZHUP3Hj9z70efm/GXZ/F5dj76aGndSy3C9Nm7orGpUbKw4rOAKPhoaGrChZdchtQcptLmRtCV9tXvt91+2/f1bzX+w3zGGLLkYiRmlePu+x5Gc1uHADkLQBQzKo/zvKauEXMP/7a4oUWWy3hEjWcYgLiyLVIeht0xYWDi39fIudPquSxk99ATL8nu8px3e1h68qCHng2ABUR/JBKA+E1C1D1BjQUYml6KnLLxKKqagOLKcSiuGte7tff4uflOSdV4FFePQ/GoCSiumozk/GoMJuLzUchyrxehsz9+FhAFILR7QOwrjAlRkMWgo+VfrtWobRFudrUdNYE+fdh6C8j2ASC05mxqCmLMtF0xaGS2vlOvVWTUStcwOBUTj+TcapSNn40d9jgUU3eZi+yyiaK4xIwfHgOX+fo453jSP8l5EtTPTI9CqSNy30MLwOBcUprMhalsWtvYihO+/yOJk7EBVhzn3jQQxWyikBiDUILc8kmYOWcuZs3ZH8XVk5CQyQBVKmH7HBvQ6Fg3fEGIFRpszXcZRxIDgFjG3DYA0r8LxlpADu/TBWPflfPj8KlV4CKIrMmWreEzy1McKzk38+so+74VCONNGMhWilGTdkBTSzsgW1JzdHqDEN5tau/Atbf+DsPS2WeCDxeAOGZwy59WgYlZuxDDUwuQXVSN6TvthR13nysxKCm5BH+qEGnu9vrsjIU7LhHnjgyQuB+OTSnGTNvRuFhVeugKm/Trd6gwjvf/KnFVQq3bXI+xU3eUGIRe1suId3HfS+c5KacMz/31FakvoQDEG3S7KVqvifABIJwXykbNzGBQuPbQKh37ebAbqG/pwsmnny+ZgpKCakq/y5ib2CYvNkTpI8zPFpwLvfEdSHf8jg0E9gchAjJJD/Z7yQUYmV6Ax598Ep1BVmv1rNyRc6Cuf84ZrR+dwSDmP/AnSfMelJApcVKaKuyObTTN8Hd5z3xH5IqRRyInLO9Q7lCJ6yF/k1CAhOwqHHfyWahtbBHwwbGUQ+K7tB4ILcGdwRBuuO1upBWOUWuPoWf9XfsbSpvCv+HfVloQ2iF4t7TNxQfrf9h+25ZzZGWj5X9+ZrN1kotw0NHfQ02TLVbmUXzk2OrVwAGQwvGmFDuFb/QkxHNN4rGBq3G2kudP37RdAVlB6tO6gyWDyT75ARBWKdV0NAgAYc0ODqIy2WcCQKyg8/kdOzlR7dcLgAAdXcAzL/0jXGdEi/pYsBMFPKwwl7YQdNew6ullv7gJy1duxNqaZqze1IQ3P1iCw449SdwhZCCa5ZRYzfMsEfu1XHkLADFjawAqfbYEIKFucbaJIKCrjvsSsCpldsloASBMi/bcL33Py4jMcqTmV+O4U87EomUrsW5zE9ZsrJNKsj++8KcoGz1FAJYAIRYsY+aGXTlYcBHRGganArLBqswOoTCJigFxhTJp6os165FFFwwtIJIG7Agrv3Fy7mWWjMNiCULVsVGWdhW3ZwE5bN5RstoP86bMpd84uXNvP7eASlf3ChSNYOUqjUArVQ+Zb6ePvQRYjM9YtG3J8hUA57mH76P/2fFiy5VfTWMr5ux3qGf9EFlDurUywNKBS3OcnwKk5JRh/0Pm4bV/vI21G2uxoaZBCird8pvfYfTkHcOKQqxg8cowFqzjWIbfS2Nbvv4WkCIkZJXhz8/8FZvqm1HX2Ir6pjY08Ghk266tOW+U63ZIy/Pw0SZ/W9vQ7AVHGgASVpZUmuK+6EEgCCxbsQF5ZeNlvMMK14yfAMBEzbYQwCC1JzSlVmiXcoGylZamJAXFAmTEkkUd4g9CwnRv5pUy7ODD54EZYv4WELV4aCVVjZFhfMOEabMxOClLMkoGS0A2++LOf/S5E4Av4MLb9I9KW96f2WE2xZW0xHc0mXDTd5mLTbVNku4bMZ7USaa2Csd28ZLlKKiepgsnC3hknIxssvpP5FipAgapM8LxysOg1HyMyC5FUn4lUgpZOLIaSbkVArLIW+RxeU8CED4r4tkWZCl4yigeh6deeA3tQc329HwKvSHIwACQHiBXAEiZpinKhPQFOqInidd9fT+ez8wzoxS/DFT0YIX75w9AiIcZ/QFfALLGBIZa4Rxf+3UDIM3tQZzw/XMkZ13qZAiRRQlvUVKeQlKTfKHUJ3nhlb+bvV5oFuc+K3o0trTjlNPOFlDAdxZminqOH8PSElY4ahpGT9kFlRNmomrSLFRPmoUJM3bGE0//ReqwEPurINPNkR5c8ARScstNULBR3LHm37k/MrMMF195A5oC3bobagjS0irEqozPvvAy0ovGat9H5AkAYVE0b+VgFHIYhCjjZZdORPn4HVA1cSdUTtwRVZN47IATTztTVoXGxyCNFSbRAETGq0+B5vHO9gEgUfRsBZesfBRk0IRt05yHphZIhVwGqtLyxZiOLXkHSwspeaPw3F9f04JzYu1ygZSeE4Bwv5ac0tEqNAk6ROE4bRiIWgBiFUA+9j5wHtbXNCAQ7BETMVfkzGzj9gqLlixDTskYcTmFMwf6k0kphVLZt3TMdKXZCTNRPmE2qibOxO77HWzqgFih62f5sPfsd+JrB8YCQstTCSbO3hM77X0Qdt77IOy67yHS7rzXQYj/OBA77XkA9pp7GP7+5jsSICkuArtSt0YVWhm6GW/Rjbqmdvzoosu1Qi35kvTO2jdSDZQ1cFi/J08qAbMyb1HlRFSMm47Rk2ajfOx0FFVPRWbJRIzIqhae1CJxBMKUAZYW+tYZ/G7pqImorauXuA5dp3vjTzlD8GH3s+E+WD844xwpbMiUVm+x4/GjpeVerSymVD6RP1gCn/vlZBePRW7pOBRVTUZuyVikZJdjJC17CblixWBW4v++8a7sTaTywrMmCOWYoNOurhDOufAyDM+wKe7RAMGAEPIwF0ZsmW3HcU/KRWpBOUrHTcGPLrkCDzz+DF7+57t49OkXcea5F6O0eiISM7UCNoGHApEoUCPPMc9NKsTw9FJ86+TT0dIR0EQRKTqhMMQbYT3bjgDETowfIdjPtkcbJUCFwN0Bs7+pxOqXBbNlAMRT0EqU0dfan68bAKlrbsMOu+0v8R9a6Iwrub4BCN+PCueE752OhmYGcHUh1NUpSoOl0nu6uxAKBSUrJa+0Wn2REvwVPSZ2DkybUoTU/FF49a2P0NzB2JQgWju60NrZhfbOLtlETgOCDQCRPV668LOrrjWVEwkk+Rs+cx91jyZTKoy65g4whoSWFVZPJfjgQaW0saYBU3eYo4wqipfPdc2mvQEIq5ZedcNvsbmxA02BHufoRltQLWjfSADivjcj81MLpeZBYfkY7LDr3pIJkF1UJXtysGqtKAELOOMEUhSECVkV+OUNtxoA0um7+yer9L7+xjsYlJjpAZBoECI07NCxEY7Mtvts1WYEDNjkPNs5ZxsIhvCzK69GUpYCKbVq+Mkuc49VjrmKPvpErNncIPt+tAQ60dLeIUdroFPC16NUxtfIBUPeK8AgxtGkss3XNoUFJLfwSMpFck4JHnvmeQF0vQGI2K+A7k4BIcGubqxYs1GsTgQdYulI0DRZbpfAOkZlY6bi0p9fj3cWfoIVqzegvjmA1kAIDc0BsVZ+8PFn+OGPL0FqXqVW50xlAUjzTuJ+6GPuaC2hxSE5D/94421J4/cDIFoFmJmW3Vi5ejVKqsZpWQShb0fW9EfndP/RQphSJLV75uxzCB5+7FksXroCn3+5Hl+s3oTFS7/Ew48/jxk774PkrFKk5FTisit/iZa2gMgnPwBCMNfR2YmPlyxFck65Z4mxoC7cLwtAjHubiwq6PtNLkVcxDr+5615sqG8Ad5XiQWe3pF90A+vWbcQFF/1UqtSyplLY+hGhV40cF4BD600+xk/fGRtraw30IPj4ygFI3wTQCyWGB8u8zFZfu2DD75zPt33rzwLCqXBdMN347EtrAfFRqlbw+rRfKQDJ6y8NF9hU1yT7JbCs7pAUmjw1+NAfRNl3LZTVyTsLF4s/lOXRe0Id6OnuAHo6jYAhIAnilFN/gKQsjrNdLdhnOK2dYwl2LMTTL74uriHuPssViKptayvQVsyOPT1obmvH904/RyqdqvvFWFuseTAKeFhwMiKrAmddcJlW7hPQ1IFuZlqZ0sVURgQ9f/rzkyoY6duMYLZo8MFrLZl+wqlno7E1KM+W1TVX2EbR0adOAGJdCvatvvYWEAIQWn9SSyXK/aB5J+CVv7+JprYOBWw9QEtHN175x/uYMGN3Sd8VF4YoA5eXyYvudeT5iIwynHTqGaKgWHTOL42Pu3H++nd3YlBSlimzbtwu4VWvjxtGFFwRZu91GDY1dQoAsXMic25cO7TiLVy0BKlZ+RqUHZYRVlZEtYyDSi5AxbgpWLupRrZPCPVomW/u5ySHb7yHtXq4bfS6sO/rgbGA2PcpwLDMMgxiNpEN6hVQQmASxyGArwAp+RV46oW/odPwkaVvtvI2jO3p4SKlU9I02zqC+Pk1N0lMzpCkXAxNzkVabhm+98Mf4+X/fQuNbV0CZsiPGluie5po1eOQ8OIVuEkAACAASURBVGygoxN/efEVZBcz7iHXxJUYmdPH/JE+GWTNvaouveIXaG1rM8DQHXfKIAUfrHZ62c+vRkIGQSf53cSrWRdzH3TNBY8cKYUoqJyE+xc8jaY2Lnqgh1n4CBgGY2Q6ccdd9+OYb52IFu7F1K0Fz+x42h4yTYKbTAYCHbjk8l+IVUX5zuo8y1/22rSJhRiaXi4pvjml4/DcyyzFbzNKtbSFxMRwvkJdcrQ0teCoY4/HCFYZtgs9axmV1vwWXUwck8QC2SjwuZdfNXyh8lxTO+wbaDswFhAWIouIAWGHLIHH09rB+qpar08c0Mk77i2bMXH4uSuCZwEZOABCJZZbNhXvLoqdhsspIfYksXlpuEaBR0x4FFFFfZYcBwCh/7uwcoJWxxPw4QCQWAxFBF9QLel0AhBkRUPgQb89BQzNrFq2/prrb0ByllaDlZgBAQQO+IgCacPSi3D5L38lq0d5Np9n0qCt9YOAxAIQbs70rZNOBQGU0JqYOfl8uzIxFgu7gpe2GIm5Vbj3wccEcICm/h4eVAYmuMsopHUbaxSUSQl6v/GOBCIEmLvscxga27VeDPtJJaoC2Ato+EYCkJQSZJdNwTW33IWWTq5lvLHi+1F40pXxwSf/QumYGYb37VxYnvYbQ+8e3QG77XMAOoPt6KaScsbOjllroAMX/vRy8cFHZm1Zs7sLQAgcDZ8nFeGI75wWnpvoFTrfgfc6uyElq9UC4MkIX1kmACsfeWWj8Mmy5bJKtoJbwYcNbHSBRqzzSKHc39XAAhAzTtGWoyj+7HthUoSUgko88fzLCkCi6IPjyzfnTsrKvxpPx122q8eMR3F5FX7y0yuwYvW6MGAX4MFYku6QLHLQ3Q6E2uToCQXQHepAKNSJxpZWnPSDH2FQYk54ew11w/QzfxKQmo85ex0gGyNGW0AUNrHuTI8EgFaOm2YKjVnrmpUzlr79W4ICWtm5Y+9b7y8SXtHxiOQh954uhiKXXx5N6CKG40kLSHNrG6omzFJrs5V9EfLb4zGxXiQWY0RmBYYm5+P2O/8H3IG4h4tHObiQtAfleoccXGg++vhTUsNFFns2xiRK78jzDSAZmVGGU884X+ZTAGS32ZVX4Wj4/wMHQIrGxQhCpXDohxjkc/8J7GvVtPWfef0hOt2uACRMDMXILd0yAJJbPtZEt3Nsogipj+t4AMj6zfUSy0GXipQslwBgjksf85BShNzy8RIIKGBJiJYK3FFJXDV0d+Pu+Q8gJYdxE9Z9wTY2AGEQ7PfPOl82kosNQLyo7/qmJhx85LdE6IT7HP4tP/ChAbHJuVV49MnnZFVFsAQJeCQ7R1onNtU1YERmKQazkiBNi77j7YEQApAxU3dFQ5tuUEVha1fxBn5IY3/HCpx/rwUk9nzoXOncFY+djQXPvIrWzh6tu+OMlQhGBhj2aFr3Poccp/wuc22FdP+0yxXphBk7okvAh7ovOEZ2vNi2tAdw+tk/VhfMyGxjXbMK1ICQsCJ1AEhyMU7+4QVoCbDoFHscOd98NoU+QVRu6Wjluf5klrxfATLyy/D+R4sFgHB1LiAkbssH+8Fjy/5tGwDxZF98crm/7ysNCQB57mV1wfgCkN4KNxgK4b0PPsCmmhq0BTrE1Wr5wiphGdNutZyIZaw7KKCElgFastpDwJIVG8X6oZulcUESh84xAGTGTnugprY2YgasimePKdkY75aQSRnA50bxTF/yUqqGFiK7dBzuX/AkAkG1BOhsR9K2S+fxntMC8vo/39aS9hFZL1aG+/Ed5VkhKsZOx/IVa4TulQZ12a1FNyPPSdPrNtWLy55WPy/Gy+/5eo9xVNN23BvtxDEs8P3VABAGoLEDJFojEMJtHITcz2SGFc02f8/ryzYDkDj7whQrApD3Fn0i5dMihaAngKwF5IOPl2F7AhBaQHJKxyj4kMqE3DfFMFisd0ph7Ykx2NzQIgyr1gMqcSs2hNLEtPjH+x+BpDdK3QhV/jEBCOklKQ/Hnvh9NLa0qfuFoEaAjbWEqKDWFVQP6hubMffQo3XTKfaX4IPmPzGL9gdAnpXaB4xX0dUqx98TCBR+G2vqMTzD9FvGw4/ZDAAxK4+SMTNQ32YsIGGGc+GH9xt2xL72AOT/dny++qY/oL61U5RLNCiQNzIBhtys8cwLrtBgODMmYYuUL4DzxpQrxfyKUQjJPkmMnieHeOPF+WltD+Cs8y5UAJIQBUBIQ9HgQ665R0wJvncmAQj3E2KGDZ/ee84DXdANIEVmeTLCV1FLKnoh0nJL8NZ7H6ip+f97APJSOH7A0ndfLUErU1sJRLr+z83B64jvO25RWkQ6QgBT71etr8XHn63GK28sxB1/XIBzLr5G6klRP0gQdH/gUeQNFWk+Rk+YjrXr1vkCEPaG0ufqG25BYhZ5vR/56CM3R2SWYZ9DjkVje0itH2JtjaQ9V/ZsyTldUJf+/AYNWg1bJSz48Fs0UZ6xvHsxvn/WRWho6RRuIEf0ddAPUNcawkmnn2/qA3l8678wU3d46ahpWL+pAZLS3a0WYeU77/8DYAFRosnlPiKJBCAWKX4FACS8yjKo1IcA/EGLJ1y+SgCSFwVArGrypoNn6oKxAETTC/2IKTYRxGMB2VTbKJHlgyjIE3MEAPQLQJKLMDKjGGs36g6mYrYLr4lVdHDlT2HxyxtvA60Ng9IqTfGqqJWDzJ2dNwUgJ/3gbDCLpi8LiLg1pAJqK+Z962QVClR2/YIPBRMsL37nvfejo4Mm3K6wlcJlfK6uln6+Qp8dTiemAIoec++eWECm7Iz61i5ZmXHrcfY1+j/7O1bQfq0BCPkpMQ/X3vQbNLV3qjlVLAj2rfg2BJ1coXIF242bbp+PpNxRjissesxiXRcivaAUXWEAoitmO15s2zs6ccMtt2FoCovmMSCOMsbwcgzwQdBLAHLU8aeiuZV1RmixY20fa3nQ32FaN1N8ZaWbyGd7MiLWOQNuMwsr8M4HH4JVhbla37LYj/80C8gWABCJ7WA2mx60mqrbTfUJeZAutzUbNuMfb3+AX9x4G/Y64EhxN5SOnYGc8slIKxqPhBzNhBGgSyUcTi3tZ/6MBaSoYixWrFwZAUBUHqs1i7LsoCOOxcgMyio+01Xw/ZzTZV00Bs+/+lbYNeXSnUvbW3rOsWpqDeCAI04w9U0IwGPxlrkvbugyDE0twQ/Ovhj33r8Af3xgAe554FHcff8C3P3AgnAbvif3H8Vv7/kT9jjwOJPma9871u8xI6YQ+WUTsOzzVbo+5Qv6jPJ2BCC2locFIg5BUPmQwa0SEma3L7UFLYULg4Jk46kt+DuHiP6tAEQmJXpivBgQWkC2FwCpa2zCxFm7QQEId441sRTO2PgxG901DFxS3yGtHyrQKdT1CMlK+fBjTwYDPgcl2xoafbhgOP8JOTjr/EvR3BbwASAG3BgCJvO1d3Tgh+dcYFxUxtQfnbESEf+hAIRulTN+dCECnQyGIwBR36SCHjWRtra343d3zzcWIXVDaAquD8OZ2BJG4O+0+1w0tnboTpVxABCurr7eAESDjglAWgJcqer4RNolFICgm9H63fj9/AUgAA5bPvoTigLqVB5kFBKAsA4P47B6AxD+/l9e/BtGZmjwuAcMHN63MiXccgfeEjEf1zY06aaGErvEWCWt78DCWcHuHrz6j7d1pct9b/oDIMYCkl82GouWLJV3tzSkSsaCi3jayCVIf1c6MrTiAFteiMyRw/29Y1yf6yJCXTD9ABC3PogFILR+MJuuuwudwU40NjXh3fcX4vKrfolD5n0LY6bsiIzCUeDCQdK/mcFiNxq0CwLyIHlfji14v6R85BRWYPnnn0epRsoEBrp2oSPUjbLRkyT7z9NXDr258pI0Z68lILMI03bZB+trm8wyjZThAd8tBR3u9ykDaxpaMWHWnoZWHXdnTJ6jDOSiiTtRVyItrxJp+dVIyx8lWYjMRIx1JOeNwkiR52ac5T195KGdk6RCZBaMwvsLl4gLRojV2Jld+h5AADIGQxLZIU4CUzr7AiBKJEpI/L4lGmcC7UT21ZrVjRBGX9/r47OvGoC8/5G6YESIOADEQ4cKQD78eBlytiMAaWlrxZHHnSx54BIHIumMnIe+54A+wP0POxYb65o9k6J1lximXf7FGo1MTyX4YHpYH+DDMC1z62+87feSgSIEGuV+8cZHTXnc2vt3d96DkVkmzkRWP2YV0At4GMZjOlxaMSrHTsX6jZvVAkIQwmweKiVm9IQ6sX79OkzdYTfTb8vYnrUjbAkJ/06xbIR32LxvaTGm7h50i8kRan4025FHCBBTa+brDkCYqnjdzXdI/ATHnP7gSGhAcEhXVkCKw/1h/qNIzmWdDjNuViD119KaUFQm4IORJtZC5I4ZXWNrN9Qgp7jaif2xMie2hY0WkNS8ailc19kZ0LlmyrhYLTQFm2nf51z4MwXi4oq0MilGK7JHa0msWL3WBFcqmP0vAFEKsXPIlu4VWjnEzSKuFa2cStDaFghg1Zq1uP33f8BhRx2H8tGTkJpbHgYcnn4w8okKVpQsZZVVgn5yy3/uaLmSjJHkAmTml2HZ8uVRAISxZrRodWFzfRNScum2sLLF73ei7pmFMdO0T/jB2WjptDFNhB8DBEAA1Da1o3jUdLOYt3LKacNjY8fIa7V4G3nG+X5f5308y5sD7/kEg+l5lXjr3Y9EBloA4oIPng8AAOGQArlFFoBw0l0AQiASZQXhZKbqykTM/mGGj5rIPpWhJUZnEPv8vv+z/x0AhCu8eABIXtn2soDQ99qJx558GsNSC7SQl8yZGdNY4yjpa8VS6XT+w09JWWVmDtBMSRpgMbL1m2pw8mnnGIYl+FDELcAmvCqNUhbc7TG9BE+/+Jqmx4pVwo0B4dM90pU1ZU8PFn60CCXV49WSZldAwkQWcES3ZLYiJGWX4uzzLpa+dnZ5mx9SwTY0NuLW39wuKy4FYw5T9WJCC0qKMCK9GJdefjXolxVTsmTB+AEQvgfHS4vdfd0BCC1j1978OwEg6mIwtBuGCHwTpqozLbcbd85/FCkuABFF0dcYms8EgJRzy0fxSLvAw57Lfhf1LZi9y74YzvRGG1/kzovMv0NfDi3vtMdc/OvLlSAIobWCZv6Orh4pqEerXlbRKE0zFPO8v/KKVIYF2GG3fSVLQmlSV87/BSAxAAhBCOM8mHrKGhZdIXy5eh3uvu8hTJm1CxIzC6U2B4NJJfhb5tWdByPDXUUZnns/+e7+rXdO8NEfAOEckt4/XvYFmKEXrgMk9Oz3W/aeWvYJehlD9pMrfokgg7QlnoT/9yCIpeutaSkRaxraBFizEJsUCHPHxZ6HxycOHhzQ7xKAVOHNdz70DKaODLfSfBsBCIchFgDJi20FsYqIjJ5SiOEsjV04FqmFY5BaxNYeY7xz3neONPM97vyaVjROnrE1lpC+AQiFYT91QBwB15f1gEGojAGhBUQACAM3SXnyn5KgTopnAdmeAIRKkpsx0cSpVS2t2dkykl9rigbRdFk2AZdfexsWLVuFL9fV4su1NXjvo6WSmcL9VAQVJ5q9BIQZHKVg599pc8sn4qOlK8JWFZo/vSBUC0AsLWs2TFNzM44/5VQnCMuieRd4RN9jzQ4WVMuXIlLvLv4cn6+pxRdr67H4szW48LJrJNU4vLeBBTZ+zGksIAx8G55WiFdef0P21VAAEgU+wjVAvkEAhCvFOAFIiAAEPQMGQMgW0YKZiqulLYSf/+ImjORmeU4l2vAqzKEp5UcqniIMSStFYlYpZu40B6++/r/4fMVKrFy7EYuXfoGHH3sGBRVjdZt48fOTzj2FFQk6zH3ZsK8Iv7vnAbCmBRWr3dr9/0cAkso03Odiu2A0q8VkG4W6pcbFCy+/iuk77SFuLxa4YzVkmUcmMpDvhOd85JBVrmwj+DL6u/5zaAEIrbmxLCCcQ4Kkf777oWTD6SaM3oIjtqw3tMONVnMq8Kvf3imQWitsmDobA2AFoURct6nBVIE29TfccbHnEeMTPV7b75r6LiO/Gm+8tdAw8nYJQu0LgFgXjLWAWGJwAseSCjA8qxznXPpLvPvxv0Bl0PfB79iD39XzNz/8DCef8ROvSEycoIBE5AdALEqFWY3J6kbMiD6FyOL8rW0GIK5g7eec/rp169dpLIUP6qQK5Aqwrb0N1/3qVrGCaCqunZtoRua1mT8rmOknT8pHWsEoFI+aisKqSRiRxliObIzkrsQk/JRSLcLjxujYvnPczDkFwv6Hfxu1TQFNCxMLSCQAUXDmKSVZd3d14R9vvIWs4lHaP/aNjGczYSzzWWaUluXEWViLzFeEzNJJKJ80B8XjdkZa0UQNmLUC0IKPsDB0GVZBjjwruQjjp++GlgBdFAQeCjKiFagHM3WF+LWPAXEACF0UGuNgXTDK+2rLYcyGApC75j+KVLGAcHws+HPHzedcvkcXTLkXj+/ntpKVM3f9bMP0HfbCMO6dIz5tnUtRCvIsQ1uWN0kXcnBb9iykZRfJppbVE2aioGIChqawCqehfX6P+7tYepfW0irfx/BGSiFySsaCe0OxqJS6GL65QajiYjBBveqioJsiziOVJekNAKF7xTjpPApR4EFLKQu+sXbHlb+4Bpn53EYhz1gjOLZU8KbwnbVucT7tPIrMMN+LmHdDZ8LvruyyOieyDQMQWt1iuGDIwXQZvfbP95CcT/lCcBQHAAnTRzFGZpfj1t/fK8CcHKLlvtQKEi3P/GWFJ++iP+ci54tVGxQ0k0ZdXnPPrQz8ilsG5TMG5I23tysA0WEhoXkuGBJANPiwio2EYHYulEErQlJuFW66Y75Bib1Nd5aISdTRhxAJIEXEzr3kaozMcsrRukTbx3ksABKZD61mM1Y67FUJtY9nRzAO03DLpmy5BYSCUfyPVgj238YLQLhioxVkr/0P1oJeLLVrzc8UxBFC2L12dp+U7zvX4cwEA1pcwBE1VjRT0nyYUTQay1ask+BVUd0x4z9chlQrCAvx/PqOezAiUysbUtGI+ZYCSoAD++EIqGjmDAuyaMXoCjJ7Hv0drjxKpQrhjb++U7NfIpxFbn95bv99gwBIEl0wd6C1QwM2I2q+GDcM3SYhMKWvBwpAxhiTtTPu/QlApngX0gVD1xvBp7EgOZYQkQVMxwwCzz7/CtJzyjGYe1vIpl4O4CGdxaQ7Q8f2c2OOF5M870XRaPha4odMQDX3u0gtxCFHHidp4yECEGZxhFOvdckSvyXE0kV8raUeSt8tD0K176hxEAzuZLo8Az2Ts8uRYq55r9fBz/yO3Arkl4/Fs3991TcNl3Kb4INptHXN7Tjz3IswPDVXC/058+ApUZtOT/oxqbXhueE9s4iwPG4XHBasRDzTvq/XRgCQvFIs9YkB4UxwTl967U0pWT4oaUvAB+mvGIk5lbjtzvmMkJLg6q6eLoR6GN9E+oiWDVt2TcD72Yq1mr1oQbKVc66M+zedE4AQoL//4RLvxcxbu1S+jS4YF4AwDdeazgg4rOWD51EAhNeGSJLyqnDzHfeKKNvSSaEwJBJkAaHzLrkKCQMEQCLBh1YkEILs6fqPASAUjlzRcr+D5Z9/horRuhJkQCrnK1xyOCYIcQFJPOeeAPCEOpVHLs69+Aq0tHcKeVrh6kFRpQo/2uDcs8oeA8WO/s53xYdMl4H0XawX7Bd/tzdw2PZ7KpC4B8zs3edKUC7NzMpcHs/59Zv3qEwpmL/2MSAOAOG7+a1vyS/dkj7bg7vvexSpeQQgZvM+UQpxjH8EACEI0TG0CxALPmwJa8ZuMFMiKZ0WC6Zfcq4N4IlWQFtzHQ1ExCpWKr8zJCkf1WOnYdWaDSD4YKGlyGqP3wwAkphdjoeffBG1zUFsaghgU0O7tJsbA7KnEfc1iueoaexATVMA9S0B34Uk6ZwyujnQJSndw1JyYyyq7PzZVoGk8DPpiIuiRG4dwVLq3EGWli1jreIci5XL8Lw751Fz6QKQjH4AyJvvLsLI9DIMEncyed5HjoXvRbruknIrxQUTCUCsBaR/GRFLdlj5sbG2WTb0i+yTHbvt3Tog3x1rA3g4xgUVE7F0+UrvRU24wXYCIKyEaledFnTY1lVQBoyYTtMCcssd9zgAxO2ePffewU6K3JE9F7Y3ALHChAFU/3kAhIFWBCFvv/sOSqvGgvEbIzKKhcHFAtKnJcSd1/7OHcblMxPypAjaHvsfivpmLT7mqWWqGzvTqva8K/uJri+5EmDw65oNNdhj3wMxNCnTVHY1gkiEQxwKMCxE4gQsKSWyS27ZmBn4YPFydHZpHYPe/bT9jWy/SQDkmpvvQFunFu/yByBc09EKQgCyYKsBSEZhhZYfk6wqHS8FIHaudf+MoGwo142mtlac8v3TMJIKbSTlihuMF0tAOvftnEcIUPO5/cy2XAEnlWNochmS0ovx8IKn0dLKmjXcat4eWm48fsuHJ1uspIuntXxCWtsWC0hSdhn++srfpUInx1T2yDFB5W7Mxpac63x5ywdL53z2y6+/gayiarWyppbHdhtErNoJNkqNZbYAgxKyMDQpCxl5ZZi581447qTTcOpZFyEl3zzXyit3Tu0cmrY/AGI5lZlsny5fhaTMCgxKolvZWtkcWRbxbAVIWpFV9005+8KfGgtItAvG/srWtzWN7SZYPkrWRYzfFgCR6IWa73Mc/pEx1qBbGhTsuBIQ8bxs9DSs21jvveD2ASBKbLlSip1MSmHPAfEDH/a+1+ltByDd28kCYoWDbQlAQvhsxeqt3PGzGDllk3u7YChFjLJV4UNhDny4eClyw1kw3nhZy1FfbbwuGE1D1CyQjmAnPvvX55g6a2cpujOc20KHrR/RDOcSvPuZWQGIEHDv89wFAUUYkVGCaTvuji9WrpFqiFqthmslvr2qcR0PexXdGjEvkfXqW6Yl5ITvnobkLDKAsbJFCAjbJ8uUGsfhmX7t536t2/9iDE4rw/hZe2HhJ1+gvZO1DFRB/2cDENKqnaNIVUMriAKQRwwAsfVf7FhGjl8kPXA+ikAAItRvAIj+glXnWpWSFhAqM2YWdIa6UNfUgKuuuQ7ZhdUCQoZnVKhis/QmQtQqDtsH2yenjf4er13aIQAZUYKsoon4wz1/QmtbJ7qkLopmdWjg8TchDde+cyGSs0vx4kt/Q1dXEN0hrYvC+hfCixIkr5WN/a9Nlpr5nsQ9mR0XybcudZBi1m2qw76HHK3uDMZTpFj6sLzotqrkqMREzklhuALJvtvnwCNx9/wHsWrdJjS2BNDU1okv1tYgs2i0sYh41vWI+XPmUlJQRWEWIrYFRF1qq9fWIjWrCkOTK0zWVRRdOM8N/54thpZSgHnfOQWtzrb05JL+XTAeDKX28ZODHF+m4eZXTMKgkbmepdcXNJixtTxBgCAHg8ztYe+5rflM5kF51NM71EneQXk7hJbz8JGP6vEz0djMtHeKdE8y2jdiOwAuGBeAEKlygqig+jkMcX39AAjFqDftdtg4hoyKXr5itYIryxx+BOh7rxiZRRPw/kcfa60DzorvxHAlDSxctAw5pSYNl2Npfy+OdmsAiASlBgJ44W+vydbqzBQRASDvYgU3AzxNpDpbrkzoh+Vh/bBhIuff0GRZhkFJNF3z78owJLUCCVmVOPbEH2D1+k1SkbSn21Vq8YAPghGdJck+6NZaDvQxf/TpF8grG4dhaab/jFGhQOBh3yWsbGz/dTdb7kei72xp1wprtmRADZBLKhqLHfY8EAs/+Qyt7UEn8NSyVjRY6n3NqedbfxNcMJ4FJBYA0dkg19x938NIEReMVTB2DB0aiqARc18ASKXxjlORK3so/LdpjDrPjCdg5VKm/XKnUm5ituNuczGU9Ca+etKdHgxSZbqupOyaeyKjxKVivm//hkqRtWvkIG2YHWLTCjEkqwT51ZPx5At/k6JslAXcpp18Y8GHnmuPLWyKr7V0E1+rI0M5tW0WEAKQ5/9KANKFkAFTUr2Xg98nALFSMVZLi5DGaAmd9wCPP/MCUvOrImWK8CFBhgs+PEUnQbDJBRiWVojd587D+4uXo76pGYHOoAT+2mcT3GQXGwAiWUyW5vzb/gEI55ABxXRRA/klEzEirRJDBDSRXv2fG5bRVvelFGLCzDlYv2mjwPP4g1B17EhfSmO96YI6oq45gEk77IlBI3J8xjB6TF3+K8ROex6Cn139K1x13a248pqb8PNrb8KV1/wKV16r51ddd4t8dvV1t+Lqa2/C1df9Cr+Q40b84vob8YvrbsAvrrte2+tvwFXX3YSrrr9Zj+tuwtXX34xf3/4HyRBT7OHRivs2AwdAInbDtQK8j9Yo0vgACLvsCXGx5PCOuGAG2gLiv5LlhFPo/GvVuq22gKTlj8XLr/0dISldzZ1j/ZEh/cqLPvkC2cXjDJCLNnv1fb0lAESrEIZAC8jDjz6O4upJ4P4FTFsUhStC2yVeghDncMER70tlWgp/gtFyDE6uxKCEMgwaWYyk7GpMmb03HnrsWazfXCeCr5sFoWRPFhmM8Cy78x3rXGJAuJ9EqFvKEn+45DPM3v1AqSkSUV+GWQ0j88w7uQKOgsSYTZPoWzZR//adRNCYd0krQ0LeKJRNnIVf3/1HrFhDy43Z3ExqfqjQUObyaDVm3/9jAIi+Id87EoDQxG6UuAV+fsDD3kspRkZhfwCEjh4DQiSwsQcsAnbkcacgLW8sBiUwLqDMSc/VVF3JlGGMCOmAraxQrbXOKhPKqiJDv6Rv1irKw5DMAhSOmYRzfvIzLP3iS7R1dqIzRAXI1FtdzXJFa//FBziiQYorkvs/H1gA8qpYcnTLe6Vbla/b9n8XgASCXTjv4ssxlLtu0zKelC9AJGzhEF3gKkyVb1xVs77O2RdeIfu/BLh9AgFfVJYNZQkBiFg9RfkbvpZzM69RoIG/TYDjbwFRAMIlAn9rp90OQkJGZe+Mq6hnpVpNAAAAIABJREFUegDE0BRrDuVV4d4HHkSwO4iuHh50VfL5/OcvJzh2LO1Pq6pYqQ3IdSmD+ojWnwPnnaCgzi4Ee4E5Z1wNAGfg/8QZc7BqXQ1a2oOyA3lLIICWQBtaAu1isWnt6ERrRxCtgS60BtgG0Sb3eL8DbXIE0NahB608vO8dAbQHtQBbWF+bN3bfY2AACHeRFADC1S4FdjQB+ACRbyAAIZOu2VCLYXaTMr5DNBHGvC7GyIwKPP7Mc7rjp1TgJIjyyNASZWcQuIcFnbjPgX2eGa8wkfdxHQ8A4W+xFDUBCI/HnngCucWVEvtB94IqD+P3ZLqjHIwNoU+2AEPTaVHgnhw8GFSWi8EU2GkULozvKMTwtHKk549D2ZjZOOm08/A/Dz+Bles2yK6mXHXR8uEBENoDLGn6M6Y3Uvq5Wj+AQDCEZf9ahRk77yV58dy/RAAIAQVBkXEJ8VwC2FLyMTQ5D0OSczE4KVdT2ZLYZxZlK5QKjKxLQHMiXUX5FRNxwJHfxm/uvAefr1yB1kAzQty11WY9OCthO4fRfY2+pmD7z7CA8M105qga7r7vT8YCsuUAJF0ACJ9GAe2pWQpsmq61VQDC0ulrNmzEAYcei5Fp5RiSXIahKQS8Nl1SLSDknyFMD0/iKpGmakOzqXlCr6RZ9/6Q1DyMyCxCdtkYzNn3IFx9/S14+/2P0NjcLqXoaXWhIuEiwprTLfhg+80EIOpGElGk2mKb/y/zZ6xYDc0tunN1km75QD7TFF93IeUoSiPbhqUVY/ou+2L1+hqtsWK3TnAUN/lovbGACLgJg45onRMpq/sCIJbyYCrynnfxz5GUTeuN1W2RzwrLaCurbctg2fQSzJizD2oaahE0AETphJLCX86RirjTrYIQZs7Y+DKVLvycsq+lI4SLr7xRMgnVEu2Ood+5Wqsl8zC/Ev98+wMp/CjWREkSJjjiwX8qn/pve6dscAlv/QjKyZFvaqU82+0IQOwkRROCuTZEtu0WEBuE+vMByoLpbQERxC17F/RgU32z5Her2dC+YzxtMYalleGaG29BoLNN9yGRtAmdHJ0UVhMF3n1/CSZO3Q1DxJ1lTH59AI5oUBI3ABETYxc++PBDlFeNwkhmFMiqtRSD06uMn1YFOuuYDEkuwpz9DsV3z/wx9jn4COyw294YN30HlI+bhJLR4zF68gzM2GUPzNnvQBz5nZNl1XjfgiewbOUa1Le0IiiAQ0FHjwgTrZtAICR7svSxKogkYQtAtPoqTbC773uIFAOzsUdkMnuIgJDI+RIpoPbdH56LecediF323A9jJ89C+dhpKBk9HWXjZmH01F0xefbe2Oego/G908/GdTfejHfefR8NjfUIBhksy8BDVtI0O+mavWS8/nMm/QWLe/8/A4DYN9L33XYAUiUrzr4BiKZ0trR34OzzLsIIVoFMKsWw1AoBIeLusy4VqRNSiOT8Mnzvxxfg4G8dj1l77YtR02ehcvI0VEyeJm3l5OmYPmdPHHjEMTjtrPNw0y234/X/fQu1tU1oD7BkO7NcaAGl4LdgSOGQCz6+kQDkpVc1g8dkHW0z8jAPIGVwlU4637C5FhOmzdYqp7R+CAAxLtI+5FpCVgV+cf0tWldHrN1WTnj81RuAcGHkp3MiZXT/AIRFKLmCBxY8+TxSciojF4MWZPTbFiK1cBR+fftv0dLegi5jNbPy3mvdd2J2XwjNrS0CRNTqo9/k/y0AaQv24PnX3lFXobUkso1pBSEAoTuyGEOScnHSqWegpr5JXJncBLJLavl0mB2pNeaqbwASG3y4IMR7M+8d7NnAABDWAfm3W0C2LwAh4qQFpK6pDRnFjM3gREcSdUwkbIk0sQA777Efvlj5hZaDDnWjh/uGmG2o2zu78PHSFRg/eWeMICGxxoEQVhy/4zByvACEee4Nza3Y/6DDMTKNK0MyLy0GJFRjBTEuGKL/lNxRWLpiFVo7O1HX3IyNtXVYt2kzVq/fgFXr12Ptxo3YWFuLuqYmtHYG0NbVgUCoEx3dnZJB1CP1HUIAYz4k2E0BiCpvslX0P5d0e59T+DS3d+KaG2/D4KQcLaOdaNO/tc6BzpGa3SnQbr7jPnQAaOnoQE1DI9ZuqsGqDXX4cn09Vm5owOpNTVhf24b65g50BOkeoqVGd3vt6WGZdR6M+zDC0LhfvJ737qdV027LvvP4ZseA2DfSd95+AETXZNYCQovXo08+i9RcxhblY3BSibpeGGtE2nUACON6jj/9bNR0dKIuGMT65masqq3Bl5s24cuNm7By4yas2rQZG+obZCfmLpYgMZNDi4Cm2Gr2jY370N5Y6OHZPDwaIC1vyeH9ZTxndoXO0d+WLJjk7DK88NJr2weA2P1eenqwYtUa5JeOwpBkgg9aSJU3qQijF0/uNWuUPPjwoybOhiUXGBvETCM1HFNuMh7k3YUfIyWv0kvJ3UYAonNA9yr3N2I59hVIzeXzbSzeFsh+/k1iHrKKK/Hyq6+gpb1Va8YYfUKdIofoAJ53y0abn3/xBS665BIpkcBtMyS+yKEqghJug1Hb0o3MkvFebF40+IgAJCUYml4urmjuvZWWW47f3TUfjW0tCPawjg/TqANS00ctIRZSK8VZmeVmRZEXa+ob0MENBY3lw7aWA/qi6QEGIEYAiML1Q6HOPaMwt90Cotu/n3fJQAKQSGVIQhcA0kMA0oopO+2FwalxgAILPJx2ZGY59tj3ICxc9CFq62rR0NiEjXVNWFfbgt/98RGUjZ2FBKZ9EXyELSB9BD7ZZ28xAIGkjj782NMYTjO0gI+od7KVQJPVejNzzgFoaGW1Ut0ngShdFTF3laXkplWgUw5V1B3o7umQa5a0151zqcx58G9Iqm7mQDSp9q3MyQhLPluB3JJR3sZVDDp1MrAE7aex4FkJcsonYeHSlVK4jgX2dd9VmHq3urLWAEet3MjncxUnK2BzTgFoAw/DAXth4NR3f626ZmuZORqADDbuon7BLKu4lozD4qWfaeEuUXgcP7cPWv64pbUVh807Stxi4dWhQy+u0I84Z4R8Uj5iB6HaXxsYAJJRaCwgomjsGJFCrLUhJMGnjW0d2GPuYRjCDS85XuGAUoJnA6ANcB6WXo57/vQEWrpC6OzhXrt0nXirO915xpibzYrdzo3MvShSW8nTygETHOgohGjKjby2ojhWG/nt/q4GFIC8TADi0cxAWUA0jkHLmS/6ZIkBIHmmdDitH3al7rphnPPkIolFO+Pci9HSqTtskzeFJ03dlbb2Dny0+FNMmLErBo3M3kIAwpTtIhMD8pnhGzvynCfKNsq6TgRCwO77HY7hLBXPftOty9bK3r5a4WfqvQKk5ZXgfx58EA0NLQgEQugKQoJcO4I9aOvoQnNbBzbVNuAP99yH4uqJGJSch73mHoqG+gaxiNggZ2npPu8OobUTOO3Hl2JYBheMdkxjtVxY6mdiAUouRE7pGFx/629Qw0VjMIAgeYQLLCMdpTX1tsSiRUtgF9DW3o3NdW148tlXMG3WHthYW49OxvOFuTUSgtuRjW4HDoBIGq4FIA7Q8EWjFklqJdT+64Cw28okyiDmypi/SZQsRBbeLrgvgoj6rHclVKMUw0pFB1KUbk83mtvaceARx+pqm0I86nl9XssWzSUYmlKE9NwizJg9C7vssSem7bwHcismCKgRV0dKKYYyyySiBHg/v+UolHgsIBSyDDL6zimnYxgD7kSQu/NmC/vwd4tBQT5x1l6oawmio5tpr5oOSRMdn8VRUjFuRbppBZg491gJsDuohzWrhleL0eTpzbudf7dlWWfGHDCWg1k7YeUqgW5edVZWXOU+Eznlk/HBpyul/yyMZA8RbFE+T1FCBnQI4znndgUmRCl04glwt3/9nfM3VqxZj+yyyRiUwloDJfgvACExRWfBeGKNbrxPP/8SIxiDJNsBGKAuwMMBIGIJIXAux90PPC6p0qS7nu6AgGWZX865AzDsPdvyM7pd1PViwIfxv1uzOL/rzbMf/fJeLOBh78f6O//73xQAwtV8MBSSfXdKq8ZLtWUN9LYK0gCOGDKUlpLU/ArMf+QJ1LV3ojEQlGJmLW1daGgO4I/3P4LRE2di0IgssTJophtlmCsLrExz5SfBhx6sJ7J0eTQA0TnjIirU3S6g9/lX/on0/FFS5JDyRIB6jH5H6ABR+IxDomUuHwnp+dh9rwNx1z0PYd2GRtQ2dGBjbTte/cf7OOeCyzBuyk4YJjF1hRiUViZVlp/9y0vo7OiQmDOhO+EPJjEEJS7p9Tc/QGpepca79QtCzNgby8iQ1EIk5ZRg9h774bG/vIja1nY0tLWLlbu9KwgebZ1BcCuGlkA36ps7sXJtHS6/6maMnbwrhqeUYGhSMU4/+yI0tDQJbLHcaqnbtn7UPAAARFVPZB0QdxUawydnFGZ8FhCPySMAiFk9bx8AwmHTfzREWQDS3tGBc87/iQRjRhBaf8TIksKSWcLYBAUhLJo1NDlLgyGpNOk+SGQeNsuKq2CVcxJVf66YrQAgDS3tGDd1Bw3cDCP1aIYtFrOdgJC0Etx214NoDABtIaCtG+jg/g6SFklhbtxJ4aBMTVO09UZcBM8MArWg6HfsWPduOff2n0cHFPrNrQH84KwLMCgxxytUFLZ+WABiBVKRANTjTjkbazY2oT0IdHRpeWjG3YSLMImv35rcjfXD3NNYAC9gz1M8kf2KvO/fd36Hyuu/AMTQdkox0h0LCLW6jhHHz4q0ENo7O3Dr7X/AEAaTstYL+S4CfBgLiAEgQ1JKMG2n/bD40xXo6AghxN2PQ1w9KrDw2kgw4oIP+Q6toH4g9RsOQF7cThYQcV8ZebBu4yaMmTQDQ8X1Eh/4CIMI7tOTkY/pc/bC8T84C2ecfym+fcqZmDxzd4xkejRBqMhNFimjJdcFNVaWeTJA5Sj7oNaA9LxyfBoTgDD+p00ynlhCfvz0OVLHRABIf/I+6nMJhqeMTirA4IQ8DE0qwIiUIgxPLsSwZH0PtsOYRsz3IG1zYZhSjPFTdsO6tZuFbgnqrNUZ3R0CQrgY3PvAI7XGSrwARHSKBWp0W+fKBp0VE2bg0GNOwAU/+zluuv1O3HbnH3HtLbfj4iuuw3e+ezam7LA3UnOqMTS5GEMZT5JciiHJpUjLrcZ7H36IYA+dN2qztMDDtlYSuu0AAhCWYifK40t9NQBEXoTKrttYQLIrtswi4bsZnbWAWABifL1GqXZ2BfHI409huGzR7JgMLQCIIrxIkGIYwlpC0koxhJYOgg0BHMw20VWcZp0w6tpBrH092/5+ShHitYA0NLchp7hKAIiAI3l+b6YdmlYmKwZWJByeUYoZcw7AGRdcgRtvn48/PvwMHnnqRSx46jnxy//5qWfA49Enn5b2z2yffBqPP/MXvPjKa3jvw8X4/MvVYnIM20Uc90ZkMKdLqvbcU/YMoNpj7hG6EqYQinC/WBpUaxsFAM2OZO7q8bNx+tmX4MZb78Jd8xfg0Seex+NPv4jHnn4Bjz/9Ah57itfmeOo5PMZ3e+IZvPDya3jr3YX4YuVaMZfGUkiW4Wxre25bgmgLUlas/q8FxNK464KxAETHTL3KFGstbW244JLLMDgp23MbEoAIQHdb5R0bPJ1XMgHHnXA6rrn+Ntwz/yE8+MjjeOSxp/HYU38xc/0cnnjGm/c/P/kXPPnsi3jh5dfx9zffw8LFn6K2sVXcdUHZI1vtfXaObWvnOLK1n8ZqI7/d39VAWkAEgBiwR5ocqP8swCbIrm9swr4HHymxH9YFEJcFgfzKLT2YwcQKx6m0dOZjeFoxhpmMNma1hcGKVOA0fB4hy+x3LH0QfHBDyhKk51Xg0+Wfh/nRG3tV9N3dHejq7kBndw/uf+Qp5JZNNFknlMsu2LG/Ed0a8CPf5e97C0sq7iEMlE4qxmBJEy+QVqygzM5LzhbLydCUKtzwq7vQ1kowFNL0b7EsdwI9mpr85rsLkcpN8wSAGL1heSIWKJG+0PpdoCEFUvCNWWDMFuRY52JYWj6GpRdKXaWhDF5lXR3yW0IRhqQw+JsbCpbKve+c/H3UNzWGQUg0tXtj650NMAAxAywAhKjKCwj0zONWCevkbZ0FRA2fIsQFgPTgXLpgshmpbPsQTQj+171dMKw0EDl0NtxMLCHdIWzYtAlJ2brTqxKh3Q7Z/zciQYgFLfwbCy7M36UUi+uFoEQmOpqA+no3ywxbCEDyShk/4bnEes0TXWjOs2kW5T4Mw9JLxUebkF0BPcqRlF2OpCweZXrwWu7pdfL/bU/NIyW3HBkFldhht/3w06tvxAuvvY01Nc3iGmGlS/qPNdjMI1S5jrKEMCB47uHfVmARDj6NYXGzAimpAEOTCzEyvRQJGeyX118G5fFIyipFMo9s02aVyr2U7DKk5JQhVfpfhWk77YXTf3wJHn7iBXz6+Wpx6TCgjP2XuCGJkTEWHuMuVOjhD0AYTCmCSPraPy39J8eA9AVALrz0cgNAKF+MgLe84tOy8NSQlGKMSC/DyIxyJGZVyMZryVk639yEzc69tt51Sk45UnMr5MgoqELlhFn41iln4a77H8OHn7IuiMY5SMqkKAdnwRIlR6Llinft0HmYxmPf+6YAEAuyOzo7ccY555sFQv90HZaXInc4v5xnWjfsfBsd4vKJUfDh2BL3s/C5ASCmoKAHQP5l3MjkS/cf9YBa32gBZ8D7YcechITMMk9283fDz+/j3IIA0qdYXxhPwgxDutqt67AIg5P0EJe4yRbi9wrKZ2LhwsUISrCn0hj71iOVcUJy/8cX/lQ2wGOgqQAR6ZfRMfb33dbqEy7cwos3Vj8lSDJu+XDVVFrmbT8jF8lcLBOEZBWOxvMvvYSgiQWJ1KLuuHrnAwhAxuhmdPLS+RjEALEwAPFRCkapbT0AUTaUFXN391cGQGj+YlTy4cd8R+IKwgFJMrF9EGCcRErwwXgLHoNGsJ6FE7BlCcbvWWY8CRbisYBQODS1BjBx5i7GnWSAhjzbMvj2a6XSaqoGmiXkVCKnYhKOPuUsLFy6Ci2d9LdDy5sTjPCfbcMCQgvxcB8IZjq4DOQLomLFIm3Dfa6+GJiWnFuF7JKxOOjwY/HWex9KNgXjU6y5VE2mmjWjdV90nck5+NJaQFjq+b8AxJTF0ahIibWR+VYLCAVue2cnbvnt7zFM6nfYstuOkBUeMYrGnFNw+h9u2em+zrny4+KgRPYlGZ5eLtV8M4snYOIO+2HBM69jQ22jZE2JgnBckB7IiBbH7rUnkOM5+6YBEILxx554EsncvZjxE5Qx4vKNV15aOdTP960M9JOPYbqw1g9WvC1FWl4lliyPBUA4G5wn/T9rc9B6O3rybI05iRt82EUn2ygAIiDEWOtoCeEh9Oq8Ky0PqZU46btnoba+zkAOC0JkWSyF8DbVbMaUmTtp+QG6++07u6DDPZfP+TtuDCDnhvcM2DDP0NLtTp8EmNi+kj+4oKvEHvsegI21m8UKQujWH5UPAADhjwC5RRaAkFiiAYglIKe1ACRvyzajU9HNX4wEIAxCHbE9LSBWqNC/1R3Cw48+iuS8Ko+h+iT+yImLiZglMMq4sRJYgrgMI7NMARwSTphgfJ5nfz9uANKD1kAnDjn6BN3SWer687nOHG3vc/aZwaNSPrkQI7IqUDR2Fs646Cp8ubEJgaCmqPWyhohI0PiNex96Uk2iYgHRSqZf6TuI2bcILJo0PK0AWYVV2Gvu4fhk+Zeyw6/EuUidExeAEHqoFYQAJKd0MgYZADJEdnX1mV8foZpVMg4fx5sFc9RXmQUzGoNStqYQWZUvAKGzQ1d7XOmF8P6iJRiZYarWSkVLDSjUVZ8KxbDwNQJ0W65FIXDzwRR1mdrKqmwJRtKLJmDX/Y7GY395DY2t7VIxORwsGCGCXXHsnscDO7zvDDgA2Q5ZMJa+rRVkw8ZN2G3vuVqNlnzvQ8/b956Vn1sKQLxxZwxbeyCARx57Siy4uujp510cuWyt5REWkDAAUfe7BcoRsl7kZCnSC8bjsSefRIdkc6lytwCXV8FQEIs/+RhjJ003CzJr8XEAelwAJNLSEdEXn3mz/DE8rQKZ+ZW493/uQ3sn03m3OwAhEIgCIOEYENcCEqXULPplqVrZDffeGCYwO/meyVrPogFISCwg2xWA8D0JQqQNoa6+DtNmz8HwTApai2wN0vWZpH6ZyxIqFVqSmsFm7X4IzrvsVxiRxTLAhohigRD791sAQJjD/bt7H5LcfBbtEpdQn32PmsdtASjifjKAR6qV2tVsERJzqzF778Ow+LM1CHRZS4KuRCxFULAxe+WDT1Ygr3KqACctLmSeGe6bFRAD2HfZwEnN+rS+hAue0YeakIORGSWoGDcDDz/2DJpb2wWwsuorrXV+FpCBAyAen6jgd9Nwj9Yy2HZcHHpxXWwR51udhksAYqvp2vG3CiBGa4JQafXQfUh0qDjfJklWQAgDnetb2rHz3gdhcKpXT8JmNUg7AKAjGrBQyNItKu7RVAbfEfQoKGHLOCluNvnLX/0OzW0B8dVHil8XcESfe1Qdz9k3EYDQDfPwgj8jkXF6pD0rZ4QOrYJ07tvPY7WWfmN93uu+pTsXgJTFYQFxZ0TjQpjWfu/9DyG3bJzZkM2R+7ZfMdtYFhCv2rTG/zlAWhafRRiSXo19DzwCG2hhEE3EviktkdYY2B/oDODFl19C9fip6pq2vBBewNpxsC3H3McCYt1C/Hue9xpPYymhvueRwI3oaAUpx5w998GGms0R1VCjpbcd1W20gMQCIBT20W4XQ1yOb4mEuHUAhELJCNseLWzFGJCBASBcbbkCInKS+ZkFIX9asABp+awYypW8sz8Kr0XQx8lQJiiViozxGCNS8zF1hz3w+luL8Lc3FiO9aLwIOwEhAwVAuN9AqBsb6pqx896HSkwHg0wpWNU8GoPo/Ahxq+75AQIzXlLCuBTjZu6BJf9aqxtPSQyFJVu2qpZqmzvxw/OvQEJ2pVpC2BcBuHx+nOO/ld+zgMdTfgwmVrqnRaRq/Ez8+ann0d7B1OMe9DBaWjSskK+8w8BYQBgWSZrtC4Acs9UA5Nqb70BbJ/mC/9nEa/K+/UU9I19oKXYCELOXkABnzoMVeD6t+Q6DUOU3BKj5AxC+ZXswhN//8SEk5ZRL+rXOg1pB/HnE5zf76o/PZxZwEGy4h8Rq0acvQroYueVTcO3Nv0drICAzohTryhO/c5eu+z8fKACSlF2BF19+Vdyd3kwqbQ7U/+1z6YahFWTfAw+XGDLhUZF7Gj8n82ZpJabyNvxs+dvIWc4/+X/8rL013dVX9loa2FYAogtRBkPfNf8B5JSzfAKfbWUXAYY9N8Ak4n1iAxC7gSJbF9wK7xjXVWZhNa6/5SZTzcalFYEgstdMa3srnnn+OUzZYTeMZE0pLmhT9Zma7EAZaa0cRl66etmCCkPT6pIx72TeM6wnaLEVowNln57nlY7FL2+4yUgKT5u6vbXn2wGA8MUiOyvX4ZcyiMkweXJuNW65oz8LCLtr/7MkTaHHFR4BSJexgFT17aawROK0vYNQLQCxQ+Tf0hpS31iPw+cdjYRM+vAKMSS9VA7xc1omcX4rTKTuPabnGt/y0NQiJKQXYPL0HfHeh5+gtbMHn3y+DrkVU5Qg7U607t/bc4fI44sBYaAktzTvwZsffILqyTthZGalRGWTkIaaaGcRvGGBHDWv9re3qo0GIM4qQhB5AZLyqnHiaeeDJYdZi4OuGCu+SQW8xxS0dbVtmHvkSeKflzGmIJPxH8j+xn6Wv39U3TKz5uyPtRvrVchLUEMkJQ8YACFAcyCBnrsWkGPF0hV2Tzn0IgLT79pYQLYUgKTmOdH4olTsCtcI516/pff7y4LRgECu9HpkR9pzL74SKXkVGJFB64Qp7S3Kpz/waZXRlrWWFyJaC0isRSS1FDmlE/HOB4vCa1SPai31Rrf+MibW3YEBIEUSsPjXl19R3jK0Y6XsQLfcN6kzGMTSZcsxasJ0XaAaAMIaGVInoxetRNEL5Qz5WjLemH7LLI1CMJX2gp9ejXc//gLD0lUW95a1dq63BYBwRuzc9aAtEMCCx5/GuBm764KTmTlSrMyRFb60bvogIN0AdbNRXBiEJHHfLWYfapAqxycpuwzTZu+Gv7z4gu4PoxrQ/F8XxlKlt6dLNol798OPsfNeB0nsDceJNVhoqWCcydBku9iMAiACRIyOjtbZ9przQLBhAIcFI8ySScsfjb0POg7vfvjpvwOAsOMGgNjOxmpNYFi8AMRbbXliVhg0wgKytQBkH6mOycljqp8SWSz21/vijunpxoZNG7DDzrtiBPdRofBzXQu+SNwhTlG0ZsO0lCIkZpdj4vSdsGLVenR06R436+vaMHnH/QRhh1NlOabRSt8h9HgAiPZfa3HQlfH+x5+jqGoGRqQxGJJ7BZj0MDNPVuj2+t3ofgzYdSEGjcyVTJu3Fn4aXqVZ9g+3Pazn0YON9QHsNvdoDE2n6d/E0VjaG7A++Yx7H8/mhnzMsLj5t3cJUKIVZLtZQGIBEPSAJuND5x2re3FYBe3QS+w51UqoWw5Aqk2wnQs87Hn0qtDe5264XiVUoqkwiHJiQGz9GMaCNLV14KzzLgazUxIyWbyPsocR/S649Zszq4wGthVBbKoGH3viDyRehWrBU1qxzvuWNdGfDhwAqcJfX/5bBADhmA/0f3wmAUhXVwht7e34dNkyVI2donUrWBMjvVQD+n0BiKUPO4/cLJLKLwcJGYUCZh578hm0tgfQ0tGNCTN38yyhEbxp53pbAUjkbDAwdUNNA/Y74nikFo7F8MwKDJYdwZUWZTEq72Xpnu8TDUCiN1A0FrWRrA3FBWopUvOrcchR38G/vlwjluvIXpDCvBAB8ghLyAe6QlJl+9yf/Ax5pdUYwQ0YE3kUyUJzCBeWIiMdF0w8AMTKVSbQdRcjAAAgAElEQVRIJHOTVW46Wo2y0dPw0J+fQ21TUDMCjV3WUn10n3k9gBaQ0RgitSwsenJfyt5z2gECILKnSHcILMW+NS4Yuj0m77hlAMSCD9uuWPkl9jvwYKTmlUtJXDHJuWa5CEawjMSWmScs9FWK1IIx+PGlv8TmumbZkI7pqKzUWd/ajdPOvVwAh5gp7VbiEc80Kz6jVOIFIAyQZPogI/cDwW68/tYS5JZN1ZokCdwNNjIwSgWs2//teM53YWGejDJceMX1su+BOvxU/ApRS/0QDVSli+DzNbXYed95GOxWkfUDaxFjF8c7bO0zkgowPLUQe+x7CFraWJI+FgCZhEHJ5QL6hhgXTthSYQFDuLX9LURWsQ1CpQuG7GyVtm2V5bUUOwEIawvQRcTDtTjZZ0a3jEXKBwFIq7hg+AvqgqHI09/0fpdC8O77HkJqXrX6n4UerQLpv/UDIJxnG4DKxYEIVykkpgGpLAH9o4sux7A0Ag9bC2bLAIgHrq2Sim65qtZMhT5dSaQTU9Mno3AMVq5Zb6wgVgTHanWe4v2/xwHcC6YOY6fuqMUEJZCcMsUchs79LHSc/8ScKrz0FQAQAhoCEB6hUDeCwSAWfvgRdth1L6krJBYNocd+aITfScyXPWXScstw3InfxyfLVyAY7ERPdyc6ukI449xLMZxlycP8YmRj2Io7sACEOoBguC3YjVffWYJd9j8KyfmjMDK7QmSXWnYs+GAbPwBhLEhiTjUm7bg3nn3pNbBuk65hem9foQBEt8bguV1Ks9YSXZaLPl2GI449XlJlR6aXY3hqmSw01YphQLuAD+NScUBG2IPB8Tf3Ja09Q7PBpu8yF08+96pYemmRlqKOrDD8VQAQwV49QHHZGCRnlCIxoxQjM4qQkEFkxLYEIzLLhShIGO45S6dnFI3Fbb//o7Pa8WdDK1J7teIvDuHiy65GWuEYQaAM2uRBNGrP7TV/k8eITG3JhDN2nRu2gKiwU7Hn3xNzV1ac6sZgmiX3dbn5tt+idPRUqYtBxal+TSvUPZDA+yTMYellSMqtxndOPQdvL/xEJo7pp8FQjxy0TLR09GD+w08hMbNExnREWiFGZhTLub03MrMMI7LKJSCWLTcnWr9hvbhY7DtYsBS+NsK8M9SF1o4AHn3qGUzfeV8MSy1T4EFLlgMorRDr1TpZCNaPy1bORQA6QFSu7Xj009oVenIhdtzncLR1mX0gCDpI2KaENqtUdgRDWPb5Chx+zAkYllai/k6CEDK7329aRhMhZfvh9NN+blsxNTqfS+YLg8Rs6qae9/otFvhJykPVuGlYt2GzLwBZtXYDiqumICFjlPBOUjrntggJmcXewfm213LOgnBlKKyYhCXLuBdM3wCkta0N8475FpIyCgxPFiExq0TqGSRklSMhs1xqoiRmloMH66OQphKyyoTubrj19yYGhNRjLYQujyhX8s78B/6EnKJR8nz9jRIkZJViZFa58B33QuKmgDx4rrzIthz5ZWPEXmCDUBVwUsKoOBXBytilnh50hkLYVFOD7//wTGQU0M+dq6mRNvbMzl30HEcrpjD90kdu6dbSDVuCcCo0u0qNBifOtRXaycVIzKrEk395WQAT36Dvw3JlfK0FIHzqhpo6TJqxE5IyOadKJ2zlMDLDygnWr2BMAGUwxz29cCxe/htdMPxdT7IOtAWEzyP4lgq0IQZj9wgYWbt+PVi7Ijm3EgnZVaqwJVbBi+excyJu6vQyiR/Z5+Bj8OyLr6KpLSjxYSxJzoJcXaEQ5j/4Z7GI2XeWNrPUyMYKDMuswHDqhuwqjMipRnbxaCz9/It+9U+smaFc5UKOKfdU9s1B4OV/foAzz78MRdWTxT04NJ0uJqbS2h2AS3TzuFRNBWa8FBdNQ9LKpPzC8IxypOWPwqHHnIQ/P/0sGluaTPExBR6yVUGYpryeeSBEzuQbbrFE9u+9Rctx5TW/xvhpc0Q3s6gbLYfiwpTgei46NAlC5Zue071C2To8rVTq6EyatSd+dvXNeO2tRWgKeJWkdfNGrYPk8a9Sv9dT72yrLSB8BEmWkf00QzW1tMnWvpvrG7G5rskcjaipa0RtXZ0oaCppHjW1NeFrZpM0NTcZP5bXsegzjz1cVrHn3UJ83NitvqEeDc5RX18PHu69XueNDSog6M5R9dZvf6L7ZwmxoakJC554Gsd/70zM3n1/FFdPwoi0fAxJypY2s7AKU2bvjuNOPh1XXncLPqNJjcWrzC8yfY+IWgpamfUmrRN1ja3YWNuAmvpmbK5vkrFmJdDNdRzj+ojx5BgHOgJR72BMdCaduKu7C8HuIOqaG3HepT/DiIwCWbWqlcOYACUvXauHDhZlSqRMsyAPXW2SWIdIoSdmhUQe/Ey/n6/lhRMLtMiNHyjodU8zHBifkF40Di2dHgAhSJPt0XuA1kAQf7z/IWQXlDugx6w0ZNWjAIOBavSBDmGfWOrYWJKU2SzTaSsmfDHlm/eUdzUAMoHZXRq3Y4WjtL6uKj4vHzkl1Viy/HOZY2EbI+FJvc2tbahrbEZtI/eFaJGDc23P2fa6biCdN6ChsVFq0sQGIB7XMOCYvEh6CdOPQze1teTNOtRF8SrrDvC3SJe9lWg0Fyg4qG9qxca6Rjk21TUJ3W6qq8Xm2lrU1NXJwXP3sPf5RAEgEasnBSCEPgTlHaEe/P3NtzFx2g4YlqI7rLrWD861gEGZY2ZXsaw1D1MegDWKeKQWYHAaj8LIg/dFWRB0lGMwU6QFhMRhBTF0wHiq3/xhPshnvccteix7j2Nfdyij+EzKHMZVNLWSXpqwqa4Bm+oaZUMzbmrGQ+bb3NtcWyeyV+VvDWrqatAeaDdyQmlle4AP+0yxANoLC0q6e2SvmOtu+g3mHnYcJkzfRVJch6XkYnhKLkamF6By3HTsdcA8XHTZNXj1n+9JFWXKAC5CeJjcbWloOY7mmTrLLw2NaGhoEHomTQsPNTSiK0TVLNosSmb2NQveZ5wH76oHwW4eQG1jC5576TVccc1NOHje8VK4MK9iAkZklWIYXYaZpRiWVYas8gmYusu+OObk03DldTfjT489hfWba6Tkenc3+xZJL5ar3d90zwk/eK1/ZS0R2jLmL2C2oPhg8ae46bd34ntnno89D5yHyvEzkV5QiaHJORiemo/knFJkFlWjfOx07HfocTjrgsvxh/mPYPHyL7m1qBzsHbWm1cR9t24v9XybAIi8pK2PsQ2tDlXvzrl34nlF+b5bRTN8bkxWJJTwPQ3Qk0Jmsv82h87FbO6v93+uKFi3jCZBEwA0t7aguaVFWq5CW9vbxAdKpm/vCICpaVqsSlE0/y6SmMlgKmhsD+w1Vy32sO8gbZhY7V/0bvkM5ozXNNTjqG+fgOHpeRiaYaL7ZcVnU8JKpPjS4MR8jEgtxMTpczBzl/0wccZuKB01FRn5VbIfw9CkXNlAaVhyHoan8LsFcvCanw3mXi3crdKAlv4DRNWEbhU8rUmbG1lyWGeIQoYHC6nd/vt7kJyRjyFp5RgkSsKuXj3gQRAkQKB0HHbf/whMnrUHSqqnSP9Z5ZLMNpR7IdgjKRdD5MjBkCQeuRAAZkGSuEm0QJztYyQIMQpQrDj5yCiswF9ffV2oy5G/wrQ6hxYcenNq57a/lryjooDz3BeXRD/b/mY8reXQSEFoRVx0G9+3ov9Kr9038J6jKzoKurZgCM+++DKKykdhsJTo7p1tx9WypJWnaKG7Ofsfjulz9vl/7V0LdB7Fdfb7KUuWLetlyZJsy1jGNuZhcGPiUCguKZAQNyGGNKEkQKCUcCjn0NIkTfM8adIcKKUlJCWEpg4JBCdumgMl5wTSJCUpBIMBI78tI1uW9db/funr+e7s7M6ufv3/6pdk+z9a66xn9t/Z2dnZO/d+c+fOvWhYcz7Kly7HvIqlmLOoBrPLqzFzYSWml1ZgWsliSZmfMn8RZpVT3UyQTU3gMkyZRyDiE4CU1IlB9xe/+uCEABBnROtvp/iO8AZlDaD+z8WTbT7BXnb+TPqcyDxXI6kRIX2nUinxrxGJxhBmILRwBIOhsKTMcwmRaTyRRJKxfDhhszwOq1VND23r69ayj17+GSnVI8fphcJyinYpY9JIpdjWJCLxBMKxlNin9IZi6A/HJNhbfzQKdUQwEOURRjgeQTQZRTgasuK9cNecqm/4aPHXRjWGHMmmPPZmkGSgwExGlt5pO9MXTqA3FEf3QAw9gzHJ90WS6I+k0BtOoD+SlE0RjAxM0wBTUjKfm/fo68PbPGYAMrzKiflFv8LEpma3ju49OPgVkXBwKOPObDWI8E8lbWAxHHRku0v9xntHU95bkzAoiykNhsO4/c67MXN+hTjR0mpAMZDSFtmiAanB3IV1WFK7Em8fbEdnTxg9/VF09YZxqieEzu5BnOwelFTOewbRaf1+8MhxPPv8i/jCV76BdRdtwewyGj2Z6/SWoNaC3U6VtoFCnRoQOig73hUSAEIQQvARisaxc9fPsKS2CVMJPkq5HZoghELCrJfW39VYUr8a33riKfSEUugZiONUbxgdXf042TWADjn6cbKbs3Ue6p1OnOrHSy+/jseeeBKX/fF1smShNScEUaKitNT2IwKQBVUoq2nErmf/W2YKXqauBq73S/mnclWS8xDWke8+4zkGgM0HctwiStO5SrWyV826nDMxFmXAQX3Yyyh6OSVbquoke+NYcv5YNoPkUAbHTnSioXkNppfQS7ClkXMtq1iaqvlqa+Ytn7ofXaEEukMRnBoI4WTfADp6+9XR04cTxtHR24djnV343Wt7sOOZXXjf9TehvHa1BTy4a2B0AORzX/7HCQYg/J4ahLi/y3CBleu6Qxde+pzIc6HXYRNCa2JoPVhoM8O2czKmlm5oRyLLONa5mlQ6tF9Ym50+KDSnWmDJEIawl6jfKTXp5eJlWmvDkhJlN52OYAgxZIbiSGYS4tuDI1l0HjIpngAAQv5vSSpqNVO0y2E/6um3LG0rFw36d5ahVp5HIpVS7uCNepz+cr5Bdl7klNS5AIC42LYGILp7RpeaAl7yViwQXYu+bp7rvN9U15Ev9dbH8uKVU5bMknj597tRXdeMGYw3wPXtkiblPEqDD4vZcnmFAOTzX3lAosem0nSRrgw/ud6njKKUFlTbWGrVaJq2LMk0wtE4DrZ14JoPfgxTdfRKERomUDDzSgNC8EHBPqdiOQbjVrRSS/vR1n4CF23aoizKS9l2OjjiWr1HAzK/BjNLa3DV+7ejJ5QUY1ZTfavb6k1V5Fu+awaxRApdfSHcdtd9mL2Q3jAVyBHQkQuA8B1LKlFe14T/e31PDgDCgWv+5RvIznWV8wtAvM/hM526cud1+zT7UqkDErKfu4GE+95sQtKcW5l1M987OICrr/sQpsxdZIEP/a0temF/z6u2HcOV163BvmPdYt9F1i9LOOBavdolICnz1sFInolMCvF0EpEklydjeHzHj1FS0eSOzWQbNBr2H9ZvXMIUt9SLmvCNhx4tAgCiv6tKCxPehd0l9JYVgDj1kadQc2FrOuhPR+5x061zh/G7ZfOt+dJIqbrX3Q+FnKknKxnCpZN0OolMOgFkGDQuKenQEMFHkhZ48pcaIk9KiP8OpvFUXGyeBIRbJgGsS8I52NCB48jfX/YR54yyNJcIaUND2MO2JWNIJWOqvRLwLqmuS57vFEc6nfBo6nVbjL4fxld0GXcaABAXCybx5GbDI11nt3pBAQU+f+c98mdpH2QAWb+NVJ/+3brTroPPcNWp6zZSfa9OWV4bShHV9g+G8IEP3YBZJdUS42IKQ5drz5U2AFFbtLj0wKBdP33ul4hrC2caXBE5S2hopf6038malZjqTgrzSAJ48JEnMI1Ggpy5Dpu1GkJEX6MhYUktVl94GaIpBXa0BuSf/uVRLKyygg9K6HVrdkpDQH0/7VMYr6W0Bnf+1adhqw9txqR618u8ONPi7IB9xS+obQ9e33sIZdUrxUiLVuB+AMjUkkosW7UWbSc6hi3B8LmFURvv021nDdkY0ljqznavfqK/1A0e/N2jS+m3o/aEb6Z8G6Tx8u7XUFrJiNcEGlr4u783tV/UTNFId/2mrRhIQgU5tL6j6F2oIqeA4KE1NJKm1O9D/J3fHzh09CSqG1rEwFXZR+nnZk/FgdQCGuo1YcdTP5ZdZtmAlvs3/eaFplrMFHq/c585FiY6L5RLQKHHARGC558qwx00BB6eiyOcOvW5J0bDAIj1XKca+07dogJTW58gyzFDQ0rIE4wobsLRYVIAzxU8HhL9B/PWZHhI5c3STt75bn5yMpYs+aHLZ9g2gguZHnGRU+lg+Bs1OMrA17yu26NrMFMv3zCvZc8HAMQh/wKJbbyIdmLrEQ2I7CAA9h9uw9LlLQoMyHLFCMyUs7p59GXRiB/+5Oe2AKchIHci8FBqOhKXRXwEIC4QMiRLJn3hFO792y+LLYWyAckCOAzgICBlTqV4Gbzlrr9RfjTE6GxIPIvecNNtsh1P6iJQMQ+jHnGVPr8a22++U7QoiYw2ZtUzKaIRNwviQOWM2Ty4vWzXsy+iZMlyEXDUgrgAiMsI1dLmzKP2pRobN1+G3gGu61r2ctbj7D7Tfec7zT6Yh//qZQiFng+v+XT8QhAgoB4ZJFIJfPu73xPwZ3txFNo1AYi2y1EgZPnazeiPAwmhV8VaBVSyXmonzYNgRw4yXh4ZcGL46qutKK9txtRS65vm0H5Q+8ZlGmpA6Bfhjb2tE7ILZiL73jUYnGER5KQHCh+x5shzfz8Himi9RLbUAR1OeXc9hZ2pZw1/L/N57vYU9pyR7goAiCM6fbN/k5iKJa9m9cqA6NU3WiVo2lTtD8Jm5G4gwtkcZ5QzS+tw1XUfRfupsDWbJDM3AYinFywQQq0IZy6DkQSe+8VLaGzZqLZK2rtKcoAQARTVsk35qV3PiW8UmQVl0rIf/tI/er+9k8W2BfBqVlgHnzW3Cs3nbcae/e0I69002lDNUueaHNYEIEkMIZJMYO+BI2jZQIdzagnGBUBc4INCiP1II8YazCtfilvvuBvxJIWpA0CGD3lPH+akxpGGs/f30dQ5Ullvnaf3nEZzfCINuO+696+treFW/xpAU2u9uL2dwJDfvKSyGc/87AWEE7Qf4VZBgmFrzVuM+6jaN8CIDULS4qvinWMn8fFb7xZvm2K7lAOsC/iQ2DA03K7HBZsuE0Nz71zXZOxO/vT2aa6nKSowR0OQd3pgbKPWGWGOhsQt3Ef3e67vWCzXAgAyWQCIKP/ULPCVPa1YVEtnURoAjDS7U0J0RqnyMvmRT3wKb+0/gpM9vRiMRhGlVTpnitqASQzFIJbq0Vgc/QODOHykDf/8yGNoarkIM7i1UdTnXIbRzx4hLanF7MVNqF15vhiL0vBUrObTCdniveny6yyvu9ZWXy/4EOHE7bLcf79UfE6sWLsJv375DZzo7MZgSFnV0zujAAOLy5DFcFt0JJFAXziMd0524Ic7d6LlvIsxu4y7g/Qs21qCscGH9gniTpcuX4vfv648uernjJ2N+WUvDssr/Jl+nzUx5fSS42AkjJtvv9NaehmBZvjNrdAG/OY0GF60tBlPPPk0jp3oQO9gCKFoDAm9k0Jr66jNS6cQT8Rlx1pnVyd+v/s1bLniKsyv4A4YGk7zmRwnbpCuz7XtB2PD0BHb49/bkWXd3py9mvmJ6btCag0AiAM3hucKH0XukejimCb3HFW+kO97tt0TAJBJAkA4dPQK32t7D6CyfpUdG0QF8xoOQshUZTZpravPKK0Vp08bLrkU997/d/iv53+B1sPv4FRvCKf6wrKzhDtIfvvKHjzw0Ddx5Xvfh7rGVZhdWo3p9MUgBqgj238o4U4Brw56h/3Ojp1q9wsNXgl20gn0DkTwh9fcqAKeaUAjqVswie8PcbKjHO0wQBztQdZsuAQfvfmT+PcdT+ONtw+is3sAXX1hOfguR9s78e0ndmD7TZ/Aipb1mLVgsWzHnTKrwgZOuo3SZkuDxLwSUgqE0NHWx2+/B/2huPgtkTXonJoNN5samd35ZSN+68tVzu+zJqac0iAw7kYUdCktflxk94v7W2sNiOp/5UOGIIRuu2eUVKDpnHW49k+346FHHsNLr7yO4509OEWfOj3c8dSPt/Yfwg+e+Qk++Zd3Y90FF2NhVR1mLiStVmI6gyNaQFMDDtF42OCT40RFyp1VtgxN52xATx/j/+j1chNsZMtPTN8VUquihOGiN/iFPTDyiBzdtQCAaNoMAMi4EdV4EefE1MNaSfYEIUfbT6Chea3EU6BbbnrCo62ECFXTuycNLe1zJVRpRDptvnKHrFOCi3mLlmFWWS2mzascdnDnC41ZbTsN0U54BMg8ZTDKgHwzFtDbax22vm87BiI0DKTjMS5hMKIsfQbEcf3H/kIMZ8Xtve1fhALDAQHMO++knY2p9k+fX2m/B/PcIsxgT0z5DlPF9wf9f/Dglk9r+7AsDam2m32jn6vU/8q4d/3G9+DtA20CPuwdQ+PCxvTwzZeOji1mp7x8z5jY69oQlVsAv/+jXSAIVktu/Ab81h46GnaugC+/4dT56iDdTplTgRkLqlGypBGzZHt4hXzraaSLkipMozMyguYSBWbE3sfQfojGY0G9AA8uuTBeBzWFlXWr8Mtf/UoZuPpyQkZAcvb8BQAkF9TKPkJGP8oCAKIpPgAgkwSAiGGo5b68d2AQN950C6bMKhdGTFsQ8QhKzYMHcOQ+Nz2HGoagPurwCg5ZmpnL2WYV5i6sxaYtW3GorUPABzUf3EPPd1COeTL4+oOPYPYi+v6gnYolhGQZxgNApC0afORK9bvnKuO9pu+xBOG8GonIO31BnTg6e/4Xv0YsQRsDtYMnWILRbMd/6hiiAr/b/aYE5ZJYH3Tylm8ZT9NFtlTfq1O7jAY1bjpSYMdZfhHtoBU2XbQh82pR3bAaDz/yCBKpuLWbRvkvcWw9smk/AgCSS+SfXdcCAOJ/5PorGQCQSQRA1A6AIVkDf/m1tyTOB0NaT5lL1+R0aU0B6whVP3k9C2VZGwj4qEdrDOx7xNX7EkyfVyEhp19/a7/EwyH4GLJ3KygHRAxA2H6iExv+YKtyPiZaCXNpxxEe6p28wCHLueVGXmlM1HW7bbZwMu9z95MIw7nUfNSivHoFnv35LzEYZnwKGuIGAMQfO8peSkAIgJO9IZy/eavEMhF3+nSLPwxA5NOImNeNIGEezZlDnw4tmcsvZp5bsquXnYOvfv3riMWjSHMbr2zxTYkDtQCAnF0wovDWBAAk+wgt/NcAgEwWAEIjVGvbLNO+UAzbbrxF1si57KGs/FWsFhfw8KEVEUEtIEAxd9f9JqDRvjOGMXsVn4WBoy69/L3Y/WarMnBNKWc+dG3MQ2xA6A8gkxaDwUcffxKzF6/EtFKqwLkOr4WFKWR0m0zwkC1vAgrjumWP4gZnlo2BsUQlfTCnEo3nnI/de1oRjSXFiRmdsWkAcnptQEavGM7OXgtnLuN1pwYg9OPy0u59qFhGT6ikGUb31d9af3um1m8GTdq/6Wt2qu/jPca99nWzfkcDIlqPknpMmVONmoYWfOuxxxGK0Fuv2s6bohfMwAakcFl/1t6ZfZSMfrSNfRlmvMbXmawnACCTAICoIcN5mGUHMgQkUhkc7x7E5iuvU+vqjNdCTYgRTVQDCWHe1kxzmCAexqgpvE1hrhn8UitK7TLLeJRLJ/TAShfXtSirXoHb7roXbR2diCTjSAkjV9sk2Wq2XnxCWNsnme8bDOP+v/8aZpQ3qWjL5ayPAoPaEPPQQsQBFl6B5LyXU4aARqJECrDRtgB8N/WO4mOkhIaOdbLDZ9v2P8eBw22IxGJWQEHlQElvvx0/ADJ6djdebPP016PYI2mX7pAGYhn82/eexoKKOjAyNA2LCUBVmHMd6pxAwVgSzKkl0fTp0IiXNpTtEkG6cs6nnaDNWbQc6y+5Ai/+5hX0h6Lqm1sARHyKeNxNjawJOZMiwP3s/JR11iKDImiYOXo0Nx5LatZXnPkAgEwaAOLecU4tSCKdwuHjnbj93k9jbsVSzChj9FcG46IRnhK+wowZfI2HxD8xAYYS1l6G7QIgFN68Vwz4KCiM0OYltVhQ1YT3vv9D+PkLL6BvsB+JtLV+LvEf3MzRPCMkoY8IRpH95nd/gKoVGySyqR3xlIajEgWVWzOtQ4MrFzgxl26UEBKAIds51RZetbxSZe/OocqdBocMT11a2YR3X34VfvD0j3Cqu0u2c3LGro1mx8/uI79oKE4W5P+96JmU3ngHoimJMrpq7UWYXVZrGVGrb2VrwkT7QZod/n299Jr93FyescAM6Xj2Evn2K9dfin/9zlM4drIf0YT1vSX0gl+7D9MexKTsM5v39zWKQNaftU3Uo3QswEPfq+sq3jQAIJMYgKSGUkhm4ugKDeLxp3fi8mu3oaSqHjMX0h6kwto1wHV2aweIzPwNDYFxrpm41g7YIESWMKwZqQCBasyoaEDd6g342G134JldP0FvbxdSiTgyaS65MJCf0nbkY8XiwHgoKVEk/3f3HvzZHfegauU6zCznTHWJ7GIQICWh1QkujHeRXTlaQDlCSrVfgSxqP7hDSAMQnvOYu7gRtU3nYtuHP4In/mMH2o+3S3RhcXevvXdaaaD18CfS/LBQ7uBimHOCEIYU5xbq+z7zRaxYcyFKFtdjTlmNimhcwu/s2bmURVOnaTZbKtov2R1WLzvEZi2sR2nVcmy+/Bp84+HvYN+RTnFqxx1aQ1xjs2JlaFfbI2s7TOCh8/ko/fRd9/e1zlrpXgQN05SuQcRYUl1X8aYBAJnEAETFwUggjThiSKG9rx/PPPc8brz1DmzYfBkW16/EgqpGzCyj+plbGLn9tsY4aDPiPazrFNbza8SHwpxFy7CorhktF27CtR++Af/w0EPYd+QgQpFB2amvmMkAAAYrSURBVFbLfapDqQwydBCVdrQH+dguAUhGYkjGkUQMPdEofvPaXnzq/s/jXVdci+rGNSirWg4+n/4g2H5ZZpJtttwabBzme4hBrLpGW4O5ixpQVrMKjWsuxtXbbsRnPvcFvPS736JvoE92O+ilIUmlTXq5SMWvKF724E8cna73kzhAhlv1RBoIxVJoPdiGr3ztAVzzgeuxsuU8lFc3oKSiXny+2EDE1HqJVoSgM/tBmp5VvgylNatQ23wBLr1yGz559/14/sWXxOcNARDDEbA99ParwEdS0gCAFAEGOKNN1KNlLMBD36vrKt40ACCTFIAICdMTpIRJTzLahkQFTQAIJdM40duPX7/8Kr76wMO4ett2rL1wM1at24j6lWtR29SCqvpVWFy7HOXVTeLWfUldM6qWnYPaxhasPPdCrL1gM9Zv3IKt116P+z77JTz3wv+gvbMToVgEjADJJ0t0Ka5RWMeQ4R6dwjwfAGEdTvvjSIEhrdMS+6N7IIJ9h97Bo49/H9d+8CPY9J6tOPeCd6Fh1XrUNq5G9bJVqFi6AuXVjSivasDimiZU1jfLuy1buRYt512CDRdvwRV/sg133/dZPPPT5/DOiQ7xlEmvmTbosINKKTik57SS0m/JuPj9OLuAwJl6J9IshT41IXJYYIS/JdNDGAxH0d7Riad3/iduu/MevPuKq+WbN60+H/Ur1wl9ltc0oayqQRzqLa5dgSX1zahqOAcNq85D87qNWH/xFmx895W4+Y578OTOZ3HgWBe6BhKicdGgQ40dC3wIHacVCJFWaQrQ1KvPc6W67JlP/VHaGZXgRf5wPXo0iBhLqusq3jQAIJNARGjyzE7qbmWxzdx1XETaimSGEIrGcaqnD0eOtYuhZeuBQ3irdT/e2LsPb769H2/vP4T9h47g4JFjaO84ha7efoRjDDOthIV+tm6LEs0WL3F+lB/UqV9mTMau1t01BHBYvXo220C38d19fTj6TjsOHW3DwSNH0XrgIN5qZftbsXfffuw/dBiHjx5DW/txdHb3oD8UlvbTNTuXV5SGI3u7+Ez9Z+bNVwvy/sTbSP2kaShfKpoSLtWkuNsrIvR45Nhx7Dt4ROhV0yzp9+0DpNujaDvegZNdvRgIxxBLZmy61ePBfKbTPubMK8w7V5l3jy6HMt2/a8o586m3/dnPixwDnNHma/rw0k0h57qu4k0DAOJhGNkHXPF+YMUE1VuNlsRltmls3RVBLPEzPGyXSgyDFTv3uX9nGd2TfnjAeLBjh+WrZRHHsZW7diknxqMM1a4OtURlLafY8MJ9X/4z5531uwdp4X1i0pm3H81rVKopOtTRj21Fm1K4GfQqCjjjnPe56jLo1nymomHzl+F5N9BwqNH9e34qOl0l/H0ZP6M3KJO9BzSNeCmskHNdV/GmAQCxRWLxfsR8TEO/WSEkbt6j/YiIV1WDYZtlmHeVswN+OQKAy+Z+/o0X07XZPgGGtb2X2hJdv2hOrGvUdBCA5NN46Hvzp/m+TnBd0+dYUxcdagAiEXCpwaIfHAOM5KBfXU++9igazl3KDTRsSjQ0I/kp6HSW8EeNfkZvUCZ7D2h60VQ2llTXVbxpAEAmEQAhmfohd03OqqzD/pQ7d7JUVY8up1P53dKYjARSdNnsg9P5VZVznj2WnGL72TUgcs3YueLWejggZSzP1+8cpP7E21j6SdOm0oC4ne8RGFvmRkLD5nPs+0agbbOszvt5m7HRzem928/7qDLOOA1yhfQAKchLcYWca0os3jQAIJMAgHCIjJ5E3cyPNbj/vHWqqw5IMUu7y/oZsubd45dXICR/feMFPPI/KSjhtwfcNOSPnll3Ifflvyd/iYl68tlQr58RHJQZuQf0NywEdJj36HqKNw0AyISxqLOJKAphl7r9JsEz71dgBOWCHhj/HhgNJeunj+aeoKwe97nSkUVrcMVPD+i+9fLW0Z7reoo3DQBIAECy9oDDiL2DQrP1IA164PT3gEOXxct0i/8d/AjZoMzIPaBp18tbR3uu6yneNAAgWcVv8X7Q7Mwt+6+53tK5wzsoTr/QCZ4Y9IDuAYcuc1FvcG1i+2lk0Rpc8dMDmj69vHW057qe4k3/H6+O7Ydf+pGJAAAAAElFTkSuQmCC;" parent="1" vertex="1">
          <mxGeometry x="470" y="102" width="60" height="32.54" as="geometry" />
        </mxCell>
        <mxCell id="Tpr0nxzO7cocBPtCTJnX-1" value="&lt;font color=&quot;#ffffff&quot;&gt;726,094&lt;/font&gt;" style="shape=cylinder3;whiteSpace=wrap;html=1;boundedLbl=1;backgroundOutline=1;size=4;fillColor=#1C1C1C;strokeColor=#666666;gradientColor=#000000;" parent="1" vertex="1">
          <mxGeometry x="119" y="58" width="54" height="39" as="geometry" />
        </mxCell>
        <mxCell id="Tpr0nxzO7cocBPtCTJnX-4" value="&lt;font style=&quot;font-size: 14px;&quot;&gt;All HF Models&lt;/font&gt;" style="text;html=1;align=center;verticalAlign=middle;whiteSpace=wrap;rounded=0;" parent="1" vertex="1">
          <mxGeometry x="94" y="26" width="97" height="30" as="geometry" />
        </mxCell>
        <mxCell id="Tpr0nxzO7cocBPtCTJnX-8" value="388,444" style="shape=cylinder3;whiteSpace=wrap;html=1;boundedLbl=1;backgroundOutline=1;size=4;fillColor=#BFBFBF;strokeColor=#666666;gradientColor=#b3b3b3;" parent="1" vertex="1">
          <mxGeometry x="226" y="61.59" width="54" height="39" as="geometry" />
        </mxCell>
        <mxCell id="Tpr0nxzO7cocBPtCTJnX-12" value="Models with Pipeline Tags" style="text;html=1;align=center;verticalAlign=middle;whiteSpace=wrap;rounded=0;" parent="1" vertex="1">
          <mxGeometry x="219" y="21.5" width="77.5" height="44.5" as="geometry" />
        </mxCell>
        <mxCell id="Tpr0nxzO7cocBPtCTJnX-30" value="All models with associated GitHub" style="text;html=1;align=center;verticalAlign=middle;whiteSpace=wrap;rounded=0;" parent="1" vertex="1">
          <mxGeometry x="321" y="17.090000000000003" width="85.5" height="44.5" as="geometry" />
        </mxCell>
        <mxCell id="Tpr0nxzO7cocBPtCTJnX-37" value="" style="edgeStyle=elbowEdgeStyle;elbow=vertical;endArrow=classic;html=1;curved=0;rounded=0;endSize=8;startSize=8;" parent="1" edge="1">
          <mxGeometry width="50" height="50" relative="1" as="geometry">
            <mxPoint x="371" y="102" as="sourcePoint" />
            <mxPoint x="300" y="175" as="targetPoint" />
          </mxGeometry>
        </mxCell>
        <mxCell id="Tpr0nxzO7cocBPtCTJnX-38" value="32,149" style="shape=cylinder3;whiteSpace=wrap;html=1;boundedLbl=1;backgroundOutline=1;size=4;fillColor=#BFBFBF;strokeColor=#666666;gradientColor=#b3b3b3;" parent="1" vertex="1">
          <mxGeometry x="328" y="63" width="54" height="39" as="geometry" />
        </mxCell>
        <mxCell id="Tpr0nxzO7cocBPtCTJnX-39" value="22,245" style="shape=cylinder3;whiteSpace=wrap;html=1;boundedLbl=1;backgroundOutline=1;size=4;fillColor=#BFBFBF;strokeColor=#666666;gradientColor=#b3b3b3;" parent="1" vertex="1">
          <mxGeometry x="269" y="179" width="54" height="39" as="geometry" />
        </mxCell>
        <mxCell id="Tpr0nxzO7cocBPtCTJnX-40" value="NLP Models" style="text;html=1;align=center;verticalAlign=middle;whiteSpace=wrap;rounded=0;" parent="1" vertex="1">
          <mxGeometry x="72.5" y="185.13" width="85.5" height="26.75" as="geometry" />
        </mxCell>
        <mxCell id="Tpr0nxzO7cocBPtCTJnX-43" value="247,730" style="shape=cylinder3;whiteSpace=wrap;html=1;boundedLbl=1;backgroundOutline=1;size=4;fillColor=#BFBFBF;strokeColor=#666666;gradientColor=#b3b3b3;" parent="1" vertex="1">
          <mxGeometry x="166" y="179" width="54" height="39" as="geometry" />
        </mxCell>
        <mxCell id="Tpr0nxzO7cocBPtCTJnX-45" value="" style="endArrow=classic;html=1;rounded=0;endSize=6;startSize=6;" parent="1" edge="1">
          <mxGeometry width="50" height="50" relative="1" as="geometry">
            <mxPoint x="193.5" y="219" as="sourcePoint" />
            <mxPoint x="194" y="266" as="targetPoint" />
          </mxGeometry>
        </mxCell>
        <mxCell id="Tpr0nxzO7cocBPtCTJnX-46" value="668" style="shape=cylinder3;whiteSpace=wrap;html=1;boundedLbl=1;backgroundOutline=1;size=4;fillColor=#BFBFBF;strokeColor=#666666;gradientColor=#b3b3b3;" parent="1" vertex="1">
          <mxGeometry x="269" y="268" width="54" height="39" as="geometry" />
        </mxCell>
        <mxCell id="Tpr0nxzO7cocBPtCTJnX-47" value="971" style="shape=cylinder3;whiteSpace=wrap;html=1;boundedLbl=1;backgroundOutline=1;size=4;fillColor=#BFBFBF;strokeColor=#666666;gradientColor=#b3b3b3;" parent="1" vertex="1">
          <mxGeometry x="168" y="268.5" width="54" height="39" as="geometry" />
        </mxCell>
        <mxCell id="Tpr0nxzO7cocBPtCTJnX-49" value="Models &amp;gt;= 10,000 downloads" style="text;html=1;align=center;verticalAlign=middle;whiteSpace=wrap;rounded=0;" parent="1" vertex="1">
          <mxGeometry x="80.5" y="265.75" width="85.5" height="44.5" as="geometry" />
        </mxCell>
        <mxCell id="Tpr0nxzO7cocBPtCTJnX-50" value="" style="endArrow=classic;html=1;rounded=0;endSize=6;startSize=6;" parent="1" edge="1">
          <mxGeometry width="50" height="50" relative="1" as="geometry">
            <mxPoint x="193.5" y="307.5" as="sourcePoint" />
            <mxPoint x="194" y="356" as="targetPoint" />
          </mxGeometry>
        </mxCell>
        <mxCell id="Tpr0nxzO7cocBPtCTJnX-51" value="236" style="shape=cylinder3;whiteSpace=wrap;html=1;boundedLbl=1;backgroundOutline=1;size=4;fillColor=#BFBFBF;strokeColor=#666666;gradientColor=#b3b3b3;" parent="1" vertex="1">
          <mxGeometry x="165" y="360" width="54" height="39" as="geometry" />
        </mxCell>
        <mxCell id="Tpr0nxzO7cocBPtCTJnX-52" value="Models with Manual GitHub Identification" style="text;html=1;align=center;verticalAlign=middle;whiteSpace=wrap;rounded=0;" parent="1" vertex="1">
          <mxGeometry x="77" y="360" width="85.5" height="44.5" as="geometry" />
        </mxCell>
        <mxCell id="Tpr0nxzO7cocBPtCTJnX-53" value="" style="endArrow=classic;html=1;rounded=0;" parent="1" edge="1">
          <mxGeometry width="50" height="50" relative="1" as="geometry">
            <mxPoint x="293" y="307" as="sourcePoint" />
            <mxPoint x="293" y="466" as="targetPoint" />
          </mxGeometry>
        </mxCell>
        <mxCell id="Tpr0nxzO7cocBPtCTJnX-54" value="" style="endArrow=classic;html=1;rounded=0;endSize=6;startSize=6;entryX=0.192;entryY=0;entryDx=0;entryDy=0;entryPerimeter=0;" parent="1" target="Tpr0nxzO7cocBPtCTJnX-55" edge="1">
          <mxGeometry width="50" height="50" relative="1" as="geometry">
            <mxPoint x="189.5" y="401" as="sourcePoint" />
            <mxPoint x="190" y="459" as="targetPoint" />
          </mxGeometry>
        </mxCell>
        <mxCell id="Tpr0nxzO7cocBPtCTJnX-55" value="904" style="shape=cylinder3;whiteSpace=wrap;html=1;boundedLbl=1;backgroundOutline=1;size=4;fillColor=#BFBFBF;strokeColor=#666666;gradientColor=#b3b3b3;" parent="1" vertex="1">
          <mxGeometry x="158" y="468" width="167" height="39" as="geometry" />
        </mxCell>
        <mxCell id="Tpr0nxzO7cocBPtCTJnX-56" value="Final Dataset" style="text;html=1;align=center;verticalAlign=middle;whiteSpace=wrap;rounded=0;" parent="1" vertex="1">
          <mxGeometry x="72" y="465.25" width="85.5" height="44.5" as="geometry" />
        </mxCell>
        <mxCell id="Tpr0nxzO7cocBPtCTJnX-57" value="" style="edgeStyle=elbowEdgeStyle;elbow=horizontal;endArrow=classic;html=1;curved=0;rounded=0;endSize=8;startSize=8;exitX=1;exitY=0.5;exitDx=0;exitDy=0;exitPerimeter=0;" parent="1" source="Tpr0nxzO7cocBPtCTJnX-55" edge="1">
          <mxGeometry width="50" height="50" relative="1" as="geometry">
            <mxPoint x="328" y="344.5" as="sourcePoint" />
            <mxPoint x="498" y="66" as="targetPoint" />
            <Array as="points">
              <mxPoint x="398" y="200" />
            </Array>
          </mxGeometry>
        </mxCell>
        <mxCell id="Tpr0nxzO7cocBPtCTJnX-58" value="" style="shape=image;verticalLabelPosition=bottom;labelBackgroundColor=default;verticalAlign=top;aspect=fixed;imageAspect=0;image=data:image/png,iVBORw0KGgoAAAANSUhEUgAAAGYAAABaCAYAAABKZyO0AAAgAElEQVR4Ae29B3Sd53WmS4kdjSB6b6wqliiJINEbwaIu2bE9Hs/ESW4yyc1kVsbJTNZMMsncdbNS7k1ZiS2JBZVVvfcuUY0kegeL5V5iW5UAzjl/e27e/R2QspyIki3Kzlr3SD8BnPqff3+7vfvd+1vAv5WbDwRACETu0A/dpYcSyZ/zT9P9yacRRYE9b/5v+8r6Q+81f/ySXYcFv2Tn86+eji70/PETF3j+yoYB6Ig8IjzC5OHj2X8/9cbzb/L/C+anLs1HusPDxw89O8JQehFCpCOpGmEEZ46kkMIQghD0/CgOeMnXJT9ar9Xjvu7/5br9m9EYCUBymFeM+csYRRFB4J0VkC72e27zciP+PfDehChx9rl6XhQQBrH3vOKX49d/O4I5/S14Yxy+9RRMdkLfn8DzvwqPtBPeuxG6c2B/Kdx5GTzUTvTMfyB65b8R9f8F4fDfEbx7nHDuO+DPnhGMk6FPGM39ckjjPWfxiQkmMDPiLsC8gzYzZDY+IIjeJgxDLWCQCdJVi5+Gk/fA819itieDWG8qQfcy6F4MXUuhOw26VkJHLnTp/uXJI8091pMOPRnQu4K5nQtI6O/HtsHkLfDOKARvJ82bhwydfWaQIIh0hmceMt9G/D2aNu+X9FNPndX7fLy3T1Aw4PshxN6EMGYXQSs1jN4+ExlJHrG3vkF8rJPwsRuIDhQQdC8n0ZVG1J1H2JVF2LmCqCOFcM/S5LGcoCMNf086/p5UO4LOFNyxjKDTHezNI9GznJnuBXhdF0JvLtzfQtD314TfecUufsKbdW7IgyBK8A5zyMgF5ssU2cWJR2/jhzpnBRpOlgowPu7bJyYYc9fRfGTluy8WgB/NMqtv9f1TMPBluCcNdi+AnSnQvYJo7xL8ngWwKx12rYCOTKclWv17U2HfYth/IexNgb1p7pjXlJ5M0NGdBQdWQGcK7FxGuCeVue4M5qRx0rKepQQPXwRf68Xz4nhJX+YT4SsQT563vkMChSEShJ8MLKQ2H//tExMMzNqqlMmQtdLNTMZb3yTR99+huwBuTYPblkJvJhzMNhMk4YS9OYQyVQcL4cGN8Ow18Oqn4djVBEfriB+7HIZWw9B6GLgcjtXCa23w6rXw0s1w+LNwVy3BgRKCniWEXRJGDuzNJurKINiVAR2pzhw+3kr0zTvwgnfMsrlo/CeDCwlIIiOccdo//4WS3+vj+PHJCcZTNJsgSswRxeN4MyeIBv4MDlbCwQLoTCfYvYS5ziXM9aaaCWJPChxai/fYdhjZSjTaSDB6GYnxVXjjxTBeCqOVMLYGJsrtiMZL0RGOlRCMFZ45/LESwsEWePk6ePhy00ZuSYVdK2H/CuiW1slXZZt/8p/cTvT950xb4l6MwPPBl4or9FZulCBOAp/QCfDjkMZ73uMTE4x8uVtpwPRXXAS1Lw9vfzr83QLoTofdKdCVA/ddBoebYaAahspgIIOorwgGS2BEAqiAyQrCsXK84RLig0UwXEE0VE40VOqO4WKi4WLCoUI7GC6BwTX2+sRUNv7kWjiyFR5uhEMFsD8VOpaZqWNPDuzOIN5xIaef/Qzhm8ctHplHFwjMMBvaoPuC0EKH91zWn//XT0wwc0jtfXjt/4R9aQRdi5ntWgA9JQQdBbBnAf7d6/EObyaUFkznw/gqGFtLMJZPOF4BE5UwWeWO8VWE41V4YxXMjVRgF14Xf6QERotgtABG82A8147YyHqi6WI4XoQ/XIXXX04wnE8wWIn3Wh3c3wT7s6B7EXQuJ7bnAuK7l8K+XLgjC049SDj7AwsGTEXk++X8teJi5iV/fmm85x0+McEw9xY8eTPsXEjQtRDvoMLYTGKdS/AP5cPLbYQjG0hMlOAN5hIN5sFkEdF0OcFIFZEEI20Z0sqX9hTBULETxHipPSccXYWOaGy1HYyvwY6JtfjD5UQTxXYEQ2VEQ5VnBT26FkZWg0zdkzXQnQu3pkBnjjN5CkZ6C2D8Hy0ys/wnOG1mTLpD4uMPAD42wbwjxZZeR4pY4nh+SAyfQAbsjWHCAzn4vcuJ71pCtEeR0jK4PQ2e3UZwqgFGy3+xx3ghs6N5eMcvhqHPED1UQ6x7EV5HKuHeDGZ3LcDrzYCB/wVB3AKYGQN4AlOgd3mHODFDhSxgkPR0SGYmyfeow4f49WMTTMQcUTRj5+Asrv4N4bv38O7+ApdPWGiaSbh7MeFdFfDqjWamoiNrf7FCGS0nPlgAU1UwvJ5wbAUMNxA+ejNze5dB52LYuwL/QCHxrqXMSPODeBIjeo/zTCpOwnC5ZPip0PsXKRiTiEJ7/DN2OJr8R4J9S2B3GmGXnOti/I7l8HANDDTiK4IaXecc+y9YY8LJXBhUhFcBY5cQTBbC+Fp4cjueApOdi2C3goOVhHuW4z1zPXhmDyCYwwICGYsI5pgloQTUxQgkfqGC0UnpCD0ELHrHD8Ge5bBHq60Av3sxUW8RPFQLA1UwvRamy81H+COrfuEaw1gRTKw2YYRD+UQDEkwxDJcRf7qJeE8+9KQQKXLTd+os4fTIX0GgMsMc8eBH4M2ZYBRCx6IY+NIqJ58PYb1+4ikfmylzLuZHREKdvnMEdueDtKM3Ba9zKf7BLPzHml2+MV4I5nzX/TMgWUI0WvyLF0z/apiuJDFaysyxPBjKhsECwqFKohOXwfhGEnuW4SuS3CdEYQn+zgwSrz9sGbP8TcAchPGk8ZB/dUb9Z8k/Pz7BJFeGPzsLd5RBTzrhP+QT36kvko33/GZbhf5QDkyuh/H1+P1lyXC28BcvmJG1eH2lxAcr8McrSYzk440o1HaJbDSgUPsyUAjdk0diVzpet8L9ZfC9CSvrSADC2PxgjojQAgTd9zNYMj4+wXgCKUJ44CZiHVn4nYugOxMUyTx4CcH4OhjMhaENlo17YxJKOdFAAWZGfsE+Jhq9iHCoimgky7Q6nFhvPjAwbS7AG1Wymg+TzfDVFNhfbJGl+c77L4XvHTObJR2JRQJqnURUSf1ZJPOxCUarIvbsf8a7PRX2CG7PJOpZCPdc7PKPkQKYWAcTZTC6jnB0JbHRLALlEMO/4FB5tJzE5GqXuE6sgTGZ1mKiwSqXQ01VEEwUEE6VuAU2fK2Bqv5XFxAcKoavLsF78d/B7DtKo5nlDedYAvDCH59fwZi9VJQRT6LBIcxF75jqBhHEv3svUdcFRLcuSmJOKUT7JYRcGFlDNFJ25jiTs1gEpCiogsRYEcFAqYWsitYStlKrCAcr4HglwXAujJY64U4qcSx3WNl4JUgbz6FxseEVDkkYyiYazCIcKiIaKSEak5ZUQH8VTJW4Q4nreDn+1EX4I4JxkqZ2apW9LjFxERz7DOwX+JlHtDeXcPcS/Je/bIGAoiBF03HL6Xx8XwneR7t9aI2xIDjSRwpV1f+OeYIfIwxniT19LfQug1vS4K4yYqoo9m2D0bUkRnQRPlgwgTRpqAiOrIHREpiQAy41MxdNStOqDLC0iygBjRUQjuYQjhTBh4rqSuB4mS2SuT4BnJUwJV9XDsOrCcy3lCKwMzgms1VEOFWEP1EAw8pxCgn71zut0kLrL4VnP0fUs9SAz1h3HtxRYbhaRMKslyDOny0m48P7GEXs+hiTvReRCE47FY0g8fW78PYsgV5B5yvw96bDq1+AsUvxRgsIxy46I5ifWtlJrfGnVsJ4FgyvMvQ4Ni5QspJwOJeZYXfxdfHC4VLnkCdy8Ycz8YfyXO5xDo0xzGxwHYxdbuY0OlVMbDKXcEJma7UJyp8qN3NlmjlURjheRDhRSmJolfkb3R8OXwoKCobyiMZ2ED7QYDhffG823LaA6PDvGd4h8sesorKfxfPzEQTjhDJrnyOg2wgQSmmlRU/sgD3LCHpXWGbMI9WExz+F/1qhIcAGzZ/rwsmcTBdayMpksQlgZmitYWdMlpHoz7eDMa38CjM5Mm+hfNd05TlNWaiE8aQuaKUzW9KC19fgDebDlEBQ9x7huN5PGikUoMLMnyeNGl1NNCWMzuU2QrdjY0WEfZ+GniwrW9C9BLqK8H/4vKEehlDhMV+p/ijG7EObskB1B3/GBKFyq1BVi8+//iBRt0q7uYSHlhuuFPa14/XnwWAm6MsMrD7nhWP8MugrdeZLqLKc8ZhynHw4oXpLPuFIHtFoYRL2l8krB0V3SlTPIXi9jz9ahT9R5BbLSAXRaznQfxESPDKJgyV4r0kDS2C6zJnJsWKCkZUwtYZgWElnEYmRKsIxoRb5+GOr4NE22K0INM0ln098zvkVlah1rT66i/nwpixSzUFFebOaotQly8P3SZUXMde9gGjPSnislvjYShi9BIarCKar8ATDzzv6913Aed8j+GNmoIAn9lzM//Wfr+QPvthAx/9o4fWnK/Gni+DUGlvZ8in+oGotVa5AJuevC/m+933/3++MVphpivet5YldG/mT/9rGb35pM91/fSXffCYPX4KRD+ortLoOJ50pk/ny+tJgehUM5JrJi6aqiA3kE03kQ58S0R1EvSXQnQGKRHcXkTh5p1MQoSEWO7s/P+y/H1pjBD3M20uZMi+cgxP3wm5Xqg33pUJnNtHRT8HURckLdQmJqTIi+Yh5wehn8iLOC0U/TzxZxn+4rpG65i00119DS9O1bGzeSsvGHdz115cx98p6oqF15qxVR/GU/1j1ssr5nXMIhvEKjr9QxhdvaKCx4YtsrmumoW4Hzc2tbLhqG3fcejmnB88GA6YxY6UwcjFeXyGWz4yVJZPOi/DH8919/eUw+Sl4fCNR50Iji9CZSfBADYhxYxFZEt38sFL5KD5GCqJsVv8riQqCGXj4JuheidezHLoKTFu84bXMjeXD8Fr8qXUE/Vmu8ngOwfz7z2+jrWULDQ3tXHHVDq6q3U5dWxtX1LRR27iN6QMlzLy0Hk6uh+kCvKGV+ENKThVuK2L7YHP242MV/Oa2OjbXNHJF4+XUbdrK9ppraau/ls3NLbRsuoHDt2+CkVJQhDZagD9SDFOXw1QZwWAhnkzecLGDa05c4XyQinPKe0ZaCFTD2bsC9qU7TO2fnucdCeNn4K19aI1Rlds4wRJ+MAvxtwh605356k4j3J0OR4V9VbqClC6WvuRoGUH/xTCaw+z4GoKpZGXyeDlxVRvHV7Hv72uobt5BdW0dNbXXs3nrDjY1t7P5yh20tTaysbGdT9/U6srM/VWEJ0pIjFS6HGNA/uHcgtn3DxVcXltDfV0zWxs+z8Wb2riyuoHG6nY2b2yksXY7N97UQjB2kbvgCs/7dcErzMcpwfTHCokP5boFYQIswaAa+cTRIoInroWudBehyqwd+UMH7P4M3v9DC2Ye8zFmi0LAb99NZAmWKEWpRPfIOcrUKKIpc2ClTn683DnbyRISE2vwBwvxB0vxhguZGy3CG8nn93/zMmrrr6FpUysttU1U126luu4G6utaaGrcypWNtWyo2cIPDysgKLJcg/GLSAyrdLwWxs/tY/7TbzRSX309Lc1buay2noa2NprqdlC/9UbqmrZTW9dMfd01fOcFRWOZlswm+guhX+VqJaAKYuT8y52/EZxk2qOFIfNcBC+0GRnRM8pUOsHjTeDJvpij+QiG7COEyzJhkod4YBZqHP4C7BfHSyXYZXC4nmBqnfMnglgmyy2ztlq9sv/BNYQvFOA/kQVHV7lVLmd7vITf+vV6qmvbqd+yhQ01dTQ3XUdzYwsN9ZupvqqGlvo2Nm7ZweC9F1uNXoklg7L/wrVKiSY/2IzJzP32l+rMJLbWb6ep/iY2126k7vJmmhubaGxqMa2sa2pk8FC1mabEYDn+yXwQGvFyPjy+Ep7Kgr5yOK6Et5JAibAENVrmApD+i4kOZBHuE9NmOb54bm/3J6u6H0kuHz4qk1QcTJmAmQQcXOvYjF2CYDKgfxPR8fUwKEjfUYikPXLsPJ8Ne5eT6LyAsGMR0YFMgvvSCIZyCCfL+dP/dgVtDQ1sqt7OVQ2t1DRvp+6qNto2b2fz5s3Utt5A0+btvCNnPJXngouxSsL+AqvnxCWgc/iY//G/L6exrYlNm1q4qq6dprYtNG3eRm3j1dTUt3N5w3W0NdYxM1EEJ6WBSb7Ao3m82bGSRM9CvANL4eFMeKXE8D0LmWUhJpJ5j8gf92+y7+r1LCFxywIY//P5mOkjSeZDmzKi06aSEk7w+hMWt4uyGqnses9FMCBakRDkYjNXgVbRZLGZgOiOXNi5lGiXimYpsFsrahHhaysMsnnlrou4uuk6GjdtZWP9VqobqvnzP2rm1XtW85X/Xs+/u3k7/8/vXgHH5eyTZYPjoioJL1PB7dymbOj2S9lcv40/+K9X8cTftvJw12a2Xf1prmi6kYaNzWxsauYv/7CW+EAZcypHHK8g/nQ24e6F0LOcuV0LCTqXEu9aZIuK/gqi8TJiSnCnJJhKorFceOHTKNGc7UkhuG0J0YON5zlcjmIWlVmd4dXfg45FxhmOdi2Dp64BRV/jVeag57ExtPr6C413LAL4TNcSOJiWJIEvIfGCNG2dAYn/8GctbGm+nk017fzJb1fjC6g0/lgVcxMZ+KPr4YiQ6ouJxrJhIscWAH0VhgCfS2MM8xoTJlZAQqDksXyO3r2GLe07aN98NTe33sAb0rrBYhIiD44XM/vIhbBTrM0VhKLT9mbg716Ef/ty6FcSXMXMYC7hlEoYJUaLYvBa2JdHQrTcLiWcBTDzzY+kLXryh9cYk3tkPSo80gg9FzoYYlcqHPuCoxFNCKgsIdAFFdBolcpigjuyiHcux+tNI9q3Ak/Evp4UOKLnXGThbzhczJ3/eAV/8XubeONV54NEQwqmRe6rIlChakj0o0I85UXTVSZQaak3de4KqBOG+GalRgBRxq86/10dV/LHv1PHycPrYayc8Fghc5OVcKKI2DMFsKsI/zbHozbqbudywnszDc2IJlYRU8guPzNWTDiyHkYvh/s3EnbkOOxQhbVvPX3+BKOozAt8yzO5cwOzexc6OumuFJj4LExfgjdVaPA9UwILFSoXWaaceCwd9uUbKSO6Jc0Y/BzKJXy10kLqdwZyYFT5iOrulcRHyvAnMg01Fowyq/unFZEV4E3KhAhYLIYJAYoreVNV0XP4GIYF5yicX48/JbhFcFEesbFSI/4xnQlHZRLXcXq00oQnkNTbtxAOpBLettyYolF3CuHDOVar8SZW4yvytHBdWrPKwTZPXQu7V7rFt2/BP5u5vedPMHOeT6g2BYGWqkr2LDHgUmgykxvOfWHuWkZw52IS9ywhfCwDXhFhT7mOAwtF9BOaayt6VNiaGJcKTYthYJ0rtmlljivJc/A9Exebxhk8M1FiF9ihzUUWtgdDRehQEuoPLDNf4B/JcfnQ8CroSyecyLELqgscjIkUmGR7jlVYjuK/mkfixSy8vQvw71pI+GQGvFbg3kOLyUiIpXZODuFYBS/+R9iTDV2LCLszCEf+3/MnGE89IkEC4u/idae6WrfoPPvyDdY/54od18WuxFiQivuVlE2IMVllLMmwrwQGimAq161grcbJbBKj5cTk5PXYUCmhgMaBAvyBXKQFCOQcKUwKpcABjzKlExWuEKYkVgIWZ2xsvVvhY4JeKgkUsAyrcllGMFRijxnjU8KRYBRd9hURHilw+YzVh5xpNapu8jkMKEorcxzpsXJ4+Vdcq0jnMqKONIKjf3T+BOPKCiH8eAK/Q60SGbArlfCu9R/K+XpTlWaGfFUGR8vsIshvhP1FdgipjaYyjSRuhTI51P4CwqPZMPwpMzGCSowWq4RSiPJEhbFY5vpKrS5jRTOBmlNrrbAmv2UMnIkSIsEpMmXT2SBGjKK5r12EuAfR17NM4CYIhffvhY9MI8oITq0hPCmfV2U+VNqlyNPSAWmwQFLTzhL8o9tcJ5sarnYvJ3j2c+dTMMkM8xtPEOxZTLg3E/ZkwKMN7uTOYeO18iwpVPKpQ6tP7H2r91cSqAp5sorE+GozL4npK5gbysAbXAXTqrlXmdM38HJIGrceJtaSmCxibnJl0j+pTiOhyPStMhTaCauQSPWX8Qq8o7kwkE9iQBf4ShhWy4bORxXUpJnUd5kXjpWulUyWGVgqjTUYxs69zDjVZv6UVw2WGMaWGKhxDVTd2dY94D+46fwJJpxnexzfZxRXFcXozIJntjsI5hyCMTK4niO2vlb6WKkxT6ykbIWuIoJ+XVhBH9m8IxL5iUucDR9bbRVEQxGsA2CNM0HyUbZaFd0p0ZMJk99aZaXiUEIXPDRZTnysAk8V0YE1Ds+TCXx9FRxb50raQqplYu04iyTItNmF1/0qnKmgpmNEhTWVEipceC3TOVTqaE/DG4xPF3XnoHQiuKPq/AlGfCnBMsH0HoP61Rtpgnnu6g8FiSjEFYShpExCEXKr+/QznCgjNpztwEGr9Rdx+IGLeeKrFfzw5WLzSyhcFoV1oIpEf7HDyVQPEbI76Jy8QnWZL9VrTCgSokyWGpvGLraavf+1Qn7wUgmH/u4KHtmrEDmXuKqY4gDoMAGIISpIqcw0RabXEmbTJJE/9L5qEak0bdPj5seGBa7mEwyrMSoVX7mMcMQDRedZMKLjnOq2/pFgzwWgwtjTW9yKOYfGqBBl9l4rW4fCaR2KsszvyDTJb6w2yGVj9c3U1jTRVtvAn//Per77fB5xmT+rVhbZ6jTi4PR6xA9Q9GWsF/G/VPQy3tpawsG1zL4q01fBt16o4M9+v4atNW1saLiObdubDRayvhudv/yJtGxeOMPOF3ojpcSHtBhcgPD+QMf8jAKMEbfgkMbsTnNd0vLFB0rPn2BczyF439jvVsOuBa6c+lgDpz9EBVF8svkWPGvDU6Y8VmzVzbiVi1c7ofRr5RZQ3drMVXXXULf5OrZXb6FxUxN/9SfNHH/uCudPRB5UFXNiNXPTybqMLs6EgMVCt4LH1phQvvdYHn/yx3Vsqbma2qZ2mqq3Udt2o0H9Yt2oXK3ONCN6yDTOCyepNZarWM1n3tw5bTrj+PUag2WS0NDwVbAznXh3iqPTHqg8f4IhiDkW//f7YL/I4guN9c5DG8zpJSZKHXPR+h+lDYpunDbI9tuKE+NkqsxIDFbKVXQ1WWwkh7dGBUQKXldtYzWbG26kYes1NDW2UlfXTuPmVq5sbefK1iZ+5/O1PLdrM28dFR8tj3BkLbPDGfgSyjHZ/iqD7+/7ah2//rktVk7YULeFLXWN1G1uoXbz9dTX3swf/NZW16mmKqRoS6PF1tupnMoaqMaLk5VLmagiK1VYGdsivDIY1KHzvQhRfxPDZUZi9IZuJC5sbd8ia/CNP7v1PApmvuXgra+5Kl3XUhc237XK6hKqJqrf0cJZVfV0KDsfLHQ02IFKx1Cxbi7RgPSlS0xjZkcKmFOnmDlqV3r+jV+/iuarthvyK8Fc2dBoIOTW2uupr9/OpdVt1G/cxmd2tPHbv7aJv/nyJv7gdxv4rd9uYftnm2ja3MRVdVfR3N5EdcMXuGJTLXV1bWyp38ammpuprm3gf3/5KsPOrON5UJGZi84sbJbZtEhN+FkSMFXeMl5mAhLEI82Xv1QOJB+jv73+fKIjN1jBjI5s/J0XwEv/x/kUTPK94+8aFBP1phna6om6IwcrVZ4UUS9Zah13bXXibQVCmRXeijqkpE7Z/tQa14ohJyqbrp7KsRIjdCvJ7PiLCho3tHFlzQ62tW6nsflaaqq3saluGw2NbTRWt9Bccw3NjdeysbaBK1q2G4xf37yDTVuuY2PdNeajqhub2VxzDQ31LTS03UDNpnY21rTyqc21PHDLOrxjWVZfUSIr7AuBpzo/HZNr7D57bEyJqCI6OX6ZTCHQ5QTHS5mZKHCRm2hQ8pGvfBE60glvyyUmZuroX55HwSjDtCzTsx5F9cdbE+muJTDVBirxiiQ3LHqrOyxaUT6gjF+Ry3xUM1Flf3sDRa4PRdn8WB4J1Vr61sPXCzn18Coa6q9lY30r2+u3clXbVrZsamZTSzM1W7bS0LyDDW3t1DdtZatIFS2ftjrOZfXtXFbdTFNzOyqK1TRsp6WugcbGq2lu38EVm66hoa2F+qYtfO+pVY4dc2IVTK2ylW9gqXzMcLkBp6YNemy0zPA5+SIFGdaEKzTC/Msag5eMnSlf+ty/J65Wxv05hOqrGfuH8ycYo0ap3q985s5LLOsXrB3bvQjGPgtHVsFTRXCHBLbE9VjemwUvyWFe7Mqyg4UWMQXjJVYgU5EsGE9GMkKjT8pmr2VG7MiJcn71C1uoqW+hrf4aWlu2mrbUbbqepvobaKhto2ZTPdU1jTTXbqF24zZaN7RR27KN6oY2e82Vtc2mKS0bGqne3E5dQz31DTdR0/pp/tfv1jhI5ri4A4oOBbUINVAbhvOXRgTUfePK6gtdVKm/x1YRvlRI7L4U4j0LjR2j33mkGI4WET3eyrtdi4n2LCEUin7q7vMpGMeQMS7u8190bW/dqQ7CP3y1wfnqibEJE0KcO9KsjsGhHLgrzxEblGFPVriSrErDsuvHSoheLoAXlezJXJQzq3rJiTU82VtF68YdVp+vrr+ato2tVLe0s3XTtbTUXsunt93EH9dez9bmZja0tbF5U7uxav609iY+3Syt2kb1FS3Ut11HTeMW6ptbqK9u5opNVzN5TxWByHqTxfh95QbNWLbfV0zwQpYd9BUbAiDYxptMBjSvFBHdt8ING1J3WWeaHUHHAujMIzyQhncgm2jfSut8TqjR6duD508w9s5haA060YlepxE9KYS7M63RNehKtT5LsTJ1mJDUu6hiUVcawcPq+JXJuJTgpSJmb1+K373QyrD+wRQSB9RPnwev5sFxlZAvJ5rM4X/+Wg01jZupaax1pIz6VrbWb+Nvm7fy/dYtxJtaeaWxmUaZutp2vtywCa+9lVhtLY82tXCztKTuOqNCNbVew6ZNm/ij/3KpI3CoFjSa7SCWl8pI3JfuBgDtWWhRp+eQXoEAAB4FSURBVIYB6T5eKnOzB14thQdynTBEVdJcm55Mmwo1e+sCUA1G8272qP08g+graSRuLwXvo89D+/CFMhE9orj6QQnfGIODy6B3CezMwlNOszeVqDeFRO8y4j0qwS7B61xC2KHm2CVEt10A9+fA0yXM3pVp40kMa+tyhTO/Nxv2qFsrjbkjIpcXW+l44okydrRdY+ZLJIr6bS3c3lQDLVuY3baFt2rqiJoa+ZtN17Oj5Ua+UXst0bYmwu2f43TrZt7ceiW/Wb2dK+obqN20ncZ/juK+37+KUE58+CLrKgiPrbBpTQj/27vSRVRdGiK0Et2nSU48VYp3ZyZzncsIO/VYtnXKaREmOpYwt3eJ/W1U2V2L8fctg55seOYLbojRR9SZM4JR/+CsMBf5EX+OIHj7TKsasRgzovkFjiATjwUEj20ntnshflchnnoTezJIdC+Fl5QTKDQuJdJq680g7M4k2LuM+J5FaD7MOxqy05u8AHtSCDQu5CtL8fbq/lyiu5fCkWxUCxGH+fuP5rClqZ5N9Ru5v2kbszVXEjVvJ2zayttN1xDf1k6iuYVYewuxra3EW7cwV9/GXE0bs3WtxJpbuaZ9I1u21jD62BU2MSPqUwRVQnSkFP8OjUpJceH/LVpIqZa5syuN6KtC0rMsYRS5USO5xH7RsCAey3J51/hqvMczoXOFLSwOpBF1LiCuoQ1fO2RBU1z9dok3XAClICpJnGTuX6Y2nRFMaENrkpGXzedSj4dnrEs3lgM4/QZ8p4vgud8muHOzm6qnoW77RbZIZU69IqrBz5eWBUo+W+L8To/MWxrsW8lpa5rNdnNkHs4jdq/GWaW7KRQdy/D3LibxeKorTw9VGRI8+swl/E3btbzVeg20bCOxo4mwoZmgpRoar2V2WwtzW5rxG1qhoQV/SyszV7cxs7WNqLGNu7c38+YjAj2Vq6xjZrSQGeUtj2ZbE2+wT/5xOdH+NHgoHx7Md467Kx2/Mw2vI911yu3LJNx1ITxXYLhdTFyzo8XEJyqJya9+ZRlRzwqzJsYPeLCd00f/EKZvh3iyBVCySPjJOWjWVftT+nRGMMZ+0cNqB59/WmAdHo6u9s0H4Z5S2LsU9pQ4YexaSqJ7Jah8ujvVVnw4UElC5V8Bil9bS6jWuTvTLbQ2DlpPummXkRyer7ASbfhaCTytCUyZjt60ezmJQ8vMDxjifGqNYVozr13G6PV1vN1czenGOua2bOdHW2qImmpJtDZDfRN+YyNvt7dwur0Vmpt4a8cmRj6/gTeeXguThW5q01SlzZRRdCWakUZyxW/PNJPLC6UuWjtWCo9rNFeq8RUSmgQl09a9nPAhDWioJPjaKkMEQnU5D1Qyty+DoCODaGeG0zhFZF2ZoLJ0TzbR3euI3jpCkPiBUWc19XDWZuzMX/CzP88IRtIwgahKaWFxaGOsdGfiO0+6+V69S62Nz79luTk89HevQsLlLioT4vxCsUNchR5PlhKfLCU6Wgh3u4kYhrb2rMD/ygVWkp6dVrKphG6tG/ZmBMIVqLbuv6jmJEVySlpL4EQF/tEsvv/ERo78p1Z+2FrHXFMDwZZrmdvcRLylBZpaCaub+W5bLUNfvoJv3aM5MeX4oj5NqV08l3dUXlbp+nC5mc6wewmeWKUHUi3RFScgUBSmz1bbuGalaZ6ZCHx3Z1ggEB8udBDQVCVxnd/T2USKSjszHAly11LDEuN7c/AOrcDXPJoDxXiHMiH+Y2bVes6cDdYyn3FWJvbbWcHIvWg6UlIwGouoZiX5l+DJm4lr4t7ePDtB8cmQw++4AHYvx9+Z6ojlu5fAPY4QZ8UnocYDagxSWFzhHGJnGrGOZeYwGbuI02JSqoh1/BJ4Msd80DwbJX7PShdai9QxUkWiT9jbesu2OZ7uhsdNFvCDhy7h5N9v5Bv71/LDZwuIaQDQmJpuLwXVX0Rz7bsI1JR0rIQZJYYDlcx2ZtkCoGuB8y/Plzjix0QRscl81xAlv6eQuGM5CQU7qgFNlDOj6U6CnI5X2bgTBT2aJBh0rSCx90K83XrP5W4I3m1qFs4n6llpfih8/LPWmveubJEfkvDO2Kgz4jkrGE3Y0Jjb0KmOH77r2vp+PGkOT3ZTtt9TX/vQZ+HUlwhf2WjO3WZS7lxEsGsRiDv2kJxiJZwUEVDZcQmeCliPZ1vS5fekWWYcDboCGGpy0vyw4TIb1iBzYSXZnpUEr2TbKp4Va0Z1k37VV7LxBrNhKNdNZZpW2CtWThISUZPR+GqCkQpr3Uu8Xmz9lJa3DG5wfS1PyWdkw0ENHlrktGV4lfkefc7p4RzHzJG29Kwg2rMI78ls11BltFjhYxXWbOXdr1RBEwhzCXbm4u3OwLtdGGE7vP4F6Pu89c7M3LaAUOWSjnTiGqWVUIezoukPEozmSScbk9RvGUZuwoP3rUfwpR3qsfzqEqJHriAxdQn054AaR4V5PZAFdyimT7eys0VZj+bA2DpXN+kvcTWS/jJity8zk2W8Aau9yyEX2+wxJlYRPrLCRTyd6RaW+vemI9Yj6hQ2elC+IdXeeKGrpQxfwmxfLrGBvGTJN9nQpIWgWo86k0X+7lM/zWoQc1J85LvlU1KgN9819T6TZ+VrZf2qtqoxib4qx9zfm4V/dxoMrjYkPTzuok4RSKIHMi0tcPnLcti/Eg5LI10ngzeSTUzl6GebjTET71xgUA1ff8pxzeU2rDXvjLL8pCmzx5J+ZhbRYd0L3v1aN7HeLLwDK2HPCni83cjc3pTAxxK8cfXClMDLq+DOXBfZKLJS/vJCMXOCxpVhCytTy56SNTlF5QavJAtTmnwkREBki5FyC63pzSG+Z7FNhfWeSdb0p0XBzYLXcpEQDTAcFtMmF5lFgZCC/tVJkBgqtDYPTbmwQpjA1X4NVcgm/oyydTEldb75zHVc6BDkU2tcT8xxCbCS8Mk8EvsUrGSCim1HHEMmNqHafhncv8ItRA0wUm5z32LCl3UuZXBMvZqrrY/HzPSDn4LuUmJKPvfn4H/3Oecq9G/8pyVzxpRpqoUe1iwY+Ra1RKu3P/7mGOzNJyHIYU8qb9+xgGDyZkceVxfwpMxGKYkxZ9uDe5UoikGzHA6uxFNG3ZdrpsVGT/UXkbgv1VTbmPFH5WSzrEtAZebEeKVxhi3ZVE6hfGfXCvzXsg1f0/AdIz18fa0jgQyW4QluV3f0RKmrn4iFf1xIcJUBk6pAMpz0GS+XGZwkpEIJML2L4dViEmrZM5aLGDTr4HAF3LrQphHG78m0FpJwINfQiGiyBP/xAhKdmUSKug5m4D+m1g2VuNWCUsS7RrcS2WMtnLrBRa+7U4h3X2jMzmDm69ZgnFBU9i/0z5wRjCZR+4mk5PQj6WsMTLinCbrzHYNSJAxNVRq90SGsx7Ld7Ek5VvWTiL/8XCkcKHTRiUbzPlEOJ9Ybhehd1ekHVhHuX2HNTvGexYbsGpHCAEN1FVe6cFlY1G63uuN3L7YoSQU3rUjr9tLK1EWfVslAbJekYHR/MpeyKmNycAJi1+xPde3uqsV3LiW4a7kjVqglZLjU+vcjmTCF0ftE5V1mhTgrS0yVER8uIHhG9NcMuGUZwf7l+M9mMqeZM2pFHCohEBhr5fIcYseuhj2ZFvWd1ucpQHr4ejS0IgxPE0tOCXYm6uy/ZwXjh/hhcqiC2b05Z/pOfwPuWAUqk+5U2LjMCNOBbPPTtVi38ehqfLUgKNuXiRFX63COQRjskclIwVcrxokq6zaT8KLnK1wb9q40vP2pxBVSyy4bVFJidFX/kGacKfnMdV0Fj2bZ9AxjV4qbdiw32X4us5akGIlHMKEhpkVmzsysyA8q8b1Hw7Q1c2y5hbYanhBKY1WOUGNVv4KLVYbfWc/P/jTiz+U4aL+/wAKY8Jkih6zvSSW8f6XrnREHbmSVkUROj7oO5/jwVQTPb3AdDoeyiXovxDuY4vz1Q1vh9I8sfdfC95JG7axY3ksq933L8jWyVq3jhO9i9zz5GTwNEt15AXGBkx25FgLK0Udq77tTPZafgf41xCfU6l1mmb/RXY+WkHiowCIsCTQ6rFZtR3CgbzWJHuUGK+G2Zbz5RLqr6SjUFSlDNZLn852vUphpoeYyvAfTXX4hcyXTIz83UmozMB1dqcJYN3PDavVWDb4SlCw+WmQlikDs0Y40m3KeeEnaV2VJIqdETVJeo8hymeUssYOLMC0zHnYl4TMFDicTyfzhPBcIiNYr/6XAYkz5z6eIBm9g9oCiPk1pWs676iES6mHDWdXWkU70/G/Y9bYE0ybQvFcs7xFMlDhtGuIFmmTpsBx+NAq7MpOtCEVGwuCpDczeV0FMmXJPflJYOfBIOfRfhicbe0qZ9fpke1wx0cMFDhg8lOEoSKryHasgfK2c+F3KjhdZfUN0WdSQKub8iTLnS+5Nd8FCTxbhLQvxOy+EpzVIIWmuhoodtVXEDPG+xFMeK8YIHuKw9ZXjP6KkbwUSimaOWYvi465HX4Ux+UirSIqw91QOhnUdWEY0scZK4JoBEL1YaIl0oiuF+PNFdm5Rf65pZvz4Wnhdo7SuJdIkpls1iLUI9qcz272E6IGL4YE1nN69GPYVQYcGti7Gf+ub7lqrI/x9tzOmzLyL/nGe32X/x/7KJUVdRYQae/vcFqtOcuJSovEr4ZWbOH1QyLK+eC7syoNHK+GVfNfyN7XG2hpUdo6/WEFi/zJCOf4BccvK4fV1eKIMjak7YK2jx4rpMqSLVujGhAytgUeyLJeysSiK+CScl1TcWuXymIlK1/dv0y3EASt2r1U0+GyBSwx3pRGKfLc/lejJPIKptYZISCj2/JFiC7c1LpgjqrautjJ4OKnMvhT/wSwzheFhBRZqlkq296msPnAZ4bOtsC/D0HTxlcO7i+HIzW4Kx5AGO5TgPdMKu9S0daFBN8bR0/U2pOUnJXNWMMpxbAMcPUG94z68/IeGIWkHCv9gJkxfY3OOEwPOJBl0rnnGo9cT3L7WBQXql9lfTPB0vuUWMjWqi9tkJV04obpjjokZ9RUQn65k1ob6qOlJ5D4RyyuI9+e6iqIGHwxXEt0tTE7d0UuIVB6Q9g2sJp7kpVlILu6AggPTgHL8V4rw705GiNqIQd1s92QQTqsUrCEOMkNlbtrGYAWxk4KHVnFa5kmFPJWUp2Si1MGs9EAUK7FwJBQtqDUEL1S4Ses9ec4qHFBX9q/ija+0uTj+KS20CryJXDh2M/6tC4kpwu0qwx/9e/MwirPefzsjGNkxgfvvWrjsRtYyvs/Gqc8p9u5Igbsuwz+maUoKPd2IkZjKrONFRBpN+NpGQs3vUiQlksajjjVjkMuEZiirW1ldZoqkKh0fTS3bw1XJqEZVwnLXTz9RQXA0lznNXxbR4+hq14QrSEd5g0DFp9QkVcVbA8mMXE7cfJQLAGaeWklM25nsXmG1Ig6k2xQ/KyWLBTNZwpwouRrBJfLFoKbJ5jsUQcQK+ae+CsKXiy1U9zXDRqZWZPgjRSTuz3Q+Z38BcW2X8uo1cNKNADMfq0WjoEhY2uSVhHcUGdfM6ju3pRF97SnzM9rc4f23s4KJJBg38gpfw56Bt//JZcVdK82BRV2aa/kpghMaXq22u7VofEdibD3BkDqIpeJb4LkGoq8uho4suG+p6/zSRfs5DuUovJRvZkk5iIGK4heMVjp61HCZ9bdIG21a0/AaQvkJzXfpSLVx8KgCKVaOjdVK0qVUzxcycI5zmz2R7nI3DdmW1j8k851B/GAq4ZMNxDQhcLSSxMlKm5phUeKJfAJNlPraZ/DuWwMH0/HVMCtE/kCRmzdjZuwDfIzgfiuBys9YPSYJFTy+3W31ofh/t6b2LTY76r92PbMT1a6/XfP1RdLW9NVxkcUzYOoGuONSEkJtR7LP+cXPdWFEbVIzbLjPDRKykrVCeIGK0pLRcieY0QpHrjhabtieUGoJxlPf5LGK5CKRgJKHfIqYLucQDP0bCCbyiJ3IJHwxlcTupcQf1HybX3FTzw0JkSlVH1CuIeGM3wCPNzmIaWcOqEDYkWFRaOyV3wTvXVOU0P8AjZGGJBIxPMEx2vjBTxCG7xA/qLG26fCPSy2T10wuqy10LsU7mAePXQ6D19l4Elu9Ghg3poZWEQCvIj6x1VU0z/XFz/W42v0mqwybsrEgguHVp3P47Gq3gEJ+RsezeRYk2JYknamET2WfHW2imWcK6yUcmSsLGj5Yo4OxS2BSUzME8WyA4+1O+wQ59adb+4fMdDR4GeHwzcw+XU1MRTcrBaThaS8cFdD2OQ7E3P5KNNHMPP8HOn9A8rP5wUFopizxg2eJi2TQtYx3OzTfMhNv/FqYaoDBG+DZNjikYdEX4vWU4Q/9CkxXO/xsdB2+BiVM5BKNqPPrg7/4OR+fFJRfSfRisWPf7Eyx8JWHRdiTg3a7YxjzRn7vMfEKxFzRnJs0UDFuSvY/yRJVEiqEQHUZtf2d4/xmNbBOLX6jq5jTiMaxHIKhS3lXGndSLYdXwWtNcLurvaidPHxiE0ze4DRqutkYrJ5AzJ4MI67Ef/ScyeWn9eU9eYwwAvMr0hY3o+6fG0nvgANlKHYPdqcQvbzdBhMohAxGspkZv4ho/Dp4ud1dJKG1ty61MNqN9yglNlVFdPLnFIoumhyoVvfzpW781K7lLsp6eCXRiXMLJnpVXDWBk0nq7kS5C/3V5/IhBMPJJGIstHqimBkVAgXxiB47/FnYX+i6yHalEj3RDJPtRJPCCNXCuB6OXwTPajxlFhwqsWmAMz94we2moQ2C3nc76/z1wPxwOGmO9xZ8u88GoyV6tSuEKnyVhJONbhDCyCVwrMom7AlWT0zdSHD/p2BXLrG7VxCduMklmMc0j2V+TNbPISAh2Mpb7hNzxc2vsdrPK4XJNr7kzJp/xZShUSkyQ/InQ+rTKTXwU5rm5mye49zG1+AdzbFhdEyvJ/FaEbNqzh2+0SKzYFcaPLMFhpuTAYawM3Gbk4T18c2Olbm70EWX2j3q7SGLgRUJv/92RjD2UAgzqt6EcHru2wR+DA4WEwgO2Suu1CK4qxJO7SCuptZRdVMp3l/LzDHRRtcRjGwndvRGOL7FaiiJY8oJzvGlz2FGzMwovFXo2iPnrxk2wtCWGsnbpgCew/krQuOIeNOqpTgWvxJLgY3qezmXKdNkPxNoX4F9pgSK2uCHm/DGboKJdtcWovxF2Nn0BptFoOgsnPws8fur8FUoU/W3ayHcfrFZKEEy/9Jmj2cEk9AsevFgA80jC1GkYMjyNx4iUkK0Uz2XQpYvwO/KJfHq1XhjG2xop+UmqokIWreRiavwj+XxttXyRRF18ybP+eU/SECKvp4tsvp7IM6XnP/dqaYt5svOES7roiD/NCKUQDCOfJZI8GWO+flBn63HhIpLgMer8DSWcbLQhhrFp107ulAMCUqDtdVvc3oim9mRRnjoKtcjoy0hd6fw9j5p+yL43rMQC10G89PR8tnJGDFJRF5IZegoxtucVjka3vkxb7z6pWQVM4/otoVWyApVqdOHPdpAOHGzDbhWeVgFJJvoPbaOcGyNSyhHVzM7nm9zV2xikcrIenyoyoW2gjdkr0WNlU0eUx29iPhQtisJn1oHLxY5jVXWvzePSPNoekpsCgUPbiV66QbCF64meqqZ8KEridQesl/ZeIqNhlQH3GzvMqKXNWKxkncGNMRBmJ5rc9fnaaiDyOPWkZzsStZ9ekxjFhMjmW7+s0oKqmJOqZVefTXrLdBR+3swdRkM3QhPN6OEFi3qznRi+5bDzgWG02mXEFHCHC0scDtrvc+WndEYQzC1e0MQEoUJ5pKEP+MuzfwYTvVaSVja40lzdmfAvhywKCOT4N5LYfBGeH2r2W9FYmoctZA0WTzSrDLNPFaDjyWM8+wX7TjRX2mO0huTHVdPo/zSasuwebXEoitfO/GJxyasbF8psb15xDVfv2uh1YoUGs8fZupk7kSk6EonUl1I44dvz4GXhYJrnnKWjVK0FkJ95nzEpqGkdiRZ/aNlxAfKbSSXDRYSeWRUXIQ8qwF5Mo8nd+Ad2cLcg5e7sVgafqTP1vxpFft2r2DmziyiU/e5UrIfx7eAy6Kt94nlvVHZPJgmrZGm6PA9k5eZNIECsa/jP7WNxK0LrOTr9pdU+TUNUYC49UIjxUUKE0c/DRN1ySl/yhtk5hRdqV18jQnNzRlzQxWYKrAWDl9bJqrqZ9l5MbxQSLg3nWhXFjPCu0TM25fiqLeq9fRkMXdwgTlgzdk/e5wVkhOWiCBii65wVKuXS+EbqoIqalLEpnbzUsJx1ZakAevtd4e76TFNXE+2nOs145fCaBsc3krwwEboUBif4+D93cvhthQri2hujpiqwZM3wZvfcKbLd9w9i4LFs0jYgMafEM4ZjQm1i4NtYuUsmmmKL8KgjNppwoQ2rxFfE3hjAB65CV+b3QizstWh9osk29KiphQrEvl3FREcroPh34DJz8DxWlATkMDNsXJUP39bMzRF8J4sZeb4Wt46uYO5wWvggVWuJNCxiFjvcmuUsu0QhWTvXEhizwLmVGFU/UTUIpmq3hSDYRQghL1Zjj7Um0tw2yK4U6NWxMLPYGZnGvGHN8DJm2GqziXBVnZQh1yVQ6s1e0D32VTzZpj+FRj+PPGnG4gdKsTvTHEE+v2ZNsDIrIdYQvoMVSo7Mwif+494//ScaYkS+PkNT7XwVcY3LyNC+PtuZwQTC22XMYsR3g5+4J6m5wcJt3t3JCm7vbl8T9teBTDzOjz/O4Rda1w4Le5uRzbxPTnMdizHU91Be8eIBNehx9S7qV3zMuH2S+HJdji8heDFzfBUPTz2Kcf436PNc8ReTHUlXGXMnSmE+zQA+yumxbbXwOmT8IMx4icfhIm/henb4PVD8L2n4a0xiP3g7NDjV37N1edlertSrUfSyge3qXztRl9xVwk8sYHwpSY79LvdlxyLJa723G0XOIEIatqvNgwR63Wei6ysMdu7GO929cn8PsxMnnXuskCBW/wCi3UtJRwpgy32f00w8it6F+2vJZZgMkBzNs1UyUVp2s7WxsqYdvmOiH76DaLjXyF4cpuFshpiGuzV1oUiBqYT3aKqndshT2bFsnHj97o++PgtF9hoYAM9BXzekgJfXeYqpYLRRTZUZ9ZUL1HoNjEIEjNoFrQEZJvq+G6UbqgdkKx8oWBGyzJ5yGKM/yWRpkCp20uCv20x0aFM4vuzjM+mfZltL0yhBTo63D7N2pgovi8fT5VIOXNNzRV1tvtCd193lpEYeex6N/J49i23mbfaL0KV6BVRqSKM7ZYbmeXx3c65Ri5PspLeI5wzGjPvV+RiTFFcvmn8Mj3fhvzExZ3RTaXnJBIdhsS0LUcwxxxiFb4Lp+6AR9thXwHs1da5mvflhHCm20yTZ7uWWz9KomcBczvFidZqXoKnGr/AR/my/bn46mkMZFBdR4K+oOF+OtnI+UH3rZO+Ufcnbxp858YS+47H9dYE4Yu/ji+HLB52twjjqYZEazyki+KSBHJFdHuXu8fMka+0oQraq9lMuLT+xf/yz1DPQYLZN2zusUgWrkg/Y58nbHiWd13qIa3R4vf0mCutzGpD7eADfIxeoO/jaZtnPVFUWV0B68wQSUN7dWs/FLkaTftzaZGFfJ6rKKg7wN5EPTQm3jjRu9OcPt4NfX9K9NT1zB4qJGGRlcyaKKPqSVHktBJ6090A1DsuIXz6t/Bffwjib9g52ILQLmxJkxpqe1075xBvNmEcYEFJDk6aj17MkLtzwjNGis5aG1mHc28SHH+Y6FkNXS0yypV2PtdGcdqeXod+132iYwW3r4dHb4K+/xu+eR/h3Am337IWgNGP3ALRJYv5HrYNcPIq2BqJxcFL2KrXwlfLi3kWbfHixDa/luznWY35ibs//j/mTaPQhHD2h0RvnYAfDsB3X4BvP83czEm8xHcRZ/r9Wvvxn81Pv6MpWeyH8KN++Pbj7tDvsR/a+fz0K87vPZ+YYKRTzqhEtuuffVtdDR1ygokfEwTCt10oaXdbEpZ8wvm9Dj9hvuc/Sp88b9bn7/ukfn5igtHVt0GnyS8rlZcWCaN7L4Q3Lz5Ne1II73ai/Rcwi4/7CgXa9fVsyqBzMkuucxDZ/hO+fWKC0eqbv+g2ij6KE4SztkeANMU9Pv8c6ZeEItElo6rzfWHm3ZJ8qznnGedn5+8/35//vvf/xARj+8/oItuFPmvCzFbYjrPOqqkq9JNCcS9533l/7H9KO7Q47J95+5UMiPTYJ337/wBZsuuon+/ArAAAAABJRU5ErkJggg==;" parent="1" vertex="1">
          <mxGeometry x="31" y="63" width="41" height="36.18" as="geometry" />
        </mxCell>
        <mxCell id="Tpr0nxzO7cocBPtCTJnX-59" value="" style="endArrow=classic;html=1;rounded=0;" parent="1" edge="1">
          <mxGeometry width="50" height="50" relative="1" as="geometry">
            <mxPoint x="71" y="80.59" as="sourcePoint" />
            <mxPoint x="119" y="80.59" as="targetPoint" />
          </mxGeometry>
        </mxCell>
        <mxCell id="Tpr0nxzO7cocBPtCTJnX-77" value="" style="shape=image;verticalLabelPosition=bottom;labelBackgroundColor=default;verticalAlign=top;aspect=fixed;imageAspect=0;image=data:image/png,iVBORw0KGgoAAAANSUhEUgAAAJgAAACNCAYAAABL2bMJAAAbeUlEQVR4Ae2dCfgXwx/H3feVK5SrXCVXchcSlTNUKEe5opRE7iOVUK5COQolZ25FkjyEJEIkEUKIRK7czP95jf/0zHd/O7P73eO3s9/fzvPss/vd7+7szGfeM/OZzzVLiSIVFEiRAkulmHeRdUEBUQCsAEGqFCgAppH333//Ff/884/4+++/5fHXX3+JP//803jwv3qW93i/SKUUqNEAAxQA6Pfffxc//PCDmDlzphgzZowYMGCA6NKlizj00EPFHnvsIbbddltRv359sdlmm8kzv7nP/zzH87zH++RDfuRL/jU91TiAMeIAgIULF4qXXnpJ9OvXTxxwwAFivfXWE0svvbRYaqmlIh+8v/7664uWLVvKfMmf7/A9vlsTU40AGCMJjbxgwQIxceJEcfrpp4t69erFBlQQGAEc3+F7fJfvU46aNLJVNMBoyF9++UXMnj1bDBw4UOy0005imWWWiTxCBQHK9j/f5fuDBg2S5aFcNQFoFQkwGu7nn38WM2bMEL179xYbbbRRJqAyAY7yUC7KRzkrGWgVBTBWcb/++quYNWuWuPjii8UGG2zgFLC8gKN8lJPyUu5KXIVWDMAQGcybN0+MGDFCNGjQwGlgeYHWsGFDWW7KTz0qKeUeYPT6xYsXi1dffVUcddRRYtlll80VuBTYKHf79u1lPeDPKmU0yzXA4F2++eYbMXLkSLlaU42V5zOrzrvuukt8/fXXFcGb5RZgyJXmzJkjzj//fLHSSivlctQydQTqQ72oX97lZ7kEGFLyN998U7Rr1y51WZYJBGnfR4ZG/agn9c1ryh3AEFQiIW/atGlFjVomwFJP6vvHH3/kEmO5AhhEfv7556XA0tQglXgfAS31ziPIcgMwpokXX3xR7LDDDjVi5PJ2FOpN/fM2XeYCYDC6U6dOFU2aNKmR4FJgo/7QIU+Mv/MAQxTx/vvvixYtWtRocCmQQQfokRf1ktMAQ9j45Zdfis6dOxfg0syIoAd0yYMw1mmAIdHGmC+sdB6LhXXWWUcaCG699dZSyb3KKqs4CU5kXegit9pqK9GoUSNZ1uWWWy5UWaEHdIE+ridnAcYUMHbsWLHWWmuFIjpTyBprrCE6deoknnrqKWlheu2114qTTz5ZNGvWTGyyySZi+eWXD52XmpKSPAMMLCl23313cfzxx4urr75aPPDAA2L8+PGiT58+0lgx7PegC/Rxfap0EmAM/R9//HHZTP3mm28uJk2aVNKpWdrDswwdOlS0bdtWbLnllmLFFVesVqABLAB+0EEHSXuw6dOni99++62knJ9//rlo3LhxWfZqMP3QyeWp0kmAQfyzzz67LBAwPe62225i0aJFJQ2nftAI6PdGjRollcqbbrqpsTEBxKqrrirNqOvWrSv1nACTaZcpDft8AFO7dm2x+uqrC9PUhjSeabB169bixhtvFHPnzrWuADt06CBWXnnlsurdq1evKmBVdXbh7BzAAAJCRaa7sNMFz9EwHTt2DKQpUwqjxZAhQ0Tz5s0lz8Z0A3Bw5GCUOfbYY0XPnj1F3759xeDBg8Xtt98ugTl69Ghx9913S9MaAAMfdM4558hp+bDDDpNTMaY32PdTfkaYyy+/XNp7hTHDYcpcd911y6o334Fero5izgEMrxycJsoBF8/WqlVLXHbZZYEAUw+gcpo2bZoEwEUXXSQB9PLLL0ubMv4rJwEerDreeOMNyfv1799fKqufffZZabEaNq+HH35YMGKWW3foBd1cTM4BDKaXKapcIjNdwWflOaFzhI8st+7Q6/7773ey6k4BjF646667lk1gGmTDDTeUdlROUjlkoWD+4e/KBRjPQzcXRzGnAPbQQw8ZGe8gosNMYy6d58SUHRVgLHKgn2vJGYDB98B0BwHJ9D/M8TXXXOMafcsqz4QJEwSrW1Mdg+5Dv3L5x7IKGOFhZwA2ZcqUWPIpxAU9evSIQAJ3Xhk+fHgsTyjke9DRpeQMwLp27RrLOhUpPSEAcP/Ka+revbuUqwWNVKb/kbtBR5eSEwD7/vvvZWARE+HC3Ie4SMLnz5/vEn1DlwUTnDZt2sQaxaETAVqgpyvJCYCNGzfOKA0PAy6eQQ6Go4SLK6kwjQ3Ahg0bJuVgdJaw9fY+h1YBerqSnAAYwUFYBXmJFfY3lgn0/k8++cQVukYqB2qus846q2wthk4n6Ag9XUmZAwxlNDq+qL2W97bYYgvBCqwSEop5HD2iWn5AD+jpiv1+5gAjLkO5Cl69x6622mqSsXVteR4H7DfffHPZOkmdJtATurqQMgcYXsxxeitMrWtL87gN+9VXX0nFu8lKQweT3zX0hK4upMwBxtI8iu4RwiL3wYrBa1vlAmHjlgEFfLkWJQps0BO6upAyB9i+++4bmcFfe+21xQ033OACHRMvAy5qUeOawehDVxdSpgDDNgvzlKgMfp06dWQ0GhcImXQZELcQbDgKbXgHurpgTp0pwL799lsBk66G9nLPWJnmVe4VBpAYP66wwgqR6ANdoW/WKVOAvfPOO5FXkPAZOE+4asmZRMMiz4rqFcVKEvpmnTIF2HPPPRc59BI9+8ADD8yafql+H0YfJX65IzvPI3yGvlmnTAGGiXBUDx/eO/zww7OmX6rfx54/6koS+kDfrFOmAMOBIirAGMEQUVRywscgDsCgb9YpU4DdcccdkZlYZZ6TNQHT/P65554beYqkA0LfrFOmAEPaHHUEg8nHDr2S02mnnRaZyYeuLkjzMwXYvffeGxlgSqlbSTpIb2c54ogjItMHgEHfrFOmAHviiSciE5CVEvbreEtXYkL8wggdR40GfbNOmQJs8uTJkcUUAAxXNTaZqsSEI29UDyMlpsDPMuuUKcA++OCDyIJWiIgu8vrrr8+ahql8n3AAUXWR0AZBK/TNOmUKMDaCiipIVL306KOPzpqGqXyfOBXlhK6CHvoBXaFv1ilTgMFnoE+MotCFmLyHQhj7qUpKKKnRUkTVQ0IXgrm4oEbLFGCAgm2J49jjs8MsIZkqKakQAlE7HvR0RQidOcDYzi6q5SajGL0ckOYtvLetQ5x33nmRJfjQBHpecskltk9U23+ZA+zxxx+PbDKtpkmCwZFPJSScPrbffvtYozqdzgURBe2ROcCIOhjVJAWAqVGsVatW4rvvvss1xuC9unXrFmvhAz2IzoiYw4WUOcAgKqEvo/IbCmSILJgWXGBsozbsPffcIz2z49CCd7GTc8GaFTpkDjAKcemll8aaEgAZjC3B2+68886o7Zvpe0RXZE+iqJJ71dGgAxGrXUlOAIzQk3EYfZ24LM8ZCfKU2K2X+LBR3fdU/TlDR1ahriQnAEaMU+RZOqGiXtOD8ZUkRr7rinCm80ceeURu8JVEB4NmLBDCBByuLgA6ATAqe+WVV8bmwxQo4UPgyY455hgn7NL9GpOtYAjVjjqITqHKHudMva+66iq/z2V2zxmAffHFF4GKbxoC4GBFwUrJ1hgQmymH0YyoOy7o5WhlVs34cjJiYzdPOW31KOc/9I8A16XkDMCYLohPbyIoxIN5Rb/GHj24ZBGTdO+99za+Q14KaMRwRW/JlFTd7lyUGasPvIToHNhqJQksRTO2p3FtFe0MwOh17E9tIjyjkTdMAEtxwMKGCGH0doyA5MNGCWyLh1gDwCHcXLx4cSIdn6g2hJFivySmfcrMNAioWCGa6qdAEvVMvjNmzEikDklm4hTA6H00iInIgIgwme+9914JDX788Udxyy23hAKZypsGAXA0Ogc7ysaN0oyoAZd9GHbyJP+0AKXqoc7QzbXRi0ZyCmAUiF5I4yjCec80GJsujBkzpgRkSPEZkbzPh/nNFoC4iCUhnGTbmXr16kUqR5iy+j0DvVxwsi1pkP//cA5g9EK24PMjpH6PaQejPD2x81gQT6bnoa5x0Z8zZ46eVeRrQhnACyUldlBltJ1PPfVUJ0cviOgcwCgUKyH4JBtRmX523HHHElswLCpgpoPe1fNVo1dkRPm8iLtYHHNnvXxB19TVtZWjThInAcZUdeutt1qnSgiPqALlsD61sWLDXQtr0DD8DyB98skndZrEvn7rrbckLxYEjrj/MzUyJev1j134hDNwEmDUESk8U1cQSDDVgbnWE2IMNtUidiurN0Y7b2Nyj0XDwQcfnHi4yZ9++knuSen9ZpK/oQv0cV1b4SzA4MXgqTbeeOMq4NAbCvkYEnvCgOuJXo24AIPG7bbbToY5X3PNNQUH08rOO+8sMOybOnVqlXf1fKJed+nSpaxVrV6nMNfQxfXdbqGdswCjcIAGQ8KgGGJYUSBDMyVkU2xCyjOsUrGVSntJjxooqNxhgOT3DPlCF2+nMtU/y/tOAwzCMAX069fPqkaC4LjZuxSrlbgSUQOX+IFK3UO9BD1cnxoVqJ0HGAWFpzrxxBOtXuBqv8ikJPKKQFHPvXv3jm2ZqkClzvCTnTt3lvSIWq7qfi8XAIMoCxcuFLZYDTC98CWsqlAfZe0Ewl7ecXw+FajUmQUJ8dCqW48aF5C5ARg8E/IeVn1ME4rw3jON2qFDB8F+2fBdAJNVHSMbUyi7sTEiIhClsVAzpZGSBBgjF36SWJykzTsmTYvcAIyKQ1xAQ08OchRhdclKEQsGNipFNsa+1qNHj5abTqEagm9jV400UlIAo57oGT/77LPcgQu65gpgCmSMZCeccEIs13pGPtQ5qKXSSEkADJEKJkx5HLkUTXMHMFVwpj4MCWHug4Sx3mlU/XYVYNQH+zVAmjeeS7WPOucWYFQAtRBMfcOGDa0rTAUo7xlVC6vTNFJUORjMPLulDR061IngJXFpk2uAUXmEqGy7gtqEjeG9ILL9Rl3UqVOnuDT0fZ99H4PMur1lwxy8ZcuWYtKkSbmRc/lWXruZe4BRF5h/+BT8Kxs0aBA65liaAOvZs2fgQkQBjFUxo9YFF1wgmXmXldcadkJdVgTAVE0RQ7D5ALb3OHsE+RnC62C7lUY688wzAwEGD4iy/sgjjxTPPPNMrje0N9GwogCmKsmm6CNHjpTTJk4W8DVqtPCejzvuOPVaomcbwAAWQmGmw9tuu00sWLAglyKIMASrSIBRcabN+fPny0UAcjOmIK/yGeClZQ3KdIeYQQc0Mi1MiBAWI39jWq+k6dAPcBULMFVZgMZSH4cOTGhw0Wf6RAxAkJC0YsmzjQsOIHyHaXCXXXaRK1ZCi+MbSblqQqp4gOmNCI+GuQ6iDTygsWRFjZRGQiX19NNPy+8gcpg2bVpirnFplDetPGsUwNIiYpGvmQIFwMy0Kf5JgAIFwBIgYpGFmQKRAQaTiqqGldDs2bOl4+fbb78tOOBzZs2aJW3iYWjhR2oKU2smdc38pyyAARKW/q+88oo0fWGzACTWCCsRFmJW0qZNG2kYiCMGIgAcK6677jq5MRMqEBwVXIpfpTc75WIh4HdgwBi2kyB6QIXllw/3shJNUH5Mrf3Kxf00yhUaYGx2wKoLC4Z99tlH4LDq5w6my33UNRJz/BSbNGkizWMIc7lo0SJrg2EgyDerK7AvogzqR+A6vwMxR1gHV0ZxVqp++XCPFSWNXJ0JBxFmGlOZbrrpJpHG3kaBAKNXv/7664L9o7FaCFK/KFDZzih1P/zwQ1+A0ZNQmyBGQGGM29l9990np+I0GwSPI1vgFTrVCy+8EKoIxP+qU6dOiZBVp0ffvn2r3QwHutKx9XLo1wiFoXfSyQowhnlMj5GEJ+khw+jnt/0LQzSCT4LhqtGR0Y84FHjp+L2TFEGIE4tFhk50/bpp06bSyiHM97CgxU5Nf1+/JkhLdYcZZ8TEW14vh35N+3bv3j1M9cp6xggwGhvFMeGSbDbweiHDXu+3336+Ak4ixKA79MsHAtBwaaUCYNUMsHfffVe6vwfZvvuBIejehRde6Gs5wCbopncZ0Qhw6+eWBgP+0UcfiSlTpvgerGpx9LClAmDVCDA8bRjG2WjK1OBx7rPNid9KErc0W764/CMW8SYWAqxoGW39Dhw/EJvYUgGwagQYfBfb+cL/2Bqc/5i64JkABw4UzOOYqnA+5ZRTpG3W/vvvv8QQkOdNMRWwLrV9D8bZz0Yd3gwbMNO7RC8MWiEVAKsmgDGV4GwAEEwNxn189bAWuOKKK8TYsWOloJXRhdEEEQROGSzrWRozdRGRkJUh7mJ+0xyjCxFxsJXy+y6rV0DsF4+hAJhtbP7vP2eYfEQSMOF+jazu4XOIoR6C0yDeRq860yIOryaBJeDEadYbQhP+izhe3oiGKu8CYIoS5rMzABs2bJhxJacAxkgCENNwzyfAL9L/vfbaSxrnASx8IG3RZAqAmYGl/nECYBSiR48eVrEEAW4fe+yxVCXRTK+MVkjPCQfOJgqmUQ8CugYwpOWFHOw/aJfIwebOnSuFqmqk8juzIsONPY0Ef0UZWAR4D+6jXPdLQQDD0+jBBx8syZP8dDVUkkw+uleEw370455X0Eo50PH6HazobZ0Lg0m/97hHR1Up7AhGG8A7jx8/XvpmIjqCJ+fgmnDxaDR02qlv+J1LAIZ/IRJrE2GQiaG2Qe2QRiLaIEpzpmDvwSqR4LokCA7YUO+weECdhM29qdyoQYg+refZtm1bqYRHW0HKCmCffvqpINQTxgF+B6548K2mxP9+73GPVbx6Nwhg+HCyNfXgwYNlfkgRcEzBj4GFFwfXmH+DESQFCOIV/UzlKwEYqzjbrmfoIrGkSCvhCWQCCatWbOpJ9Gr0eYg/GjVqVJbiXc8fMKtRMQhgbJr66KOPSjEJohLbQYA4bPH1b+nX+gjGVn6MsPr/+jU8KKORKSF8NomTkAQQLIYUBDAAhNyzbt26xvz0cgE2FoMElCFvUyoBGLbjIFTPSL9GGezdZcOUcZT7jFD69/RrAIb5DwkbMxpc/z/KNQBTNvlBAMNrHIV3+/btAw/kbqy0TWXSAYYIZ5tttjE+C4BsAKODmQBGKCtYAVIQwExltd3HK4vRDDGVKZUAjL11bO738F8M6X4J4DFdjRo1KvQBcXUbpLAAg+CY/tgqH+a/cgAWJr+wz1QKwKgvHQl7QAIu+6USgMHLeH0HdaKhQzT1JhhbGp0dZ8MeAFafwwuA/bfJvU5zl0cwVU58PU1bWZcAjJUCU5F60XtGaq+vTHTE8i5Ghd53bL9btWpVMn8XAMseYAi1a9WqJdV/zZo1kwYGtkGH9gUzBPPzixZZAjAMzmwGhah6TMvT6gSYYvLbtWsnOA455BC54jGBmVVk8+bN5bPqHValQ4YMWSIsDuLBTHlHuV+dU6SauoJ4MNqdRRyiCIwR2NwCy9vJkydLOsFX2uqKkYFfKPmyAAaP5gLAkNWg92SfRw6IYDMWRITBRvHqec7oSJGfKRlTTQcYoxYxzTCE1PliZil0yxgrYihqAhlTOXtvelMJwJDH2IwLQTeBOvxSdY5g3u8HCVqTsKYwETbKfRdHMEyhBg0a5CXtkt/YBzJTmOqLzMwv3m0JwKi4LfQ2U+i8efOWfFS/qHSAoSLDBIlpNejAs8pmjZJHgDGyIdQ1AQw/i/79++uQkNclAIPHAsmmTDp27CidNarkIoTUG6KUxn5fHXvuuad1RIzK5Hu/Xx0jGEFT8DqC/ws6IHRYQWvacrCwPFjQCIaJFZ5SJmygCUDK4E0lAEPPROQZUyZYOEyfPt2bh/zNPE1l2NhTHSxdbYDNE8DScvrIC8AwtUJqb8IG8jAcc7ypBGCoQmyrBYSwEyZMWMIYezPz/sb9zGZVUABMSGPMNCX5SY1gMP4I0k0Ag3cPBNhrr70ml/OmTJCRDBw4UBBBMEwqAFZVrgVt88iDsXJHV23CBlMkQfe8qWQEQ4GLRalJt0XmWCWwo2uYVACscgCGBY3NGAEhO+bw3lQCMIZBVgo2iTxz7YABA3ydL7yZFwCrHICxsMGUxzSC1a5d29dvtQRgAATTZExETBlxH++eESNG+KoGdJC5BDCEsbYUJGjNislHus4q2ZSCrCmS4sEwQkROasIFYpzhw4dXKWYVgCHv8HO80DNmCoV5Ry42c+bMJeoWb+6uAAwmGvWHLWUFMIwsbfZgSNhNFizUp7oABluEuk3HgX6N6yJiHG+qAjCmSUYnNOR6Bt5rQIZQFrFG69atxRlnnCGZVxhYkM4WLex2ZgshntQqEvuwk046yVheysn/JkU9RMkKYETisRl5srBiavK6+uHNhRgIAHrbRv2m3mFHMKyVMV8ifINSnymwwJsjI7V5+aOL9OPNqwCMTFEHsbOqzbJCVYIzilJWEVSIA+07vJrJx1G9mxTA0I8i5FP5es+qM2AG3LVrV/lsr169pH5Nud1lBTDMnxo3bmwsO3VBSo65N/wx6joclJk6uQ8AvfVVv8sBGDSizYgN0qJFC+n8w/egE5bDNr6cMjCgKOtgBUzOvgADwZhGw3fwYVXgpM9JAYwIioQHDyof/pYQkQ5Ab6TRVMyvrADGjIGi3mbFQr3o7JSbA5lTmHYpB2CKduTLwAB9FJ2CygZPzijrHfmMAOMPfB7RjqMlVx9P+pwUwKgYylgUruWUkYZVutWsAAatg1R05dRJfzYKwPT3w14zPRJgxi/5jmDqQaxNx40bJy1VbUNx2IJ4n0sKYJSXabJPnz65BBh8Evxq0jSuDoAxemHNjCDWL1kBxgvooFgpwpNhuOcFSdTfEJTQA3rBwlq0+lWEUYwQTrhehS2TKyMY0yR+mzaHG1ud4H/r169fpd5hAMb0h4gBM3fbN/z+w2IER22TjSDtFAgwHoIAWEQCCGJSYHgWhgfwFgregX16mHoR3Ong4js2ZSo8CAy6LVFOvGi6desmeS3v972/AZgKB4USn7J5n1G/MR82xcbwlikowqGfXR0dmdkCGWTQ4kiViQ4PTQhHiqucuq/OAEz3KvKzhgAkiJtwdMbkyub0o/LlzMiF1Qjg8uO9FE1CAUw9TAMybcIYAxIKxPyLSAOGUB/iEU9QCBoGImBRSmMCVC+wVP6oIwgVQN7eAxmL4pfU835nKgvTz/If1QXlo4eyCoKYqkxEx0Zxr8qCGIBltve76jfyKuXi5vdd/R71nDhxom9eGBTgGa++q7/HPaxS0Plh+oT4ApCozswCBZkenZxQo8gsaQ/qzDVO0XRSRkP2SkIOqRqfM2Iawj6oOnGG3tCV/8mLa2YS9grn+9CMxREdHG91VpjwjMxqdIqgVBbA9MwAGwThIywIKBwNiycxoxNg4T7/8xzPh0k8ZzrCvK+egWDe8lFGW5l4x/Rt/gubeDZOXpTBS1dEAHr5ecab/Moe5hlv3bzfpy31b0NX7zve76jfkQGmMijOBQVsFCgAZqNO8V9sChQAi03CIgMbBQqA2ahT/BebAgXAYpOwyMBGgQJgNuoU/8WmQAGw2CQsMrBR4H+ABu3p04Q7eQAAAABJRU5ErkJggg==;" parent="1" vertex="1">
          <mxGeometry x="629" y="97" width="38" height="35.25" as="geometry" />
        </mxCell>
        <mxCell id="K9QI-t-WBzVYZI2G-bz4-13" value="" style="endArrow=classic;html=1;rounded=0;" parent="1" edge="1">
          <mxGeometry width="50" height="50" relative="1" as="geometry">
            <mxPoint x="177" y="80.59" as="sourcePoint" />
            <mxPoint x="225" y="80.59" as="targetPoint" />
          </mxGeometry>
        </mxCell>
        <mxCell id="K9QI-t-WBzVYZI2G-bz4-14" value="" style="endArrow=classic;html=1;rounded=0;" parent="1" edge="1">
          <mxGeometry width="50" height="50" relative="1" as="geometry">
            <mxPoint x="280" y="82" as="sourcePoint" />
            <mxPoint x="328" y="82" as="targetPoint" />
          </mxGeometry>
        </mxCell>
        <mxCell id="K9QI-t-WBzVYZI2G-bz4-15" value="" style="edgeStyle=elbowEdgeStyle;elbow=vertical;endArrow=classic;html=1;curved=0;rounded=0;endSize=8;startSize=8;" parent="1" edge="1">
          <mxGeometry width="50" height="50" relative="1" as="geometry">
            <mxPoint x="249" y="100.59" as="sourcePoint" />
            <mxPoint x="193" y="175" as="targetPoint" />
          </mxGeometry>
        </mxCell>
        <mxCell id="pdfH89d47obwF98P1YPj-6" value="325 Model Families" style="strokeWidth=2;html=1;shape=mxgraph.flowchart.multi-document;whiteSpace=wrap;fillColor=#f9f7ed;strokeColor=#36393d;" parent="1" vertex="1">
          <mxGeometry x="497" y="43" width="174" height="43" as="geometry" />
        </mxCell>
        <mxCell id="pdfH89d47obwF98P1YPj-7" value="17,000 commits" style="strokeWidth=2;html=1;shape=mxgraph.flowchart.multi-document;whiteSpace=wrap;fillColor=#e1d5e7;strokeColor=#9673a6;" parent="1" vertex="1">
          <mxGeometry x="446" y="152.5" width="79" height="47" as="geometry" />
        </mxCell>
        <mxCell id="pdfH89d47obwF98P1YPj-8" value="140,000 commits" style="strokeWidth=2;html=1;shape=mxgraph.flowchart.multi-document;whiteSpace=wrap;fillColor=#e1d5e7;strokeColor=#9673a6;" parent="1" vertex="1">
          <mxGeometry x="608.5" y="152.5" width="79" height="47" as="geometry" />
        </mxCell>
        <mxCell id="pdfH89d47obwF98P1YPj-9" value="800 samples" style="shape=document;whiteSpace=wrap;html=1;boundedLbl=1;" parent="1" vertex="1">
          <mxGeometry x="435" y="221.75" width="53" height="38.25" as="geometry" />
        </mxCell>
        <mxCell id="pdfH89d47obwF98P1YPj-10" value="800 samples" style="shape=document;whiteSpace=wrap;html=1;boundedLbl=1;" parent="1" vertex="1">
          <mxGeometry x="488" y="221.75" width="53.5" height="36.75" as="geometry" />
        </mxCell>
        <mxCell id="pdfH89d47obwF98P1YPj-11" value="" style="edgeStyle=elbowEdgeStyle;elbow=vertical;endArrow=classic;html=1;curved=0;rounded=0;endSize=8;startSize=8;entryX=0.75;entryY=0;entryDx=0;entryDy=0;" parent="1" target="pdfH89d47obwF98P1YPj-10" edge="1">
          <mxGeometry width="50" height="50" relative="1" as="geometry">
            <mxPoint x="621" y="198.75" as="sourcePoint" />
            <mxPoint x="547" y="236.75" as="targetPoint" />
            <Array as="points">
              <mxPoint x="586" y="204" />
            </Array>
          </mxGeometry>
        </mxCell>
        <mxCell id="pdfH89d47obwF98P1YPj-12" value="" style="endArrow=classic;html=1;rounded=0;endSize=6;startSize=6;" parent="1" edge="1">
          <mxGeometry width="50" height="50" relative="1" as="geometry">
            <mxPoint x="468" y="200.75" as="sourcePoint" />
            <mxPoint x="468" y="221.75" as="targetPoint" />
          </mxGeometry>
        </mxCell>
        <mxCell id="pdfH89d47obwF98P1YPj-13" value="Remaining commits" style="shape=document;whiteSpace=wrap;html=1;boundedLbl=1;" parent="1" vertex="1">
          <mxGeometry x="573.5" y="215.5" width="114" height="47" as="geometry" />
        </mxCell>
        <mxCell id="pdfH89d47obwF98P1YPj-14" value="" style="endArrow=classic;html=1;rounded=0;endSize=6;startSize=6;" parent="1" edge="1">
          <mxGeometry width="50" height="50" relative="1" as="geometry">
            <mxPoint x="645" y="195.75" as="sourcePoint" />
            <mxPoint x="645" y="216.75" as="targetPoint" />
          </mxGeometry>
        </mxCell>
        <mxCell id="pdfH89d47obwF98P1YPj-16" value="&lt;div style=&quot;text-align: left;&quot;&gt;&lt;div&gt;- Dominant activity types on GitHub and Hugging Face&lt;/div&gt;&lt;div&gt;- Validation of dominant change types&lt;/div&gt;&lt;div&gt;- The degree of similarity in activity types&lt;/div&gt;&lt;div&gt;- Factors influencing change types similarities&lt;/div&gt;&lt;div&gt;- Dominant keywords in commit activities&lt;/div&gt;&lt;/div&gt;" style="rounded=0;whiteSpace=wrap;html=1;fillColor=#f5f5f5;strokeColor=#666666;fontColor=#333333;" parent="1" vertex="1">
          <mxGeometry x="437.5" y="338" width="248.5" height="98" as="geometry" />
        </mxCell>
        <mxCell id="pdfH89d47obwF98P1YPj-18" value="&lt;b&gt;RQ-1: &lt;/b&gt;&lt;br&gt;What types of modifications and updates occur on Upstream and Downstream for a given PTLM project?" style="rounded=1;whiteSpace=wrap;html=1;fillColor=#fff2cc;strokeColor=#d6b656;" parent="1" vertex="1">
          <mxGeometry x="440.5" y="464" width="243.5" height="60" as="geometry" />
        </mxCell>
        <mxCell id="pdfH89d47obwF98P1YPj-19" value="Combined dataset for determining change types on GitHub and Hugging Face" style="shape=document;whiteSpace=wrap;html=1;boundedLbl=1;fillColor=#DEDEDE;" parent="1" vertex="1">
          <mxGeometry x="446" y="277.5" width="235" height="47" as="geometry" />
        </mxCell>
        <mxCell id="pdfH89d47obwF98P1YPj-20" value="Grouped by GitHub" style="text;html=1;align=center;verticalAlign=middle;whiteSpace=wrap;rounded=0;" parent="1" vertex="1">
          <mxGeometry x="315" y="454" width="85.5" height="26.75" as="geometry" />
        </mxCell>
        <mxCell id="pdfH89d47obwF98P1YPj-21" value="" style="edgeStyle=segmentEdgeStyle;endArrow=classic;html=1;curved=0;rounded=0;endSize=8;startSize=8;" parent="1" edge="1">
          <mxGeometry width="50" height="50" relative="1" as="geometry">
            <mxPoint x="671" y="59.5" as="sourcePoint" />
            <mxPoint x="815" y="75" as="targetPoint" />
          </mxGeometry>
        </mxCell>
        <mxCell id="pdfH89d47obwF98P1YPj-23" value="177 Random samples" style="shape=document;whiteSpace=wrap;html=1;boundedLbl=1;fillColor=#eeeeee;strokeColor=#36393d;" parent="1" vertex="1">
          <mxGeometry x="728" y="91.75" width="97" height="43.25" as="geometry" />
        </mxCell>
        <mxCell id="pdfH89d47obwF98P1YPj-24" value="" style="shape=partialRectangle;whiteSpace=wrap;html=1;bottom=1;right=1;left=1;top=0;fillColor=none;routingCenterX=-0.5;rotation=-180;" parent="1" vertex="1">
          <mxGeometry x="762" y="76.75" width="120" height="15" as="geometry" />
        </mxCell>
        <mxCell id="pdfH89d47obwF98P1YPj-25" value="Remaining samples" style="shape=document;whiteSpace=wrap;html=1;boundedLbl=1;fillColor=#eeeeee;strokeColor=#36393d;" parent="1" vertex="1">
          <mxGeometry x="845" y="91.75" width="78" height="38.25" as="geometry" />
        </mxCell>
        <mxCell id="pdfH89d47obwF98P1YPj-27" value="" style="shape=curlyBracket;whiteSpace=wrap;html=1;rounded=1;flipH=1;labelPosition=right;verticalLabelPosition=middle;align=left;verticalAlign=middle;" parent="1" vertex="1">
          <mxGeometry x="682" y="144" width="31" height="62" as="geometry" />
        </mxCell>
        <mxCell id="pdfH89d47obwF98P1YPj-29" value="" style="shape=curlyBracket;whiteSpace=wrap;html=1;rounded=1;labelPosition=left;verticalLabelPosition=middle;align=right;verticalAlign=middle;" parent="1" vertex="1">
          <mxGeometry x="424" y="149" width="28" height="61" as="geometry" />
        </mxCell>
        <mxCell id="pdfH89d47obwF98P1YPj-30" value="Manual labelling" style="strokeWidth=2;html=1;shape=mxgraph.flowchart.multi-document;whiteSpace=wrap;" parent="1" vertex="1">
          <mxGeometry x="733" y="210" width="81" height="46.63" as="geometry" />
        </mxCell>
        <mxCell id="pdfH89d47obwF98P1YPj-34" value="&lt;div style=&quot;text-align: left;&quot;&gt;&lt;div&gt;- Identification of synchronization pattern&lt;/div&gt;&lt;div&gt;- Synchronization pattern characteristics&lt;/div&gt;&lt;div&gt;- Factors influencing synchronization patterns&lt;/div&gt;&lt;/div&gt;" style="rounded=0;whiteSpace=wrap;html=1;fillColor=#f5f5f5;strokeColor=#666666;fontColor=#333333;" parent="1" vertex="1">
          <mxGeometry x="701" y="338" width="248.5" height="98" as="geometry" />
        </mxCell>
        <mxCell id="pdfH89d47obwF98P1YPj-35" value="&lt;b&gt;RQ-2: &lt;/b&gt;&lt;br&gt;How are project family commit activities change types aligned between upstream and downstream?" style="rounded=1;whiteSpace=wrap;html=1;fillColor=#fff2cc;strokeColor=#d6b656;" parent="1" vertex="1">
          <mxGeometry x="708" y="461" width="245" height="60" as="geometry" />
        </mxCell>
        <mxCell id="pdfH89d47obwF98P1YPj-37" value="" style="endArrow=classic;html=1;rounded=0;" parent="1" edge="1">
          <mxGeometry width="50" height="50" relative="1" as="geometry">
            <mxPoint x="776" y="131" as="sourcePoint" />
            <mxPoint x="776" y="210" as="targetPoint" />
          </mxGeometry>
        </mxCell>
        <mxCell id="pdfH89d47obwF98P1YPj-40" value="Automatic labelling" style="strokeWidth=2;html=1;shape=mxgraph.flowchart.multi-document;whiteSpace=wrap;" parent="1" vertex="1">
          <mxGeometry x="832" y="209" width="81" height="46.63" as="geometry" />
        </mxCell>
        <mxCell id="pdfH89d47obwF98P1YPj-41" value="" style="endArrow=classic;html=1;rounded=0;" parent="1" edge="1">
          <mxGeometry width="50" height="50" relative="1" as="geometry">
            <mxPoint x="875" y="130" as="sourcePoint" />
            <mxPoint x="875" y="209" as="targetPoint" />
          </mxGeometry>
        </mxCell>
        <mxCell id="pdfH89d47obwF98P1YPj-42" value="" style="edgeStyle=segmentEdgeStyle;endArrow=classic;html=1;curved=0;rounded=0;endSize=8;startSize=8;exitX=0.1;exitY=0.5;exitDx=0;exitDy=0;exitPerimeter=0;" parent="1" source="pdfH89d47obwF98P1YPj-27" edge="1">
          <mxGeometry width="50" height="50" relative="1" as="geometry">
            <mxPoint x="708" y="163" as="sourcePoint" />
            <mxPoint x="762" y="209" as="targetPoint" />
          </mxGeometry>
        </mxCell>
        <mxCell id="pdfH89d47obwF98P1YPj-43" value="" style="edgeStyle=segmentEdgeStyle;endArrow=classic;html=1;curved=0;rounded=0;endSize=8;startSize=8;" parent="1" edge="1">
          <mxGeometry width="50" height="50" relative="1" as="geometry">
            <mxPoint x="762" y="175" as="sourcePoint" />
            <mxPoint x="858" y="209" as="targetPoint" />
          </mxGeometry>
        </mxCell>
        <mxCell id="pdfH89d47obwF98P1YPj-44" value="Combined dataset" style="shape=document;whiteSpace=wrap;html=1;boundedLbl=1;fillColor=#DEDEDE;" parent="1" vertex="1">
          <mxGeometry x="716.75" y="275" width="217" height="47" as="geometry" />
        </mxCell>
        <mxCell id="pdfH89d47obwF98P1YPj-46" value="" style="edgeStyle=segmentEdgeStyle;endArrow=classic;html=1;curved=0;rounded=0;endSize=8;startSize=8;" parent="1" edge="1">
          <mxGeometry width="50" height="50" relative="1" as="geometry">
            <mxPoint x="933.75" y="290.5" as="sourcePoint" />
            <mxPoint x="1085" y="336" as="targetPoint" />
          </mxGeometry>
        </mxCell>
        <mxCell id="pdfH89d47obwF98P1YPj-47" value="&lt;div style=&quot;text-align: left;&quot;&gt;&lt;div&gt;- Accuracy of automatic labelling tool&lt;/div&gt;&lt;div&gt;- Variance of lag and synchronization patterns across families&lt;/div&gt;&lt;div&gt;- Transitioning of model families during synchronization&lt;/div&gt;&lt;div&gt;- Testing hypothesis for factors influencing model families transitioning&lt;/div&gt;&lt;/div&gt;" style="rounded=0;whiteSpace=wrap;html=1;fillColor=#f5f5f5;strokeColor=#666666;fontColor=#333333;" parent="1" vertex="1">
          <mxGeometry x="971" y="338" width="248.5" height="101" as="geometry" />
        </mxCell>
        <mxCell id="pdfH89d47obwF98P1YPj-48" value="&lt;b&gt;RQ-3: &lt;/b&gt;&lt;br&gt;How do the alignment patterns of PTLM project commit activities between upstream and downstream evolve?" style="rounded=1;whiteSpace=wrap;html=1;fillColor=#fff2cc;strokeColor=#d6b656;" parent="1" vertex="1">
          <mxGeometry x="976.5" y="459" width="243" height="60" as="geometry" />
        </mxCell>
        <mxCell id="pdfH89d47obwF98P1YPj-65" value="&lt;u&gt;step-1&lt;/u&gt;" style="text;html=1;align=center;verticalAlign=middle;whiteSpace=wrap;rounded=0;" parent="1" vertex="1">
          <mxGeometry x="168" y="58" width="60" height="30" as="geometry" />
        </mxCell>
        <mxCell id="pdfH89d47obwF98P1YPj-66" value="&lt;u&gt;step-2&lt;/u&gt;" style="text;html=1;align=center;verticalAlign=middle;whiteSpace=wrap;rounded=0;" parent="1" vertex="1">
          <mxGeometry x="271" y="61" width="60" height="30" as="geometry" />
        </mxCell>
        <mxCell id="pdfH89d47obwF98P1YPj-68" value="&lt;u&gt;step-3&lt;/u&gt;" style="text;html=1;align=center;verticalAlign=middle;whiteSpace=wrap;rounded=0;" parent="1" vertex="1">
          <mxGeometry x="21.5" y="183.51" width="60" height="30" as="geometry" />
        </mxCell>
        <mxCell id="pdfH89d47obwF98P1YPj-69" value="&lt;u&gt;step-4&lt;/u&gt;" style="text;html=1;align=center;verticalAlign=middle;whiteSpace=wrap;rounded=0;" parent="1" vertex="1">
          <mxGeometry x="21.5" y="265.75" width="60" height="30" as="geometry" />
        </mxCell>
        <mxCell id="pdfH89d47obwF98P1YPj-70" value="&lt;u&gt;step-5&lt;/u&gt;" style="text;html=1;align=center;verticalAlign=middle;whiteSpace=wrap;rounded=0;" parent="1" vertex="1">
          <mxGeometry x="17" y="364.5" width="60" height="30" as="geometry" />
        </mxCell>
        <mxCell id="pdfH89d47obwF98P1YPj-71" value="&lt;u&gt;step-6&lt;/u&gt;" style="text;html=1;align=center;verticalAlign=middle;whiteSpace=wrap;rounded=0;" parent="1" vertex="1">
          <mxGeometry x="398" y="114" width="60" height="30" as="geometry" />
        </mxCell>
      </root>
    </mxGraphModel>
  </diagram>
</mxfile>
